<?xml version="1.0" standalone="no"?>
<!DOCTYPE svg PUBLIC "-//W3C//DTD SVG 1.1//EN" "http://www.w3.org/Graphics/SVG/1.1/DTD/svg11.dtd" >
<svg xmlns="http://www.w3.org/2000/svg">
<metadata></metadata>
<defs>
<font id="DejaVuSansCondensedOblique" horiz-adv-x="1172" >
<font-face units-per-em="2048" ascent="1556" descent="-492" />
<missing-glyph horiz-adv-x="585" />
<glyph unicode="&#xfb01;" horiz-adv-x="1190" d="M125 0l172 977h-158l23 143h158l14 78q34 198 120 278t270 80h157l-26 -153h-158q-90 0 -131 -39.5t-61 -144.5l-18 -99h619l-197 -1120h-167l176 978h-455l-171 -978h-167zM975 1323l40 233h167l-41 -233h-166z" />
<glyph unicode="&#xfb02;" horiz-adv-x="1190" d="M125 0l172 977h-158l23 143h158l14 78q34 199 119.5 278.5t270.5 79.5h458l-273 -1556h-167l252 1403h-297q-90 0 -131 -39.5t-61 -144.5l-18 -99h273l-25 -143h-272l-171 -977h-167z" />
<glyph unicode="&#xfb03;" horiz-adv-x="1842" d="M125 0l171 977h-158l24 143h158l15 78q32 187 125.5 272.5t263.5 85.5h156l-27 -153h-158q-89 0 -130.5 -40t-59.5 -144l-18 -99h454l15 78q42 243 194 319q78 39 195 39h156l-27 -153h-158q-89 0 -130.5 -40t-59.5 -144l-18 -99h621l-195 -1120h-167l171 977h-454 l-171 -977h-167l171 977h-454l-171 -977h-167zM1598 1321l41 233h166l-40 -233h-167z" />
<glyph unicode="&#xfb04;" horiz-adv-x="1842" d="M125 0l171 977h-158l24 143h158l15 78q32 187 125.5 272.5t263.5 85.5h156l-27 -153h-158q-89 0 -130.5 -40t-59.5 -144l-18 -99h454l15 78q32 187 125 272.5t264 85.5h460l-271 -1556h-167l245 1403h-296q-89 0 -130.5 -40t-59.5 -144l-18 -99h273l-25 -143h-272 l-171 -977h-167l171 977h-454l-171 -977h-167z" />
<glyph horiz-adv-x="0" />
<glyph horiz-adv-x="2048" />
<glyph unicode="&#xd;" horiz-adv-x="682" />
<glyph unicode=" "  horiz-adv-x="585" />
<glyph unicode="&#x09;" horiz-adv-x="585" />
<glyph unicode="&#xa0;" horiz-adv-x="585" />
<glyph unicode="!" horiz-adv-x="738" d="M146 0l46 254h182l-44 -254h-184zM248 481l45 357l115 655h182l-115 -655l-81 -357h-146z" />
<glyph unicode="&#x22;" horiz-adv-x="847" d="M177 938v555h153v-555h-153zM518 938v555h152v-555h-152z" />
<glyph unicode="#" horiz-adv-x="1544" d="M129 414l33 153h297l76 334h-303l35 154h303l92 415h145l-93 -415h262l95 415h144l-93 -415h303l-35 -154h-303l-74 -334h306l-32 -153h-309l-93 -414h-144l92 414h-263l-93 -414h-145l94 414h-297zM605 567h263l74 334h-262z" />
<glyph unicode="$" d="M61 92l31 184q169 -126 358 -134l79 456q-170 36 -247.5 110.5t-77.5 200.5q0 166 124 281t326 133l43 233h90l-40 -233q165 -6 303 -61l-30 -181q-160 94 -299 98l-76 -427q166 -29 253 -115t87 -221q0 -175 -129 -289.5t-342 -126.5l-53 -301h-90l53 301 q-210 6 -363 92zM376 953q0 -85 43 -124.5t140 -58.5l71 410q-119 -14 -186.5 -78t-67.5 -149zM540 145q125 6 198 70.5t73 158t-46 139.5t-149 65z" />
<glyph unicode="%" horiz-adv-x="1751" d="M167 1036q0 216 104.5 350t272.5 134q122 0 193.5 -89.5t71.5 -242.5q0 -214 -104.5 -347.5t-271.5 -133.5q-123 0 -194.5 88.5t-71.5 240.5zM260 -29l1112 1549h143l-1111 -1549h-144zM311 1026q0 -92 36.5 -142t104.5 -50q96 0 154.5 95t58.5 253q0 211 -139 211 q-101 0 -158 -97t-57 -270zM944 301q0 216 104 349.5t271 133.5q123 0 193.5 -88t70.5 -241q0 -215 -104 -349.5t-270 -134.5q-123 0 -194 89t-71 241zM1087 291q0 -93 36.5 -143t104.5 -50q96 0 153.5 95t57.5 253q0 213 -138 213q-99 0 -156.5 -97.5t-57.5 -270.5z" />
<glyph unicode="&#x26;" horiz-adv-x="1437" d="M86 369q0 310 331 544q-54 89 -54 176q0 156 80 259q62 82 155.5 127t182.5 45q158 0 304 -72l-31 -182q-139 96 -257.5 96t-188.5 -64.5t-70 -164.5q0 -44 17 -87t79 -131l367 -520q138 163 188 406h167q-79 -315 -265 -531l188 -270h-227l-95 139q-194 -168 -435 -168 q-199 0 -317.5 109t-118.5 289zM266 414q0 -127 76.5 -204t204.5 -77q171 0 323 127l-383 543q-221 -178 -221 -389z" />
<glyph unicode="'" horiz-adv-x="506" d="M177 938v555h153v-555h-153z" />
<glyph unicode="(" horiz-adv-x="719" d="M142 383q0 591 498 1171h147q-474 -656 -474 -1202q0 -314 137 -622h-144q-164 340 -164 653z" />
<glyph unicode=")" horiz-adv-x="719" d="M-114 -270q473 655 473 1202q0 320 -136 622h144q164 -342 164 -651q0 -597 -498 -1173h-147z" />
<glyph unicode="*" horiz-adv-x="921" d="M55 858l323 195l-323 194l52 99l303 -203v377h102v-377l302 203l53 -99l-323 -194l323 -195l-53 -98l-302 203v-377h-102v377l-303 -203z" />
<glyph unicode="+" horiz-adv-x="1544" d="M195 557v170h502v557h151v-557h501v-170h-501v-557h-151v557h-502z" />
<glyph unicode="," horiz-adv-x="585" d="M5 -238l130 320l31 172h190l-30 -172l-204 -320h-117z" />
<glyph unicode="-" horiz-adv-x="665" d="M83 479l29 164h486l-28 -164h-487z" />
<glyph unicode="." horiz-adv-x="585" d="M107 0l44 254h190l-44 -254h-190z" />
<glyph unicode="/" horiz-adv-x="621" d="M-135 -190l761 1683h161l-763 -1683h-159z" />
<glyph unicode="0" d="M92 494q0 190 46 380.5t129 339.5q170 306 437 306q182 0 279 -135t97 -388q0 -192 -45.5 -381.5t-128.5 -339.5q-167 -305 -445 -305q-177 0 -273 136t-96 387zM271 465q0 -334 208 -334q143 0 244 160q82 131 130 328.5t48 406.5q0 334 -208 334q-142 0 -241 -160 q-83 -132 -132 -329.5t-49 -405.5z" />
<glyph unicode="1" d="M90 0l30 170h297l200 1149l-335 -72l31 174l334 72h183l-232 -1323h296l-29 -170h-775z" />
<glyph unicode="2" d="M7 0l30 170l607 578q121 117 172 205.5t51 183.5t-61.5 156t-153.5 61q-177 0 -420 -133l34 200q224 99 400.5 99t284 -104t107.5 -273q0 -224 -208 -422l-581 -553h642l-32 -168h-872z" />
<glyph unicode="3" d="M4 45l33 191q168 -103 346 -103t288 101.5t110 263.5q0 104 -70 160.5t-201 56.5h-156l28 164h165q150 0 235.5 76t85.5 206q0 94 -63 145.5t-163 51.5q-184 0 -378 -82l28 180q198 64 375.5 64t282 -88t104.5 -234.5t-82.5 -250.5t-227.5 -142q114 -36 167 -112t53 -199 q0 -251 -201 -408q-147 -115 -413 -115q-168 0 -346 74z" />
<glyph unicode="4" d="M33 352l35 195l725 946h229l-172 -973h191l-29 -168h-192l-60 -352h-181l61 352h-607zM210 520h459l140 797z" />
<glyph unicode="5" d="M37 35l33 188q166 -90 338 -90t286.5 117t114.5 293q0 130 -75 202t-210 72q-144 0 -306 -74l130 750h723l-28 -168h-556l-65 -369q81 29 171 29q186 0 294 -111t108 -301q0 -133 -55 -255t-142 -200q-164 -147 -418 -147q-157 0 -343 64z" />
<glyph unicode="6" d="M116 453q0 220 49 416.5t139.5 344.5t222.5 227t291 79q141 0 273 -62l-31 -184q-107 78 -278.5 78t-284.5 -130t-169 -407q134 172 341 172q164 0 262 -105.5t98 -267.5q0 -312 -188 -508q-131 -135 -321 -135t-297 131t-107 351zM299 412q0 -132 58 -206.5t161 -74.5 q140 0 234 122.5t94 299.5q0 127 -58.5 200.5t-159.5 73.5q-139 0 -234 -119.5t-95 -295.5z" />
<glyph unicode="7" d="M171 0l726 1323h-691l30 170h920l-17 -86l-768 -1407h-200z" />
<glyph unicode="8" d="M61 350q0 168 98 292.5t256 158.5q-194 74 -194 295q0 181 135.5 302.5t326.5 121.5t300.5 -98.5t109.5 -240.5t-81.5 -245.5t-222.5 -149.5q210 -89 210 -340q0 -207 -144 -341t-354.5 -134t-325 105.5t-114.5 273.5zM239 393.5q0 -128.5 70 -195.5t200 -67t220.5 91 t90.5 217.5t-71 198t-199 71.5t-219.5 -93.5t-91.5 -222zM400 1098q0 -108 62.5 -169t176 -61t194 79.5t80.5 188t-63 166.5t-177 58t-193.5 -77t-79.5 -185z" />
<glyph unicode="9" d="M81 33l33 184q107 -78 277 -78q346 0 455 539q-137 -174 -343 -174q-164 0 -260.5 105.5t-96.5 267.5q0 317 188 507q130 136 319 136t297 -131.5t108 -350.5t-50 -416t-140.5 -345t-222 -227t-291.5 -79q-141 0 -273 62zM326 940q0 -127 59.5 -201.5t159.5 -74.5 q140 0 234.5 119t94.5 296q0 132 -58.5 206.5t-161.5 74.5q-139 0 -233.5 -121.5t-94.5 -298.5z" />
<glyph unicode=":" horiz-adv-x="621" d="M95 0l45 254h190l-45 -254h-190zM238 805l44 254h190l-44 -254h-190z" />
<glyph unicode=";" horiz-adv-x="621" d="M2 -238l128 320l32 172h190l-32 -172l-202 -320h-116zM258 805l44 254h190l-44 -254h-190z" />
<glyph unicode="&#x3c;" horiz-adv-x="1544" d="M195 559v166l1154 465v-182l-929 -367l929 -365v-182z" />
<glyph unicode="=" horiz-adv-x="1544" d="M195 352v170h1154v-170h-1154zM195 762v168h1154v-168h-1154z" />
<glyph unicode="&#x3e;" horiz-adv-x="1544" d="M195 94v182l927 365l-927 367v182l1154 -465v-166z" />
<glyph unicode="?" horiz-adv-x="978" d="M227 1219l33 188q182 113 348.5 113t250 -75t83.5 -191t-48 -206t-157 -188l-93 -84q-76 -66 -101 -113t-42 -139l-22 -123h-171l28 154q16 94 51 159.5t135 157.5l95 89q76 70 106.5 123t30.5 119.5t-49 109.5t-128 43q-157 0 -350 -137zM232 0l44 254h183l-44 -254 h-183z" />
<glyph unicode="@" horiz-adv-x="1843" d="M107 401q0 225 94 435.5t263 363.5q126 114 288 177t332 63q288 0 477.5 -189t189.5 -478.5t-183 -486t-467 -202.5l27 154q-126 -150 -286 -150q-132 0 -219 99t-87 251q0 220 134 384.5t313 164.5q83 0 148 -40t100 -111l25 131h128l-128 -738q159 28 261.5 180 t102.5 373t-148.5 368.5t-384.5 147.5q-160 0 -309.5 -62.5t-272 -186.5t-195 -300t-72.5 -360q0 -261 157 -431.5t391.5 -170.5t472.5 180l74 -114q-248 -207 -545 -207t-489 214t-192 541zM680 467q0 -112 51.5 -175t142.5 -63q128 0 214 114t86 280q0 102 -51.5 162.5 t-137.5 60.5q-127 0 -216 -111.5t-89 -267.5z" />
<glyph unicode="A" horiz-adv-x="1260" d="M-98 0l777 1493h206l249 -1493h-190l-56 383h-604l-190 -383h-192zM367 551h493l-116 743z" />
<glyph unicode="B" horiz-adv-x="1264" d="M50 0l261 1493h465q376 0 376 -313q0 -144 -80.5 -248.5t-211.5 -126.5q224 -56 224 -318q0 -225 -150 -356t-410 -131h-474zM260 166h293q164 0 253.5 84t89.5 219.5t-59 189.5t-190 54h-291zM383 877h271q145 0 226.5 70t81.5 180.5t-55 155t-175 44.5h-269z" />
<glyph unicode="C" horiz-adv-x="1287" d="M77 561q0 178 55.5 350t161.5 319q212 290 576 290q233 0 411 -142l-37 -213q-171 191 -393 191q-305 0 -471 -332q-111 -222 -111 -448q0 -441 371 -441q246 0 464 178l-42 -239q-216 -103 -436 -103q-258 0 -403.5 156t-145.5 434z" />
<glyph unicode="D" horiz-adv-x="1419" d="M50 0l261 1493h391q311 0 470 -146.5t159 -435.5q0 -191 -60.5 -367.5t-166.5 -299.5q-213 -244 -661 -244h-393zM262 166h238q305 0 472 195t167 550q0 215 -108 315.5t-338 100.5h-229z" />
<glyph unicode="E" horiz-adv-x="1164" d="M50 0l261 1493h850l-30 -170h-668l-78 -442h642l-30 -170h-641l-94 -541h684l-30 -170h-866z" />
<glyph unicode="F" horiz-adv-x="1060" d="M50 0l261 1493h771l-30 -170h-589l-78 -440h533l-30 -170h-532l-126 -713h-180z" />
<glyph unicode="G" horiz-adv-x="1428" d="M83 561q0 231 86.5 439.5t240.5 347.5q190 172 464 172q252 0 462 -142l-36 -215q-166 193 -422 193q-144 0 -252.5 -60.5t-187.5 -177.5q-164 -242 -164 -563q0 -420 384 -420q197 0 348 88l70 391h-298l28 166h476l-116 -657q-248 -152 -545 -152q-253 0 -395.5 156 t-142.5 434z" />
<glyph unicode="H" horiz-adv-x="1386" d="M50 0l261 1493h183l-107 -612h660l107 612h182l-261 -1493h-183l125 711h-660l-125 -711h-182z" />
<glyph unicode="I" horiz-adv-x="543" d="M50 0l261 1493h183l-262 -1493h-182z" />
<glyph unicode="J" horiz-adv-x="543" d="M-302 -410l29 170h57q122 0 185 77t96 267l243 1389h182l-243 -1389q-48 -271 -161 -392.5t-316 -121.5h-72z" />
<glyph unicode="K" horiz-adv-x="1208" d="M50 0l261 1493h183l-111 -629l706 629h242l-798 -713l584 -780h-221l-537 727l-127 -727h-182z" />
<glyph unicode="L" horiz-adv-x="1026" d="M50 0l260 1493h182l-230 -1325h654l-30 -168h-836z" />
<glyph unicode="M" horiz-adv-x="1590" d="M50 0l261 1493h273l157 -1006l520 1006h280l-262 -1493h-177l229 1309l-527 -1022h-178l-171 1026l-228 -1313h-177z" />
<glyph unicode="N" horiz-adv-x="1378" d="M50 0l261 1493h245l371 -1280l225 1280h177l-262 -1493h-245l-370 1288l-225 -1288h-177z" />
<glyph unicode="O" horiz-adv-x="1450" d="M74 580q0 162 55 331t161 313q219 296 556 296q247 0 389 -161.5t142 -440.5q0 -172 -54 -338t-162 -312q-221 -297 -556 -297q-248 0 -389.5 163t-141.5 446zM267 587.5q0 -226.5 89.5 -339.5t245.5 -113q304 0 469 324q113 222 113 446t-90 337.5t-246.5 113.5 t-270.5 -80.5t-199 -245.5q-111 -216 -111 -442.5z" />
<glyph unicode="P" horiz-adv-x="1111" d="M50 0l261 1493h421q183 0 279.5 -95t96.5 -278q0 -246 -142 -383t-400 -137h-228l-106 -600h-182zM367 766h229q155 0 237.5 88t82.5 252q0 105 -56 163t-158 58h-238z" />
<glyph unicode="Q" horiz-adv-x="1450" d="M76 575q0 167 54 335t159 312q217 298 557 298q247 0 389 -161.5t142 -451.5t-148.5 -540t-387.5 -353l182 -278h-203l-155 237q-20 -2 -53 -2q-252 0 -394 160.5t-142 443.5zM267 587.5q0 -226.5 89.5 -339.5t245.5 -113q304 0 469 324q113 222 113 446t-90 337.5 t-246.5 113.5t-270.5 -80.5t-199 -245.5q-111 -216 -111 -442.5z" />
<glyph unicode="R" horiz-adv-x="1280" d="M50 0l261 1493h410q186 0 285.5 -93.5t99.5 -259.5t-84.5 -280t-223.5 -143q58 -15 96 -74t89 -235l114 -408h-192l-105 383q-40 148 -93.5 198t-162.5 50h-201l-111 -631h-182zM373 797h234q137 0 222 84.5t85 206.5q0 239 -221 239h-229z" />
<glyph unicode="S" horiz-adv-x="1170" d="M11 66l37 208q201 -139 385.5 -139t287.5 84t103 219q0 90 -41 136.5t-176 84.5l-109 31q-187 54 -254.5 124.5t-67.5 197.5q0 223 154 365.5t402 142.5q190 0 380 -76l-36 -197q-182 109 -349 109t-263.5 -79t-96.5 -210q0 -72 35.5 -110.5t183.5 -82.5l109 -30 q184 -53 256 -134.5t72 -228.5q0 -226 -159.5 -368t-420.5 -142q-216 0 -432 95z" />
<glyph unicode="T" horiz-adv-x="1125" d="M79 1323l30 170h1137l-29 -170h-480l-230 -1323h-183l230 1323h-475z" />
<glyph unicode="U" horiz-adv-x="1349" d="M107 389q0 72 18 172l160 932h183l-158 -907q-18 -110 -18 -170q0 -138 69 -209.5t203 -71.5q174 0 271 106t138 345l158 907h183l-162 -932q-53 -302 -201.5 -446t-406.5 -144q-202 0 -319.5 112.5t-117.5 305.5z" />
<glyph unicode="V" horiz-adv-x="1260" d="M144 1493h178l196 -1284l652 1284h198l-777 -1493h-211z" />
<glyph unicode="W" horiz-adv-x="1822" d="M177 1493h177l64 -1270l507 1270h203l66 -1270l502 1270h184l-598 -1493h-228l-62 1245l-503 -1245h-229z" />
<glyph unicode="X" horiz-adv-x="1262" d="M-79 0l628 803l-296 690h183l231 -539l417 539h212l-554 -713l334 -780h-182l-271 629l-491 -629h-211z" />
<glyph unicode="Y" horiz-adv-x="1125" d="M116 1493h195l251 -614l479 614h205l-610 -782l-124 -711h-182l124 711z" />
<glyph unicode="Z" horiz-adv-x="1262" d="M-40 0l26 154l1041 1169h-815l29 170h1055l-26 -154l-1041 -1169h856l-28 -170h-1097z" />
<glyph unicode="[" horiz-adv-x="719" d="M74 -270l318 1826h382l-26 -143h-215l-269 -1540h215l-24 -143h-381z" />
<glyph unicode="\" horiz-adv-x="621" d="M157 1493h153l173 -1683h-151z" />
<glyph unicode="]" horiz-adv-x="719" d="M-70 -270l24 143h215l269 1540h-213l23 143h382l-319 -1826h-381z" />
<glyph unicode="^" horiz-adv-x="1544" d="M195 936l489 557h176l489 -557h-181l-396 395l-396 -395h-181z" />
<glyph unicode="_" horiz-adv-x="921" d="M-18 -340h958v-143h-958v143z" />
<glyph unicode="`" horiz-adv-x="921" d="M350 1638h177l189 -374h-139z" />
<glyph unicode="a" horiz-adv-x="1129" d="M76 283q0 196 140.5 310t388.5 114h230l9 49q4 16 4 47q0 89 -65.5 138.5t-164.5 49.5q-180 0 -360 -92l29 170q188 78 361.5 78t266.5 -86t93 -250q0 -72 -18 -172l-112 -639h-166l30 170q-143 -199 -373 -199q-129 0 -211 87.5t-82 224.5zM247 315q0 -88 49.5 -138 t138.5 -50q135 0 235.5 107.5t133.5 287.5l7 41h-166q-203 0 -300.5 -60.5t-97.5 -187.5z" />
<glyph unicode="b" horiz-adv-x="1170" d="M67 0l272 1556h166l-107 -606q61 92 153.5 144.5t192.5 52.5q155 0 246.5 -116t91.5 -296q0 -356 -206 -602q-135 -162 -329.5 -162t-284.5 199l-30 -170h-165zM315 405.5q0 -123.5 59 -202t150 -78.5q173 0 274 160q115 181 115 422q0 122 -60 204t-151 82 q-174 0 -274 -162q-53 -83 -83 -192.5t-30 -233z" />
<glyph unicode="c" horiz-adv-x="1013" d="M85 384q0 366 223 601q152 162 399 162q137 0 281 -70l-33 -182q-118 96 -266 96q-169 0 -271 -119q-77 -87 -119.5 -204t-42.5 -242q0 -299 275 -299q138 0 306 92l-31 -182q-144 -66 -324.5 -66t-288.5 111.5t-108 301.5z" />
<glyph unicode="d" horiz-adv-x="1170" d="M85 382q0 359 207 603q135 162 325 162q98 0 172 -52t115 -149l108 610h166l-273 -1556h-166l31 168q-134 -197 -359 -197q-151 0 -238.5 114.5t-87.5 296.5zM256 410q0 -123 59 -204t150 -81q171 0 274 164q53 84 83.5 194t30.5 233t-59 201t-150 78q-176 0 -273 -159 q-115 -184 -115 -426z" />
<glyph unicode="e" horiz-adv-x="1134" d="M85 384q0 370 221 609q146 154 373 154q171 0 272 -114t101 -306q0 -91 -22 -211h-770q-9 -68 -9 -98q0 -139 77 -215t201 -76q231 0 400 106l-32 -182q-178 -80 -382.5 -80t-317 111.5t-112.5 301.5zM292 659l594 1q6 32 6 67q0 122 -64.5 193t-181.5 71t-211.5 -86.5 t-142.5 -245.5z" />
<glyph unicode="f" horiz-adv-x="648" d="M125 0l172 977h-158l23 143h158l14 78q34 198 120 278t270 80h157l-26 -153h-158q-90 0 -131 -39.5t-61 -144.5l-18 -99h273l-25 -143h-272l-171 -977h-167z" />
<glyph unicode="g" horiz-adv-x="1170" d="M59 -367l31 179q119 -86 276 -86t258 95.5t134 274.5l14 84q-141 -180 -359 -180q-153 0 -240.5 112.5t-87.5 288.5q0 346 202 588q133 158 327 158q102 0 177.5 -52.5t112.5 -148.5l28 174h167l-172 -981q-49 -285 -189 -425t-377 -140q-174 0 -302 59zM256 433 q0 -131 58.5 -205t167.5 -74q157 0 262.5 158.5t105.5 396.5q0 136 -58 210t-164 74q-136 0 -227 -110q-68 -86 -106.5 -202.5t-38.5 -247.5z" />
<glyph unicode="h" horiz-adv-x="1168" d="M65 0l273 1556h165l-107 -612q63 94 161 148.5t218.5 54.5t194 -80t73.5 -225q0 -70 -16 -166l-118 -676h-167l118 669q18 106 18 140q0 84 -48 131t-133 47q-134 0 -231.5 -100t-126.5 -266l-109 -621h-165z" />
<glyph unicode="i" horiz-adv-x="512" d="M65 0l197 1120h166l-198 -1120h-165zM297 1323l41 233h165l-40 -233h-166z" />
<glyph unicode="j" horiz-adv-x="512" d="M-208 -426l27 156h42q98 0 138.5 45t68.5 205l199 1140h166l-199 -1140l-1 -5q-33 -191 -75 -260q-86 -141 -304 -141h-62zM304 1323l41 233h165l-40 -233h-166z" />
<glyph unicode="k" horiz-adv-x="1067" d="M65 0l273 1556h165l-158 -907l568 471h215l-634 -536l463 -584h-201l-430 547l-96 -547h-165z" />
<glyph unicode="l" horiz-adv-x="512" d="M65 0l273 1556h165l-273 -1556h-165z" />
<glyph unicode="m" horiz-adv-x="1795" d="M65 0l197 1120h166l-32 -174q139 201 352 201q110 0 180.5 -64t84.5 -178q76 118 175.5 180t219.5 62t191 -83t71 -235q0 -65 -15 -153l-118 -676h-165l116 670q14 86 14 127q0 90 -45 140t-126 50q-121 0 -215 -100.5t-122 -261.5l-111 -625h-166l118 670q15 79 15 125 q0 91 -45 141.5t-125 50.5q-122 0 -216.5 -100.5t-122.5 -261.5l-111 -625h-165z" />
<glyph unicode="n" horiz-adv-x="1168" d="M65 0l195 1120h166l-34 -176q70 97 167 150t217 53t193.5 -80t73.5 -225q0 -70 -16 -166l-118 -676h-167l118 669q18 106 18 140q0 84 -48 131t-133 47q-134 0 -230 -98.5t-126 -267.5l-111 -621h-165z" />
<glyph unicode="o" horiz-adv-x="1127" d="M85 424q0 122 35.5 248.5t91.5 212.5q176 262 448 262q172 0 277.5 -119t105.5 -311q0 -133 -35 -265t-92 -219q-172 -262 -448 -262q-177 0 -280 121.5t-103 331.5zM256 430q0 -303 231 -303q166 0 275.5 161.5t109.5 409.5q0 293 -230 293q-184 0 -297 -196 q-89 -153 -89 -365z" />
<glyph unicode="p" horiz-adv-x="1170" d="M-5 -426l271 1546h165l-30 -170q136 197 359 197q154 0 239.5 -112.5t85.5 -296.5q0 -360 -206 -605q-135 -162 -326 -162q-217 0 -289 197l-104 -594h-165zM319 401q0 -125 57.5 -200.5t149.5 -75.5q176 0 274 160q114 183 114 428q0 124 -57.5 202t-165.5 78 q-153 0 -260 -164q-51 -79 -81.5 -191t-30.5 -237z" />
<glyph unicode="q" horiz-adv-x="1170" d="M85 382q0 355 207 603q133 162 325 162q224 0 288 -197l29 168h167l-269 -1540h-167l104 590q-136 -197 -358 -197q-153 0 -239.5 114.5t-86.5 296.5zM256 406q0 -126 56 -203.5t161 -77.5q157 0 267.5 166.5t110.5 404.5q0 144 -57 220.5t-150 76.5 q-175 0 -281.5 -168.5t-106.5 -418.5z" />
<glyph unicode="r" horiz-adv-x="757" d="M65 0l197 1120h166l-32 -174q66 97 157 149t195 52q56 0 105 -15l-31 -182q-54 31 -127 31q-133 0 -232 -111.5t-131 -298.5l-102 -571h-165z" />
<glyph unicode="s" horiz-adv-x="960" d="M21 41l32 190q185 -106 327.5 -106t218.5 58t76 147q0 96 -217 160l-57 16q-126 37 -184.5 97.5t-58.5 154.5q0 179 121 284t329 105q162 0 314 -60l-32 -174q-132 80 -275.5 80t-219 -49.5t-75.5 -134.5q0 -102 195 -158l53 -18q166 -51 221 -107t55 -153 q0 -178 -127 -290t-334 -112q-156 0 -362 70z" />
<glyph unicode="t" horiz-adv-x="722" d="M118 977l26 143h138l56 318h165l-55 -318h331l-25 -143h-330l-107 -608q-11 -62 -11 -109.5t34.5 -76.5t111.5 -29h167l-28 -154h-158q-293 0 -293 258q0 38 11 111l107 608h-140z" />
<glyph unicode="u" horiz-adv-x="1168" d="M105 276q0 72 18 168l118 676h167l-118 -669q-17 -93 -17 -160t46.5 -113.5t132.5 -46.5q133 0 230 100t127 269l111 620h165l-195 -1120h-166l34 176q-70 -98 -167 -151.5t-217.5 -53.5t-194.5 80.5t-74 224.5z" />
<glyph unicode="v" horiz-adv-x="1090" d="M132 1120h176l147 -952l483 952h175l-573 -1120h-223z" />
<glyph unicode="w" horiz-adv-x="1507" d="M157 1120h163l43 -901l376 901h192l55 -901l358 901h165l-461 -1120h-193l-49 928l-386 -928h-195z" />
<glyph unicode="x" horiz-adv-x="1090" d="M-48 0l496 590l-264 530h190l194 -405l337 405h201l-462 -549l283 -571h-190l-213 444l-371 -444h-201z" />
<glyph unicode="y" horiz-adv-x="1090" d="M-46 -426l28 154h95q70 0 118.5 42t108.5 164l52 107l-224 1079h176l167 -858l463 858h174l-655 -1224q-115 -215 -187.5 -268.5t-184.5 -53.5h-131z" />
<glyph unicode="z" horiz-adv-x="967" d="M-5 0l29 168l759 805h-595l26 147h787l-30 -168l-759 -805h627l-26 -147h-818z" />
<glyph unicode="{" d="M223 537l25 147h56q130 0 187 54.5t86 205.5l42 244q24 123 55.5 194.5t77 108t108 51t181.5 14.5h74l-26 -143h-69q-123 0 -165 -39.5t-70 -189.5l-46 -252q-29 -160 -83.5 -232.5t-154.5 -93.5q66 -18 102.5 -69.5t36.5 -126.5q0 -52 -14 -128l-42 -244q-9 -70 -9 -120 q0 -108 164 -108h70l-26 -144h-64q-169 0 -242 54.5t-73 177.5q0 68 13 137l40 235q0 3 5.5 32.5t5.5 74.5q0 85 -44 122.5t-146 37.5h-55z" />
<glyph unicode="|" horiz-adv-x="621" d="M234 -483v2048h153v-2048h-153z" />
<glyph unicode="}" d="M13 -334l26 144h70q122 0 164.5 39.5t69.5 189.5l46 252q29 160 83 232.5t154 92.5q-65 19 -101 70t-36 127q0 51 12 127l43 243q9 61 9 117q0 113 -164 113h-70l24 143h67q168 0 241 -54t73 -177q0 -66 -13 -138l-41 -235q0 -3 -5 -32t-5 -74q0 -86 44 -123t146 -37h55 l-26 -147h-55q-130 0 -187 -55t-83 -205l-47 -244q-44 -232 -134 -305q-43 -34 -105 -49t-182 -15h-73z" />
<glyph unicode="~" horiz-adv-x="1544" d="M195 467v178q95 79 175.5 113.5t173.5 34.5t226 -60q11 -6 33 -14q139 -62 224 -62q145 0 322 160v-178q-94 -79 -174.5 -113t-174 -34t-224.5 59l-34 14q-140 62 -224 62q-151 0 -323 -160z" />
<glyph unicode="&#xa1;" horiz-adv-x="738" d="M157 0l114 655l81 357h146l-44 -357l-115 -655h-182zM373 1239l44 254h184l-47 -254h-181z" />
<glyph unicode="&#xa2;" d="M137 401q0 306 159 513.5t413 230.5l51 285h90l-50 -285q129 -14 238 -68l-32 -182q-81 71 -234 94l-151 -862q123 10 267 92l-31 -182q-117 -56 -259 -66l-54 -284h-90l53 284q-178 13 -274 124.5t-96 305.5zM306 426q0 -134 55 -207.5t170 -93.5l151 860 q-160 -23 -268 -183.5t-108 -375.5z" />
<glyph unicode="&#xa3;" d="M44 0l30 170h211l82 465h-179l26 143h178l41 238q47 262 164.5 383t325.5 121q127 0 251 -60l-31 -182q-113 82 -238 82t-191.5 -79.5t-103.5 -287.5l-37 -215h352l-26 -143h-352l-81 -465h484l-30 -170h-876z" />
<glyph unicode="&#xa4;" d="M85 197l186 206q-67 126 -67 245t69 229l-187 206l104 115l186 -207q97 76 208 76t218 -74l186 209l103 -115l-186 -206q66 -115 66 -239.5t-70 -235.5l188 -207l-103 -113l-186 207q-103 -78 -210 -78t-217 74l-187 -207zM345 642q0 -113 70.5 -191t172 -78t172 78.5 t70.5 191t-70 189.5t-171.5 77t-172.5 -77t-71 -190z" />
<glyph unicode="&#xa5;" d="M83 455l21 123h375l10 51l-49 155h-300l22 123h239l-183 586h171l216 -700l461 700h174l-387 -586h236l-22 -123h-295l-102 -155l-8 -51h368l-20 -123h-370l-79 -455h-183l79 455h-374z" />
<glyph unicode="&#xa6;" horiz-adv-x="621" d="M234 -350v758h153v-758h-153zM234 674v758h153v-758h-153z" />
<glyph unicode="&#xa7;" horiz-adv-x="921" d="M22 -137l29 164q142 -78 247 -78t165.5 47.5t60.5 126.5q0 103 -176 229l-68 51q-111 84 -148 140.5t-37 141.5t58 171.5t164 149.5q-74 72 -74 170q0 147 109.5 245.5t277.5 98.5q124 0 264 -58l-29 -164q-130 78 -231.5 78t-161 -48.5t-59.5 -124.5t122 -166 q27 -20 42 -31l79 -60q110 -85 148 -143.5t38 -144t-59 -175.5t-162 -143q74 -70 74 -180q0 -157 -109.5 -256t-288.5 -99q-127 0 -275 58zM247 717q0 -50 38 -98.5t151 -131.5l106 -77q151 100 151 217q0 54 -48 110.5t-177 147.5l-72 51q-149 -104 -149 -219z" />
<glyph unicode="&#xa8;" horiz-adv-x="921" d="M339 1350l35 202h185l-37 -202h-183zM691 1350l35 202h183l-35 -202h-183z" />
<glyph unicode="&#xa9;" horiz-adv-x="1843" d="M255 741q0 308 195 525q197 219 471.5 219t471.5 -219q195 -217 195 -525q0 -305 -195 -522q-197 -219 -471 -219q-275 0 -472 219q-195 217 -195 522zM345 741q0 -261 171 -450q169 -189 406 -189q238 0 407 189q168 186 168 450q0 265 -168 453t-407 188 q-238 0 -406 -188q-171 -189 -171 -453zM524 741.5q0 208.5 113 329.5t307 121q127 0 247 -55v-129q-118 65 -244 65t-201.5 -87.5t-75.5 -245.5t77 -245t203 -87t241 65v-127q-120 -57 -247 -57q-194 0 -307 122t-113 330.5z" />
<glyph unicode="&#xaa;" horiz-adv-x="868" d="M74 469l20 123h620l-21 -123h-619zM129 920q0 140 104 219.5t291 79.5h164v4l3 47q0 70 -41.5 102.5t-118.5 32.5q-141 0 -273 -68l22 127q142 56 269 56q273 0 273 -244q0 -46 -9 -111l-79 -448h-135l20 112q-105 -131 -276 -131q-96 0 -155 61t-59 161zM266 958 q0 -71 34 -106t92 -35q104 0 174.5 67.5t95.5 190.5l5 29h-132q-142 0 -205.5 -37.5t-63.5 -108.5z" />
<glyph unicode="&#xab;" horiz-adv-x="1137" d="M114 559l15 82l494 418l-35 -201l-319 -270l227 -266l-33 -181zM514 559l15 82l494 418l-35 -201l-319 -270l227 -266l-34 -181z" />
<glyph unicode="&#xac;" horiz-adv-x="1544" d="M195 692v170h1154v-575h-151v405h-1003z" />
<glyph unicode="&#xad;" horiz-adv-x="665" d="M83 479l29 164h486l-28 -164h-487z" />
<glyph unicode="&#xae;" horiz-adv-x="1843" d="M255 741q0 308 195 525q197 219 471.5 219t471.5 -219q195 -217 195 -525q0 -305 -195 -522q-197 -219 -471 -219q-275 0 -472 219q-195 217 -195 522zM345 741q0 -261 171 -450q169 -189 406 -189q238 0 407 189q168 186 168 450q0 265 -168 453t-407 188 q-238 0 -406 -188q-171 -189 -171 -453zM647 338v836h257q315 0 315 -240q0 -86 -47.5 -142t-133.5 -73q44 -17 123 -158l123 -223h-154l-117 209q-53 96 -85.5 121.5t-81.5 25.5h-59v-356h-140zM787 795h110q99 0 138.5 31t39.5 106.5t-40 107t-138 31.5h-110v-276z" />
<glyph unicode="&#xaf;" horiz-adv-x="921" d="M343 1378l26 148h538l-26 -148h-538z" />
<glyph unicode="&#xb0;" horiz-adv-x="921" d="M176 1199.5q0 134.5 82.5 227.5t204.5 93t200 -95q83 -89 83 -223t-83 -225.5t-204 -91.5t-202 90t-81 224.5zM290 1200.5q0 -79.5 49.5 -134t121.5 -54.5t121.5 54.5t49.5 133.5t-50 135t-121.5 56t-121 -55.5t-49.5 -135z" />
<glyph unicode="&#xb1;" horiz-adv-x="1544" d="M195 0v170h1154v-170h-1154zM195 727v170h502v387h151v-387h501v-170h-501v-387h-151v387h-502z" />
<glyph unicode="&#xb2;" horiz-adv-x="738" d="M67 668l19 110l380 340q106 92 106 172q0 54 -38 87.5t-94 33.5q-104 0 -250 -70l22 123q138 56 249 56t179.5 -57t68.5 -146q0 -125 -116 -227l-346 -308h397l-21 -114h-556z" />
<glyph unicode="&#xb3;" horiz-adv-x="738" d="M30 694l21 121q94 -53 205 -53t173.5 46t62.5 128q0 125 -175 125h-78l21 108h83q92 0 143.5 36t51.5 100q0 106 -147 106q-104 0 -217 -41l20 115q144 35 247 35t170.5 -52.5t67.5 -134t-51.5 -138.5t-138.5 -75q139 -33 139 -182q0 -127 -100 -206t-266 -79 q-115 0 -232 41z" />
<glyph unicode="&#xb4;" horiz-adv-x="921" d="M464 1262l319 376h179l-359 -376h-139z" />
<glyph unicode="&#xb5;" d="M-24 -426l271 1546h166l-122 -697q-9 -47 -9 -99q0 -93 52.5 -143t168 -50t197.5 84t111 252l114 653h166l-151 -861q-6 -38 -6 -58q0 -60 47 -60q19 0 69 23l-25 -148q-80 -45 -142.5 -45t-96.5 42t-34 116q-99 -158 -284 -158q-84 0 -146.5 43t-82.5 113l-97 -553h-166 z" />
<glyph unicode="&#xb6;" d="M144 1001q0 211 155 351.5t392 140.5h366l-296 -1690h-125l275 1567h-172l-275 -1567h-126l147 846q-160 6 -250.5 100t-90.5 252z" />
<glyph unicode="&#xb7;" horiz-adv-x="585" d="M210 584l45 254h190l-45 -254h-190z" />
<glyph unicode="&#xb8;" horiz-adv-x="921" d="M90 -371l21 131q70 -32 134 -32t96 30.5t32 84t-51 157.5h107q63 -97 63 -188.5t-66 -149t-181 -57.5q-77 0 -155 24z" />
<glyph unicode="&#xb9;" horiz-adv-x="738" d="M122 668l18 110h184l107 611l-206 -41l20 116l207 39h130l-127 -725h185l-21 -110h-497z" />
<glyph unicode="&#xba;" horiz-adv-x="868" d="M74 469l20 123h620l-21 -123h-619zM137 1032q0 136 61.5 253t155 176t216 59t202 -86t79.5 -230q0 -220 -119.5 -363t-302.5 -143q-135 0 -213.5 90t-78.5 244zM276 1061q0 -248 172 -248q110 0 185.5 105.5t75.5 261.5q0 225 -176 225q-105 0 -181 -107t-76 -237z" />
<glyph unicode="&#xbb;" horiz-adv-x="1137" d="M114 141l35 201l317 270l-225 267l33 180l347 -418l-13 -82zM512 141l35 201l320 270l-227 267l35 180l347 -418l-14 -82z" />
<glyph unicode="&#xbc;" horiz-adv-x="1786" d="M122 668l18 110h184l107 611l-206 -41l20 116l207 39h130l-127 -725h185l-21 -110h-497zM256 -29l1111 1549h161l-1109 -1549h-163zM1123 186l22 131l444 518h149l-95 -540h123l-19 -109h-123l-33 -186h-127l33 186h-374zM1235 295h280l74 415z" />
<glyph unicode="&#xbd;" horiz-adv-x="1786" d="M122 668l18 110h184l107 611l-206 -41l20 116l207 39h130l-127 -725h185l-21 -110h-497zM256 -29l1111 1549h161l-1109 -1549h-163zM1114 0l19 110l380 340q106 92 106 172q0 54 -38 87.5t-94 33.5q-104 0 -250 -70l22 123q138 56 249 56t179.5 -57t68.5 -146 q0 -125 -116 -227l-346 -308h397l-21 -114h-556z" />
<glyph unicode="&#xbe;" horiz-adv-x="1786" d="M30 694l21 121q94 -53 205 -53t173.5 46t62.5 128q0 125 -175 125h-78l21 108h83q92 0 143.5 36t51.5 100q0 106 -147 106q-104 0 -217 -41l20 115q144 35 247 35t170.5 -52.5t67.5 -134t-51.5 -138.5t-138.5 -75q139 -33 139 -182q0 -127 -100 -206t-266 -79 q-115 0 -232 41zM256 -29l1111 1549h161l-1109 -1549h-163zM1123 186l22 131l444 518h149l-95 -540h123l-19 -109h-123l-33 -186h-127l33 186h-374zM1235 295h280l74 415z" />
<glyph unicode="&#xbf;" horiz-adv-x="978" d="M68 239q0 116 48.5 206t156.5 188l92 84q77 68 102.5 115t40.5 137l23 123h171l-27 -154q-17 -94 -52 -159.5t-134 -157.5l-97 -89q-75 -70 -105.5 -123t-30.5 -119.5t49.5 -109.5t128.5 -43q154 0 349 137l-32 -188q-184 -113 -350 -113t-249.5 75t-83.5 191zM551 1239 l45 254h182l-44 -254h-183z" />
<glyph unicode="&#xc0;" horiz-adv-x="1260" d="M-98 0l777 1493h206l249 -1493h-190l-56 383h-604l-190 -383h-192zM367 551h493l-116 743zM614 1899h164l133 -264h-126z" />
<glyph unicode="&#xc1;" horiz-adv-x="1260" d="M-98 0l777 1493h206l249 -1493h-190l-56 383h-604l-190 -383h-192zM367 551h493l-116 743zM660 1635l232 264h186l-276 -264h-142z" />
<glyph unicode="&#xc2;" horiz-adv-x="1260" d="M-98 0l777 1493h206l249 -1493h-190l-56 383h-604l-190 -383h-192zM367 551h493l-116 743zM500 1635l235 266h194l142 -266h-121l-126 178l-189 -178h-135z" />
<glyph unicode="&#xc3;" horiz-adv-x="1260" d="M-98 0l777 1493h206l249 -1493h-190l-56 383h-604l-190 -383h-192zM367 551h493l-116 743zM494 1667q64 219 219 219q57 0 119 -47l29 -26q31 -27 67 -27t61.5 27t35.5 73h113q-60 -219 -225 -219q-51 0 -106 43l-31 25q-33 33 -74 33q-63 0 -95 -101h-113z" />
<glyph unicode="&#xc4;" horiz-adv-x="1260" d="M-98 0l777 1493h206l249 -1493h-190l-56 383h-604l-190 -383h-192zM367 551h493l-116 743zM526 1667l35 203h183l-37 -203h-181zM878 1667l35 203h182l-35 -203h-182z" />
<glyph unicode="&#xc5;" horiz-adv-x="1260" d="M-98 0l732 1407q-99 76 -99 204.5t72 209t174.5 80.5t175 -80.5t72.5 -194.5q0 -163 -128 -237l233 -1389h-190l-56 383h-604l-190 -383h-192zM367 551h493l-116 743zM645 1627q0 -64 39.5 -108t96.5 -44t97 44t40 107t-40 107.5t-97 44.5t-96.5 -43.5t-39.5 -107.5z" />
<glyph unicode="&#xc6;" horiz-adv-x="1795" d="M-83 0l824 1493h1091l-29 -170h-667l-79 -442h640l-29 -170h-641l-95 -541h684l-29 -170h-866l66 383h-474l-211 -383h-185zM404 551h412l139 784h-116z" />
<glyph unicode="&#xc7;" horiz-adv-x="1287" d="M77 561q0 178 55.5 350t161.5 319q212 290 576 290q233 0 411 -142l-37 -213q-171 191 -393 191q-305 0 -471 -332q-111 -222 -111 -448q0 -441 371 -441q246 0 464 178l-42 -239q-216 -103 -436 -103q-258 0 -403.5 156t-145.5 434zM333 -371l21 131q70 -32 134 -32 t96 30.5t32 84t-51 157.5h107q63 -97 63 -188.5t-66 -149t-181 -57.5q-77 0 -155 24z" />
<glyph unicode="&#xc8;" horiz-adv-x="1164" d="M50 0l261 1493h850l-30 -170h-668l-78 -442h642l-30 -170h-641l-94 -541h684l-30 -170h-866zM563 1899h164l133 -264h-126z" />
<glyph unicode="&#xc9;" horiz-adv-x="1164" d="M50 0l261 1493h850l-30 -170h-668l-78 -442h642l-30 -170h-641l-94 -541h684l-30 -170h-866zM609 1635l232 264h186l-276 -264h-142z" />
<glyph unicode="&#xca;" horiz-adv-x="1164" d="M50 0l261 1493h850l-30 -170h-668l-78 -442h642l-30 -170h-641l-94 -541h684l-30 -170h-866zM449 1635l235 266h194l142 -266h-121l-126 178l-189 -178h-135z" />
<glyph unicode="&#xcb;" horiz-adv-x="1164" d="M50 0l261 1493h850l-30 -170h-668l-78 -442h642l-30 -170h-641l-94 -541h684l-30 -170h-866zM475 1667l35 203h183l-37 -203h-181zM827 1667l35 203h182l-35 -203h-182z" />
<glyph unicode="&#xcc;" horiz-adv-x="543" d="M50 0l261 1493h183l-262 -1493h-182zM241 1899h164l133 -264h-126z" />
<glyph unicode="&#xcd;" horiz-adv-x="543" d="M50 0l261 1493h183l-262 -1493h-182zM287 1635l232 264h186l-276 -264h-142z" />
<glyph unicode="&#xce;" horiz-adv-x="543" d="M50 0l261 1493h183l-262 -1493h-182zM127 1635l235 266h194l142 -266h-121l-126 178l-189 -178h-135z" />
<glyph unicode="&#xcf;" horiz-adv-x="543" d="M50 0l261 1493h183l-262 -1493h-182zM153 1667l35 203h183l-37 -203h-181zM505 1667l35 203h182l-35 -203h-182z" />
<glyph unicode="&#xd0;" horiz-adv-x="1428" d="M0 700l26 144h180l114 649h392q310 0 469 -146.5t159 -435.5q0 -190 -60.5 -366.5t-167.5 -299.5q-215 -245 -660 -245h-393l122 700h-181zM271 166h237q306 0 473 195t167 550q0 215 -108 315.5t-338 100.5h-229l-84 -483h302l-26 -144h-302z" />
<glyph unicode="&#xd1;" horiz-adv-x="1378" d="M50 0l261 1493h245l371 -1280l225 1280h177l-262 -1493h-245l-370 1288l-225 -1288h-177zM527 1667q64 219 219 219q57 0 119 -47l29 -26q31 -27 67 -27t61.5 27t35.5 73h113q-60 -219 -225 -219q-51 0 -106 43l-31 25q-33 33 -74 33q-63 0 -95 -101h-113z" />
<glyph unicode="&#xd2;" horiz-adv-x="1450" d="M74 580q0 162 55 331t161 313q219 296 556 296q247 0 389 -161.5t142 -440.5q0 -172 -54 -338t-162 -312q-221 -297 -556 -297q-248 0 -389.5 163t-141.5 446zM267 587.5q0 -226.5 89.5 -339.5t245.5 -113q304 0 469 324q113 222 113 446t-90 337.5t-246.5 113.5 t-270.5 -80.5t-199 -245.5q-111 -216 -111 -442.5zM725 1899h164l133 -264h-126z" />
<glyph unicode="&#xd3;" horiz-adv-x="1450" d="M74 580q0 162 55 331t161 313q219 296 556 296q247 0 389 -161.5t142 -440.5q0 -172 -54 -338t-162 -312q-221 -297 -556 -297q-248 0 -389.5 163t-141.5 446zM267 587.5q0 -226.5 89.5 -339.5t245.5 -113q304 0 469 324q113 222 113 446t-90 337.5t-246.5 113.5 t-270.5 -80.5t-199 -245.5q-111 -216 -111 -442.5zM771 1635l232 264h186l-276 -264h-142z" />
<glyph unicode="&#xd4;" horiz-adv-x="1450" d="M74 580q0 162 55 331t161 313q219 296 556 296q247 0 389 -161.5t142 -440.5q0 -172 -54 -338t-162 -312q-221 -297 -556 -297q-248 0 -389.5 163t-141.5 446zM267 587.5q0 -226.5 89.5 -339.5t245.5 -113q304 0 469 324q113 222 113 446t-90 337.5t-246.5 113.5 t-270.5 -80.5t-199 -245.5q-111 -216 -111 -442.5zM611 1635l235 266h194l142 -266h-121l-126 178l-189 -178h-135z" />
<glyph unicode="&#xd5;" horiz-adv-x="1450" d="M74 580q0 162 55 331t161 313q219 296 556 296q247 0 389 -161.5t142 -440.5q0 -172 -54 -338t-162 -312q-221 -297 -556 -297q-248 0 -389.5 163t-141.5 446zM267 587.5q0 -226.5 89.5 -339.5t245.5 -113q304 0 469 324q113 222 113 446t-90 337.5t-246.5 113.5 t-270.5 -80.5t-199 -245.5q-111 -216 -111 -442.5zM605 1667q64 219 219 219q57 0 119 -47l29 -26q31 -27 67 -27t61.5 27t35.5 73h113q-60 -219 -225 -219q-51 0 -106 43l-31 25q-33 33 -74 33q-63 0 -95 -101h-113z" />
<glyph unicode="&#xd6;" horiz-adv-x="1450" d="M74 580q0 162 55 331t161 313q219 296 556 296q247 0 389 -161.5t142 -440.5q0 -172 -54 -338t-162 -312q-221 -297 -556 -297q-248 0 -389.5 163t-141.5 446zM267 587.5q0 -226.5 89.5 -339.5t245.5 -113q304 0 469 324q113 222 113 446t-90 337.5t-246.5 113.5 t-270.5 -80.5t-199 -245.5q-111 -216 -111 -442.5zM637 1667l35 203h183l-37 -203h-181zM989 1667l35 203h182l-35 -203h-182z" />
<glyph unicode="&#xd7;" horiz-adv-x="1544" d="M253 184l410 457l-410 459l106 121l413 -459l413 459l107 -121l-411 -459l411 -457l-107 -121l-413 459l-413 -459z" />
<glyph unicode="&#xd8;" horiz-adv-x="1450" d="M-63 33l207 213q-70 160 -70 327.5t55 335.5t160 313q217 298 557 298q230 0 382 -154l182 193l81 -99l-188 -198q72 -146 72 -332q0 -374 -207 -651q-227 -308 -563 -308q-251 0 -389 166l-198 -203zM266 571q0 -92 21 -176l814 840q-83 121 -246 121t-277.5 -81 t-197.5 -243q-114 -222 -114 -461zM343 270q91 -135 253 -135t277.5 81.5t184.5 217.5q126 250 126 494q0 113 -25 188z" />
<glyph unicode="&#xd9;" horiz-adv-x="1349" d="M107 389q0 72 18 172l160 932h183l-158 -907q-18 -110 -18 -170q0 -138 69 -209.5t203 -71.5q174 0 271 106t138 345l158 907h183l-162 -932q-53 -302 -201.5 -446t-406.5 -144q-202 0 -319.5 112.5t-117.5 305.5zM644 1899h164l133 -264h-126z" />
<glyph unicode="&#xda;" horiz-adv-x="1349" d="M107 389q0 72 18 172l160 932h183l-158 -907q-18 -110 -18 -170q0 -138 69 -209.5t203 -71.5q174 0 271 106t138 345l158 907h183l-162 -932q-53 -302 -201.5 -446t-406.5 -144q-202 0 -319.5 112.5t-117.5 305.5zM690 1635l232 264h186l-276 -264h-142z" />
<glyph unicode="&#xdb;" horiz-adv-x="1349" d="M107 389q0 72 18 172l160 932h183l-158 -907q-18 -110 -18 -170q0 -138 69 -209.5t203 -71.5q174 0 271 106t138 345l158 907h183l-162 -932q-53 -302 -201.5 -446t-406.5 -144q-202 0 -319.5 112.5t-117.5 305.5zM530 1635l235 266h194l142 -266h-121l-126 178 l-189 -178h-135z" />
<glyph unicode="&#xdc;" horiz-adv-x="1349" d="M107 389q0 72 18 172l160 932h183l-158 -907q-18 -110 -18 -170q0 -138 69 -209.5t203 -71.5q174 0 271 106t138 345l158 907h183l-162 -932q-53 -302 -201.5 -446t-406.5 -144q-202 0 -319.5 112.5t-117.5 305.5zM556 1667l35 203h183l-37 -203h-181zM908 1667l35 203 h182l-35 -203h-182z" />
<glyph unicode="&#xdd;" horiz-adv-x="1125" d="M116 1493h195l251 -614l479 614h205l-610 -782l-124 -711h-182l124 711zM579 1635l232 264h186l-276 -264h-142z" />
<glyph unicode="&#xde;" horiz-adv-x="1120" d="M50 0l261 1493h183l-46 -264h240q183 0 279.5 -95t96.5 -278q0 -246 -142.5 -382t-399.5 -136h-230l-60 -338h-182zM322 504h229q155 0 238 87.5t83 252.5q0 104 -56 161.5t-158 57.5h-238z" />
<glyph unicode="&#xdf;" horiz-adv-x="1161" d="M86 0l199 1137q35 197 154 308t286 111t264.5 -93t97.5 -240q0 -55 -11 -123q-145 -8 -235 -75.5t-90 -164.5q0 -81 81 -149l44 -39q107 -94 144 -159.5t37 -145.5q0 -172 -125.5 -284t-321.5 -112q-135 0 -251 49l28 164q120 -59 239.5 -59t189 57t69.5 148 q0 45 -21.5 84t-91.5 106l-46 43q-87 82 -117 137.5t-30 122.5q0 126 95.5 227t250.5 138q4 16 4 47q0 78 -51 123t-156 45t-177 -68t-95 -202l-197 -1133h-167z" />
<glyph unicode="&#xe0;" horiz-adv-x="1129" d="M76 283q0 196 140.5 310t388.5 114h230l9 49q4 16 4 47q0 89 -65.5 138.5t-164.5 49.5q-180 0 -360 -92l29 170q188 78 361.5 78t266.5 -86t93 -250q0 -72 -18 -172l-112 -639h-166l30 170q-143 -199 -373 -199q-129 0 -211 87.5t-82 224.5zM247 315q0 -88 49.5 -138 t138.5 -50q135 0 235.5 107.5t133.5 287.5l7 41h-166q-203 0 -300.5 -60.5t-97.5 -187.5zM440 1638h177l189 -374h-139z" />
<glyph unicode="&#xe1;" horiz-adv-x="1129" d="M76 283q0 196 140.5 310t388.5 114h230l9 49q4 16 4 47q0 89 -65.5 138.5t-164.5 49.5q-180 0 -360 -92l29 170q188 78 361.5 78t266.5 -86t93 -250q0 -72 -18 -172l-112 -639h-166l30 170q-143 -199 -373 -199q-129 0 -211 87.5t-82 224.5zM247 315q0 -88 49.5 -138 t138.5 -50q135 0 235.5 107.5t133.5 287.5l7 41h-166q-203 0 -300.5 -60.5t-97.5 -187.5zM554 1262l319 376h179l-359 -376h-139z" />
<glyph unicode="&#xe2;" horiz-adv-x="1129" d="M76 283q0 196 140.5 310t388.5 114h230l9 49q4 16 4 47q0 89 -65.5 138.5t-164.5 49.5q-180 0 -360 -92l29 170q188 78 361.5 78t266.5 -86t93 -250q0 -72 -18 -172l-112 -639h-166l30 170q-143 -199 -373 -199q-129 0 -211 87.5t-82 224.5zM247 315q0 -88 49.5 -138 t138.5 -50q135 0 235.5 107.5t133.5 287.5l7 41h-166q-203 0 -300.5 -60.5t-97.5 -187.5zM394 1262l287 376h133l155 -376h-125l-114 237l-211 -237h-125z" />
<glyph unicode="&#xe3;" horiz-adv-x="1129" d="M76 283q0 196 140.5 310t388.5 114h230l9 49q4 16 4 47q0 89 -65.5 138.5t-164.5 49.5q-180 0 -360 -92l29 170q188 78 361.5 78t266.5 -86t93 -250q0 -72 -18 -172l-112 -639h-166l30 170q-143 -199 -373 -199q-129 0 -211 87.5t-82 224.5zM247 315q0 -88 49.5 -138 t138.5 -50q135 0 235.5 107.5t133.5 287.5l7 41h-166q-203 0 -300.5 -60.5t-97.5 -187.5zM392 1309q27 137 85.5 209.5t139.5 72.5q66 0 115 -61l42 -55q20 -29 53 -39q34 0 56 35.5t40 119.5h113q-26 -137 -84 -209.5t-141 -72.5q-73 0 -114 61l-41 55q-25 33 -55 39 q-68 0 -96 -155h-113z" />
<glyph unicode="&#xe4;" horiz-adv-x="1129" d="M76 283q0 196 140.5 310t388.5 114h230l9 49q4 16 4 47q0 89 -65.5 138.5t-164.5 49.5q-180 0 -360 -92l29 170q188 78 361.5 78t266.5 -86t93 -250q0 -72 -18 -172l-112 -639h-166l30 170q-143 -199 -373 -199q-129 0 -211 87.5t-82 224.5zM247 315q0 -88 49.5 -138 t138.5 -50q135 0 235.5 107.5t133.5 287.5l7 41h-166q-203 0 -300.5 -60.5t-97.5 -187.5zM429 1350l35 202h185l-37 -202h-183zM781 1350l35 202h183l-35 -202h-183z" />
<glyph unicode="&#xe5;" horiz-adv-x="1129" d="M76 283q0 196 140.5 310t388.5 114h230l9 49q4 16 4 47q0 89 -65.5 138.5t-164.5 49.5q-180 0 -360 -92l29 170q188 78 361.5 78t266.5 -86t93 -250q0 -72 -18 -172l-112 -639h-166l30 170q-143 -199 -373 -199q-129 0 -211 87.5t-82 224.5zM247 315q0 -88 49.5 -138 t138.5 -50q135 0 235.5 107.5t133.5 287.5l7 41h-166q-203 0 -300.5 -60.5t-97.5 -187.5zM475 1524.5q0 115.5 71.5 194.5t175.5 79t175.5 -79t71.5 -194.5t-71.5 -195.5t-175.5 -80t-175.5 80t-71.5 195.5zM586 1524q0 -66 38 -109t98 -43t98.5 43t38.5 108t-39.5 108.5 t-98.5 43.5t-97 -42.5t-38 -108.5z" />
<glyph unicode="&#xe6;" horiz-adv-x="1834" d="M76 283q0 196 140.5 310t388.5 114h230l9 49q4 16 4 47q0 89 -65.5 138.5t-164.5 49.5q-180 0 -360 -92l29 170q188 78 357 78q256 0 337 -182q156 182 398 182q171 0 272.5 -114t101.5 -306q0 -91 -22 -211h-771q-9 -68 -9 -98q0 -139 77 -215t202 -76q232 0 399 106 l-31 -182q-180 -80 -378 -80q-303 0 -406 228q-176 -228 -408 -228q-157 0 -243.5 82t-86.5 230zM247 315q0 -88 49.5 -138t138.5 -50q135 0 235.5 107.5t133.5 287.5l7 41h-166q-203 0 -300.5 -60.5t-97.5 -187.5zM992 659l595 1q5 40 5 67q0 122 -64 193t-181.5 71 t-212 -86.5t-142.5 -245.5z" />
<glyph unicode="&#xe7;" horiz-adv-x="1013" d="M85 384q0 366 223 601q152 162 399 162q137 0 281 -70l-33 -182q-118 96 -266 96q-169 0 -271 -119q-77 -87 -119.5 -204t-42.5 -242q0 -299 275 -299q138 0 306 92l-31 -182q-144 -66 -324.5 -66t-288.5 111.5t-108 301.5zM197 -371l21 131q70 -32 134 -32t96 30.5 t32 84t-51 157.5h107q63 -97 63 -188.5t-66 -149t-181 -57.5q-77 0 -155 24z" />
<glyph unicode="&#xe8;" horiz-adv-x="1134" d="M85 384q0 370 221 609q146 154 373 154q171 0 272 -114t101 -306q0 -91 -22 -211h-770q-9 -68 -9 -98q0 -139 77 -215t201 -76q231 0 400 106l-32 -182q-178 -80 -382.5 -80t-317 111.5t-112.5 301.5zM292 659l594 1q6 32 6 67q0 122 -64.5 193t-181.5 71t-211.5 -86.5 t-142.5 -245.5zM450 1638h177l189 -374h-139z" />
<glyph unicode="&#xe9;" horiz-adv-x="1134" d="M85 384q0 370 221 609q146 154 373 154q171 0 272 -114t101 -306q0 -91 -22 -211h-770q-9 -68 -9 -98q0 -139 77 -215t201 -76q231 0 400 106l-32 -182q-178 -80 -382.5 -80t-317 111.5t-112.5 301.5zM292 659l594 1q6 32 6 67q0 122 -64.5 193t-181.5 71t-211.5 -86.5 t-142.5 -245.5zM564 1262l319 376h179l-359 -376h-139z" />
<glyph unicode="&#xea;" horiz-adv-x="1134" d="M85 384q0 370 221 609q146 154 373 154q171 0 272 -114t101 -306q0 -91 -22 -211h-770q-9 -68 -9 -98q0 -139 77 -215t201 -76q231 0 400 106l-32 -182q-178 -80 -382.5 -80t-317 111.5t-112.5 301.5zM292 659l594 1q6 32 6 67q0 122 -64.5 193t-181.5 71t-211.5 -86.5 t-142.5 -245.5zM404 1262l287 376h133l155 -376h-125l-114 237l-211 -237h-125z" />
<glyph unicode="&#xeb;" horiz-adv-x="1134" d="M85 384q0 370 221 609q146 154 373 154q171 0 272 -114t101 -306q0 -91 -22 -211h-770q-9 -68 -9 -98q0 -139 77 -215t201 -76q231 0 400 106l-32 -182q-178 -80 -382.5 -80t-317 111.5t-112.5 301.5zM292 659l594 1q6 32 6 67q0 122 -64.5 193t-181.5 71t-211.5 -86.5 t-142.5 -245.5zM439 1350l35 202h185l-37 -202h-183zM791 1350l35 202h183l-35 -202h-183z" />
<glyph unicode="&#xec;" horiz-adv-x="512" d="M65 0l197 1120h166l-198 -1120h-165zM118 1638h177l189 -374h-139z" />
<glyph unicode="&#xed;" horiz-adv-x="512" d="M65 0l197 1120h166l-198 -1120h-165zM232 1262l319 376h179l-359 -376h-139z" />
<glyph unicode="&#xee;" horiz-adv-x="512" d="M65 0l197 1120h166l-198 -1120h-165zM72 1262l287 376h133l155 -376h-125l-114 237l-211 -237h-125z" />
<glyph unicode="&#xef;" horiz-adv-x="512" d="M65 0l197 1120h166l-198 -1120h-165zM107 1350l35 202h185l-37 -202h-183zM459 1350l35 202h183l-35 -202h-183z" />
<glyph unicode="&#xf0;" horiz-adv-x="1127" d="M83 401q0 246 142 457q79 116 188 178t234 62q34 0 106 -10l-111 180l-316 -107l-29 94l294 97l-125 204h196l86 -145l302 109l32 -95l-282 -98l114 -186q124 -204 124 -441q0 -285 -139 -489q-75 -116 -185.5 -178t-240.5 -62q-178 0 -284 117.5t-106 312.5zM255 408 q0 -138 59 -209.5t173 -71.5q164 0 273.5 161.5t109.5 405.5q0 135 -48 221q-76 33 -157 33q-182 0 -296 -150.5t-114 -389.5z" />
<glyph unicode="&#xf1;" horiz-adv-x="1168" d="M65 0l195 1120h166l-34 -176q70 97 167 150t217 53t193.5 -80t73.5 -225q0 -70 -16 -166l-118 -676h-167l118 669q18 106 18 140q0 84 -48 131t-133 47q-134 0 -230 -98.5t-126 -267.5l-111 -621h-165zM425 1309q27 137 85.5 209.5t139.5 72.5q66 0 115 -61l42 -55 q20 -29 53 -39q34 0 56 35.5t40 119.5h113q-26 -137 -84 -209.5t-141 -72.5q-73 0 -114 61l-41 55q-25 33 -55 39q-68 0 -96 -155h-113z" />
<glyph unicode="&#xf2;" horiz-adv-x="1127" d="M85 424q0 122 35.5 248.5t91.5 212.5q176 262 448 262q172 0 277.5 -119t105.5 -311q0 -133 -35 -265t-92 -219q-172 -262 -448 -262q-177 0 -280 121.5t-103 331.5zM256 430q0 -303 231 -303q166 0 275.5 161.5t109.5 409.5q0 293 -230 293q-184 0 -297 -196 q-89 -153 -89 -365zM454 1638h177l189 -374h-139z" />
<glyph unicode="&#xf3;" horiz-adv-x="1127" d="M85 424q0 122 35.5 248.5t91.5 212.5q176 262 448 262q172 0 277.5 -119t105.5 -311q0 -133 -35 -265t-92 -219q-172 -262 -448 -262q-177 0 -280 121.5t-103 331.5zM256 430q0 -303 231 -303q166 0 275.5 161.5t109.5 409.5q0 293 -230 293q-184 0 -297 -196 q-89 -153 -89 -365zM568 1262l319 376h179l-359 -376h-139z" />
<glyph unicode="&#xf4;" horiz-adv-x="1127" d="M85 424q0 122 35.5 248.5t91.5 212.5q176 262 448 262q172 0 277.5 -119t105.5 -311q0 -133 -35 -265t-92 -219q-172 -262 -448 -262q-177 0 -280 121.5t-103 331.5zM256 430q0 -303 231 -303q166 0 275.5 161.5t109.5 409.5q0 293 -230 293q-184 0 -297 -196 q-89 -153 -89 -365zM408 1262l287 376h133l155 -376h-125l-114 237l-211 -237h-125z" />
<glyph unicode="&#xf5;" horiz-adv-x="1127" d="M85 424q0 122 35.5 248.5t91.5 212.5q176 262 448 262q172 0 277.5 -119t105.5 -311q0 -133 -35 -265t-92 -219q-172 -262 -448 -262q-177 0 -280 121.5t-103 331.5zM256 430q0 -303 231 -303q166 0 275.5 161.5t109.5 409.5q0 293 -230 293q-184 0 -297 -196 q-89 -153 -89 -365zM406 1309q27 137 85.5 209.5t139.5 72.5q66 0 115 -61l42 -55q20 -29 53 -39q34 0 56 35.5t40 119.5h113q-26 -137 -84 -209.5t-141 -72.5q-73 0 -114 61l-41 55q-25 33 -55 39q-68 0 -96 -155h-113z" />
<glyph unicode="&#xf6;" horiz-adv-x="1127" d="M85 424q0 122 35.5 248.5t91.5 212.5q176 262 448 262q172 0 277.5 -119t105.5 -311q0 -133 -35 -265t-92 -219q-172 -262 -448 -262q-177 0 -280 121.5t-103 331.5zM256 430q0 -303 231 -303q166 0 275.5 161.5t109.5 409.5q0 293 -230 293q-184 0 -297 -196 q-89 -153 -89 -365zM443 1350l35 202h185l-37 -202h-183zM795 1350l35 202h183l-35 -202h-183z" />
<glyph unicode="&#xf7;" horiz-adv-x="1544" d="M195 557v170h1154v-170h-1154zM662 150v245h221v-245h-221zM662 889v246h221v-246h-221z" />
<glyph unicode="&#xf8;" horiz-adv-x="1127" d="M-26 -10l165 182q-54 98 -54 235t35.5 264.5t91.5 213.5q89 134 198 198t258.5 64t254.5 -103l146 164l78 -86l-155 -172q51 -112 51 -242t-35.5 -259.5t-91.5 -215.5q-87 -134 -196.5 -198t-260 -64t-253.5 105l-155 -170zM258 420q0 -78 8 -105l545 607q-65 69 -169 69 q-168 0 -276 -160.5t-108 -410.5zM317 199q68 -72 170 -72q170 0 277.5 163.5t107.5 426.5q0 57 -7 92z" />
<glyph unicode="&#xf9;" horiz-adv-x="1168" d="M105 276q0 72 18 168l118 676h167l-118 -669q-17 -93 -17 -160t46.5 -113.5t132.5 -46.5q133 0 230 100t127 269l111 620h165l-195 -1120h-166l34 176q-70 -98 -167 -151.5t-217.5 -53.5t-194.5 80.5t-74 224.5zM445 1638h177l189 -374h-139z" />
<glyph unicode="&#xfa;" horiz-adv-x="1168" d="M105 276q0 72 18 168l118 676h167l-118 -669q-17 -93 -17 -160t46.5 -113.5t132.5 -46.5q133 0 230 100t127 269l111 620h165l-195 -1120h-166l34 176q-70 -98 -167 -151.5t-217.5 -53.5t-194.5 80.5t-74 224.5zM559 1262l319 376h179l-359 -376h-139z" />
<glyph unicode="&#xfb;" horiz-adv-x="1168" d="M105 276q0 72 18 168l118 676h167l-118 -669q-17 -93 -17 -160t46.5 -113.5t132.5 -46.5q133 0 230 100t127 269l111 620h165l-195 -1120h-166l34 176q-70 -98 -167 -151.5t-217.5 -53.5t-194.5 80.5t-74 224.5zM399 1262l287 376h133l155 -376h-125l-114 237l-211 -237 h-125z" />
<glyph unicode="&#xfc;" horiz-adv-x="1168" d="M105 276q0 72 18 168l118 676h167l-118 -669q-17 -93 -17 -160t46.5 -113.5t132.5 -46.5q133 0 230 100t127 269l111 620h165l-195 -1120h-166l34 176q-70 -98 -167 -151.5t-217.5 -53.5t-194.5 80.5t-74 224.5zM434 1350l35 202h185l-37 -202h-183zM786 1350l35 202h183 l-35 -202h-183z" />
<glyph unicode="&#xfd;" horiz-adv-x="1090" d="M-46 -426l28 154h95q70 0 118.5 42t108.5 164l52 107l-224 1079h176l167 -858l463 858h174l-655 -1224q-115 -215 -187.5 -268.5t-184.5 -53.5h-131zM549 1262l319 376h179l-359 -376h-139z" />
<glyph unicode="&#xfe;" horiz-adv-x="1170" d="M-5 -426l343 1982h165l-102 -606q136 197 359 197q154 0 239.5 -112.5t85.5 -296.5q0 -360 -206 -605q-135 -162 -326 -162q-217 0 -289 197l-104 -594h-165zM319 401q0 -125 57.5 -200.5t149.5 -75.5q176 0 274 160q114 183 114 428q0 124 -57.5 202t-165.5 78 q-153 0 -260 -164q-51 -79 -81.5 -191t-30.5 -237z" />
<glyph unicode="&#xff;" horiz-adv-x="1090" d="M-46 -426l28 154h95q70 0 118.5 42t108.5 164l52 107l-224 1079h176l167 -858l463 858h174l-655 -1224q-115 -215 -187.5 -268.5t-184.5 -53.5h-131zM424 1350l35 202h185l-37 -202h-183zM776 1350l35 202h183l-35 -202h-183z" />
<glyph unicode="&#x152;" horiz-adv-x="1971" d="M85 582q0 209 83 395t238 321q221 195 628 195h932l-29 -170h-665l-80 -442h640l-29 -170h-640l-94 -541h684l-29 -170h-982q-145 0 -225 15.5t-150 50.5q-282 140 -282 516zM276 582q0 -203 114 -307.5t336 -104.5h160l203 1153h-108q-302 0 -461 -149 q-244 -224 -244 -592z" />
<glyph unicode="&#x153;" horiz-adv-x="1894" d="M85 401q0 137 34 266.5t93 217.5q176 262 448 262q117 0 206.5 -58.5t137.5 -166.5q181 225 435 225q172 0 273.5 -114t101.5 -306q0 -91 -22 -211h-770q-9 -61 -9 -98q0 -139 76.5 -215t200.5 -76q235 0 402 106l-33 -182q-183 -80 -352 -80q-328 0 -419 209 q-181 -209 -420 -209q-172 0 -277.5 119t-105.5 311zM256 430q0 -303 231 -303q166 0 275.5 160t109.5 409q0 295 -230 295q-184 0 -297 -196q-89 -153 -89 -365zM1052 659l596 1q5 27 5 67q0 122 -64 193t-181.5 71t-211.5 -86.5t-144 -245.5z" />
<glyph unicode="&#x178;" horiz-adv-x="1125" d="M116 1493h195l251 -614l479 614h205l-610 -782l-124 -711h-182l124 711zM445 1667l35 203h183l-37 -203h-181zM797 1667l35 203h182l-35 -203h-182z" />
<glyph unicode="&#x2c6;" horiz-adv-x="921" d="M304 1262l287 376h133l155 -376h-125l-114 237l-211 -237h-125z" />
<glyph unicode="&#x2dc;" horiz-adv-x="921" d="M302 1309q27 137 85.5 209.5t139.5 72.5q66 0 115 -61l42 -55q20 -29 53 -39q34 0 56 35.5t40 119.5h113q-26 -137 -84 -209.5t-141 -72.5q-73 0 -114 61l-41 55q-25 33 -55 39q-68 0 -96 -155h-113z" />
<glyph unicode="&#x2000;" horiz-adv-x="950" />
<glyph unicode="&#x2001;" horiz-adv-x="1901" />
<glyph unicode="&#x2002;" horiz-adv-x="950" />
<glyph unicode="&#x2003;" horiz-adv-x="1901" />
<glyph unicode="&#x2004;" horiz-adv-x="633" />
<glyph unicode="&#x2005;" horiz-adv-x="475" />
<glyph unicode="&#x2006;" horiz-adv-x="316" />
<glyph unicode="&#x2007;" horiz-adv-x="316" />
<glyph unicode="&#x2008;" horiz-adv-x="237" />
<glyph unicode="&#x2009;" horiz-adv-x="380" />
<glyph unicode="&#x200a;" horiz-adv-x="105" />
<glyph unicode="&#x2010;" horiz-adv-x="665" d="M83 479l29 164h486l-28 -164h-487z" />
<glyph unicode="&#x2011;" horiz-adv-x="665" d="M83 479l29 164h486l-28 -164h-487z" />
<glyph unicode="&#x2012;" horiz-adv-x="665" d="M83 479l29 164h486l-28 -164h-487z" />
<glyph unicode="&#x2013;" horiz-adv-x="921" d="M77 489l26 144h741l-25 -144h-742z" />
<glyph unicode="&#x2014;" horiz-adv-x="1843" d="M77 489l26 144h1663l-25 -144h-1664z" />
<glyph unicode="&#x2018;" horiz-adv-x="585" d="M241 1001l32 173l202 319h116l-128 -319l-32 -173h-190z" />
<glyph unicode="&#x2019;" horiz-adv-x="585" d="M248 1001l130 320l32 172h189l-29 -172l-205 -320h-117z" />
<glyph unicode="&#x201a;" horiz-adv-x="585" d="M5 -238l130 320l31 172h190l-32 -172l-202 -320h-117z" />
<glyph unicode="&#x201c;" horiz-adv-x="954" d="M241 1001l32 173l202 319h116l-128 -319l-32 -173h-190zM610 1001l32 173l202 319h116l-128 -319l-32 -173h-190z" />
<glyph unicode="&#x201d;" horiz-adv-x="954" d="M248 1001l130 320l32 172h189l-31 -172l-203 -320h-117zM617 1001l129 320l32 172h190l-32 -172l-202 -320h-117z" />
<glyph unicode="&#x201e;" horiz-adv-x="954" d="M5 -238l130 320l31 172h190l-32 -172l-202 -320h-117zM374 -238l129 320l32 172h189l-31 -172l-203 -320h-116z" />
<glyph unicode="&#x2022;" horiz-adv-x="1087" d="M276 761.5q0 124.5 78 210t190.5 85.5t189.5 -85.5t77 -210t-77.5 -210.5t-190 -86t-190 86t-77.5 210.5z" />
<glyph unicode="&#x2026;" horiz-adv-x="1843" d="M120 0l44 254h190l-44 -254h-190zM734 0l44 254h190l-45 -254h-189zM1349 0l44 254h190l-44 -254h-190z" />
<glyph unicode="&#x202f;" horiz-adv-x="380" />
<glyph unicode="&#x2039;" horiz-adv-x="737" d="M114 559l15 82l494 418l-33 -201l-321 -270l227 -266l-33 -181z" />
<glyph unicode="&#x203a;" horiz-adv-x="737" d="M114 141l35 201l321 270l-227 267l31 180l349 -418l-13 -82z" />
<glyph unicode="&#x205f;" horiz-adv-x="475" />
<glyph unicode="&#x20ac;" d="M-35 520l49 123h131q7 101 29 207h-156l50 123h136q174 547 581 547q184 0 334 -142l-30 -213q-145 195 -311 195q-260 0 -387 -387h468l-48 -123h-454q-21 -95 -29 -207h400l-49 -123h-354q16 -389 287 -389q98 0 184.5 43t178.5 139l-35 -239q-172 -103 -361.5 -103 t-308 146t-127.5 403h-178z" />
<glyph unicode="&#x2122;" horiz-adv-x="1843" d="M266 1399v94h466v-94h-183v-484h-103v484h-180zM833 915v578h155l157 -256l147 256h153v-578h-101v484l-176 -303h-49l-183 303v-484h-103z" />
<glyph unicode="&#xe000;" horiz-adv-x="1120" d="M0 0v1120h1120v-1120h-1120z" />
</font>
</defs>
</svg>
