<?xml version="1.0" standalone="no"?>
<!DOCTYPE svg PUBLIC "-//W3C//DTD SVG 1.1//EN" "http://www.w3.org/Graphics/SVG/1.1/DTD/svg11.dtd" >
<svg xmlns="http://www.w3.org/2000/svg">
<metadata></metadata>
<defs>
<font id="DejaVuSansCondensedBold" horiz-adv-x="1282" >
<font-face units-per-em="2048" ascent="1556" descent="-492" />
<missing-glyph horiz-adv-x="641" />
<glyph unicode="&#xfb01;" horiz-adv-x="1366" d="M39 864v256h158v78q0 183 92 270.5t284 87.5h247v-235h-178q-68 0 -94 -27.5t-26 -95.5v-78h689v-1120h-325v864h-364v-864h-325v864h-158zM886 1264v292h325v-292h-325z" />
<glyph unicode="&#xfb02;" horiz-adv-x="1366" d="M35 864v256h160v78q0 183 92 270.5t285 87.5h639v-1556h-325v1321h-246q-68 0 -95 -27.5t-27 -95.5v-78h252v-256h-252v-864h-323v864h-160z" />
<glyph unicode="&#xfb03;" horiz-adv-x="2055" d="M35 864v256h160v78q0 183 92 270.5t285 87.5h246v-235h-178q-68 0 -96 -27q-26 -28 -26 -96v-78h368v78q0 183 92 270.5t285 87.5h246v-235h-178q-67 0 -93.5 -27.5t-26.5 -95.5v-78h690v-1120h-325v864h-365v-864h-325v864h-368v-864h-323v864h-160zM1576 1264v292h325 v-292h-325z" />
<glyph unicode="&#xfb04;" horiz-adv-x="2057" d="M35 864v256h160v78q0 183 92 270.5t285 87.5h246v-235h-178q-68 0 -96 -27q-26 -28 -26 -96v-78h368v78q0 183 92 270.5t285 87.5h640v-1556h-325v1321h-247q-68 0 -95 -27.5t-27 -95.5v-78h253v-256h-253v-864h-323v864h-368v-864h-323v864h-160z" />
<glyph horiz-adv-x="0" />
<glyph horiz-adv-x="2048" />
<glyph unicode="&#xd;" horiz-adv-x="682" />
<glyph unicode=" "  horiz-adv-x="641" />
<glyph unicode="&#x09;" horiz-adv-x="641" />
<glyph unicode="&#xa0;" horiz-adv-x="641" />
<glyph unicode="!" horiz-adv-x="840" d="M258 0v356h324v-356h-324zM258 920v573h324v-573l-46 -418h-232z" />
<glyph unicode="&#x22;" horiz-adv-x="960" d="M176 938v555h213v-555h-213zM572 938v555h213v-555h-213z" />
<glyph unicode="#" horiz-adv-x="1544" d="M125 383v215h295l63 274h-254v213h304l86 385h201l-86 -385h237l87 385h199l-87 -385h249v-213h-297l-62 -274h256v-215h-303l-86 -383h-199l86 383h-237l-87 -383h-200l86 383h-251zM621 598h238l63 274h-238z" />
<glyph unicode="$" d="M144 941q0 174 110 274.5t315 109.5l1 231h146v-227q185 -16 360 -69v-254q-180 84 -360 94v-287l28 -6q229 -40 321 -133.5t92 -276.5q0 -367 -441 -395v-303h-146l-1 301q-223 10 -423 92v262q206 -118 424 -126v311l-30 6q-215 42 -305.5 132t-90.5 264zM429 968 q0 -114 141 -132v261q-64 -4 -102.5 -38.5t-38.5 -90.5zM716 232q156 2 156 133q0 68 -36 101.5t-120 43.5v-278z" />
<glyph unicode="%" horiz-adv-x="1846" d="M59 1114q0 189 96 297.5t263.5 108.5t263.5 -108.5t96 -297.5t-96 -298t-263.5 -109t-263.5 109t-96 298zM284 1113.5q0 -114.5 35 -177t99.5 -62.5t99.5 62.5t35 177t-35.5 176.5t-99.5 62t-99 -62t-35 -176.5zM404 -29l840 1549h200l-841 -1549h-199zM1067 378.5 q0 188.5 97 297t264.5 108.5t263.5 -108t96 -297t-96 -298.5t-263.5 -109.5t-264.5 109.5t-97 298zM1294 378.5q0 -114.5 35 -176t99.5 -61.5t99 61.5t34.5 176t-35 176t-99 61.5t-99 -61.5t-35 -176z" />
<glyph unicode="&#x26;" horiz-adv-x="1607" d="M111 467q0 146 64 258.5t210 218.5q-74 103 -74 217q0 163 114.5 261t291 98t368.5 -58v-278q-165 94 -307 94q-70 0 -108 -29.5t-38 -73.5q0 -77 87 -184l368 -450q92 134 102 354h280q-28 -362 -203 -573l264 -322h-382l-88 109q-185 -138 -421 -138t-382 138.5 t-146 357.5zM422 519q0 -128 76.5 -209t183.5 -81q120 0 210 82l-352 432q-118 -96 -118 -224z" />
<glyph unicode="'" horiz-adv-x="564" d="M176 938v555h213v-555h-213z" />
<glyph unicode="(" horiz-adv-x="842" d="M158 641q0 430 270 913h267q-231 -476 -231 -911q0 -439 231 -913h-267q-270 483 -270 911z" />
<glyph unicode=")" horiz-adv-x="842" d="M148 -270q230 476 230 913t-230 911h267q269 -481 269 -913q0 -430 -269 -911h-267z" />
<glyph unicode="*" horiz-adv-x="963" d="M37 870l301 174l-301 173l68 141l301 -182v344h153v-344l300 182l68 -141l-297 -173l297 -174l-68 -141l-300 184v-344h-153v344l-301 -184z" />
<glyph unicode="+" horiz-adv-x="1544" d="M195 524v236h470v524h214v-524h470v-236h-470v-524h-214v524h-470z" />
<glyph unicode="," horiz-adv-x="700" d="M98 -291l90 373v305h324v-305l-222 -373h-192z" />
<glyph unicode="-" horiz-adv-x="765" d="M100 444v291h565v-291h-565z" />
<glyph unicode="." horiz-adv-x="700" d="M188 0v387h324v-387h-324z" />
<glyph unicode="/" horiz-adv-x="673" d="M0 -190l473 1683h200l-474 -1683h-199z" />
<glyph unicode="0" d="M88 745.5q0 371.5 144 573t409 201.5t409 -201.5t144 -573t-144 -573t-409 -201.5t-409 201.5t-144 573zM435 746.5q0 -281.5 47.5 -397.5t158.5 -116t159 116t48 397.5t-47.5 396t-159 114.5t-159 -114.5t-47.5 -396z" />
<glyph unicode="1" d="M208 1159v262l312 72h330v-1227h306v-266h-940v266h306v965z" />
<glyph unicode="2" d="M146 0v283l490 481q129 129 129 247t-63.5 182t-168.5 64q-163 0 -384 -153v328q239 88 468 88t362.5 -118t133.5 -329q0 -122 -56.5 -227.5t-238.5 -282.5l-287 -280h591v-283h-976z" />
<glyph unicode="3" d="M123 45v297q196 -109 382 -109q138 0 211 53t73 152q0 207 -297 207h-138v248h146q258 0 258 184q0 86 -62 133t-202.5 47t-312.5 -83v282q206 64 401 64q522 0 522 -383q0 -263 -245 -332q135 -39 206 -135.5t71 -245.5q0 -222 -153 -337.5t-447 -115.5q-209 0 -413 74z " />
<glyph unicode="4" d="M83 272v330l538 891h385v-942h192v-279h-192v-272h-327v272h-596zM299 551h380v625z" />
<glyph unicode="5" d="M142 70v303q220 -140 394 -140q126 0 198.5 68.5t72.5 186t-72.5 185.5t-211 68t-328.5 -88v840h862v-283h-585v-231q81 25 162 25q246 0 383 -136.5t137 -379.5t-149 -380t-396 -137t-467 99z" />
<glyph unicode="6" d="M114 729.5q0 365.5 168 577t460 211.5q183 0 353 -64v-276q-166 88 -314.5 88t-235 -95.5t-100.5 -283.5q118 98 279 98q207 0 333.5 -134t126.5 -362.5t-141.5 -373t-391.5 -144.5t-393.5 196.5t-143.5 562zM485 475q0 -262 182.5 -262t182.5 262t-182.5 262 t-182.5 -262z" />
<glyph unicode="7" d="M123 1210v283h1013v-217l-524 -1276h-338l496 1210h-647z" />
<glyph unicode="8" d="M112 420q0 290 277 375q-247 82 -247 338q0 189 127 288t372 99t371.5 -98.5t126.5 -288.5q0 -255 -247 -338q276 -85 276 -375q0 -222 -132.5 -335.5t-394 -113.5t-395.5 113.5t-134 335.5zM440 440q0 -110 52 -168.5t149 -58.5t148.5 58.5t51.5 169t-51.5 169 t-148.5 58.5t-149 -59t-52 -169zM470 1093.5q0 -88.5 44.5 -136.5t126.5 -48t126 48t44 137t-44 136.5t-126 47.5t-126.5 -48t-44.5 -136.5z" />
<glyph unicode="9" d="M95 998.5q0 229.5 141 374.5t391 145t394 -197t144 -562t-168.5 -576.5t-461.5 -211.5q-185 0 -351 62v276q166 -86 314.5 -86t235 95.5t101.5 283.5q-122 -100 -281 -100q-206 0 -332.5 133.5t-126.5 363zM429 1014q0 -262 183 -262t183 262t-183 262t-183 -262z" />
<glyph unicode=":" horiz-adv-x="737" d="M206 0v387h325v-387h-325zM206 733v387h325v-387h-325z" />
<glyph unicode=";" horiz-adv-x="737" d="M116 -291l90 373v305h325v-305l-223 -373h-192zM206 733v387h325v-387h-325z" />
<glyph unicode="&#x3c;" horiz-adv-x="1544" d="M195 524v236l1154 463v-250l-867 -332l867 -330v-250z" />
<glyph unicode="=" horiz-adv-x="1544" d="M195 295v237h1154v-237h-1154zM195 752v235h1154v-235h-1154z" />
<glyph unicode="&#x3e;" horiz-adv-x="1544" d="M195 61v250l869 330l-869 332v250l1154 -463v-236z" />
<glyph unicode="?" horiz-adv-x="1069" d="M127 1124v314q213 82 373 82q219 0 334.5 -99.5t115.5 -290.5q0 -98 -35.5 -175.5t-119.5 -166.5l-58 -57q-61 -62 -80 -99.5t-19 -82.5v-45h-325v49q0 82 30 145.5t125 161.5l58 58q99 101 99 180.5t-43.5 119t-120.5 39.5q-149 0 -334 -133zM313 0v356h325v-356h-325z " />
<glyph unicode="@" horiz-adv-x="1843" d="M122 543q0 182 61 347t174 290q114 124 264.5 192t332.5 68t346.5 -85.5t275.5 -246.5q137 -200 137 -462t-147 -412t-414 -150h-35v154q-27 -71 -87 -110.5t-140 -39.5q-155 0 -251.5 124.5t-96.5 324.5t97 325t251 125q80 0 140 -40t87 -111v131h188v-693 q112 19 175.5 119.5t63.5 257.5q0 203 -105 348q-85 122 -213.5 188t-255.5 66q-235 0 -398 -120q-134 -98 -208 -253.5t-74 -320.5q0 -321 187 -526q185 -201 455 -201q114 0 227.5 47t193.5 127l96 -162q-233 -200 -515 -200q-341 0 -577 256q-235 255 -235 643zM748 538 q0 -122 47 -193t128 -71t128.5 71.5t47.5 193t-48 192t-128.5 70.5t-127.5 -70.5t-47 -192.5z" />
<glyph unicode="A" horiz-adv-x="1426" d="M9 0l498 1493h413l498 -1493h-349l-84 272h-542l-86 -272h-348zM529 549h368l-183 594z" />
<glyph unicode="B" horiz-adv-x="1404" d="M169 0v1493h520q280 0 405.5 -94t125.5 -309.5t-179 -290.5q112 -36 173 -133t61 -238q0 -216 -131.5 -322t-399.5 -106h-575zM516 262h203q210 0 210 195.5t-210 195.5h-203v-391zM516 915h191q167 0 167 158t-167 158h-191v-316z" />
<glyph unicode="C" horiz-adv-x="1352" d="M92 745.5q0 357.5 196 566t532 208.5q221 0 415 -111v-309q-187 141 -380 141t-299 -132t-106 -363.5t106 -363.5t299 -132t380 141v-309q-194 -111 -415 -111q-336 0 -532 208.5t-196 566z" />
<glyph unicode="D" horiz-adv-x="1530" d="M169 0v1493h366q306 0 455.5 -48.5t250.5 -156.5q193 -208 193 -540q0 -336 -187 -535q-108 -116 -259 -164.5t-453 -48.5h-366zM516 291h124q212 0 324 117t112 339.5t-111.5 338.5t-324.5 116h-124v-911z" />
<glyph unicode="E" horiz-adv-x="1259" d="M169 0v1493h935v-291h-588v-278h553v-291h-553v-342h608v-291h-955z" />
<glyph unicode="F" horiz-adv-x="1259" d="M169 0v1493h935v-291h-588v-278h553v-291h-553v-633h-347z" />
<glyph unicode="G" horiz-adv-x="1512" d="M92 747q0 359 199.5 566t547.5 207q269 0 489 -111v-309q-224 141 -439 141t-327 -128.5t-112 -366.5t108 -367t307 -129q113 0 183 31v290h-211v258h540v-718q-260 -140 -557 -140q-336 0 -532 208.5t-196 567.5z" />
<glyph unicode="H" horiz-adv-x="1542" d="M169 0v1493h347v-569h511v569h346v-1493h-346v633h-511v-633h-347z" />
<glyph unicode="I" horiz-adv-x="685" d="M169 0v1493h347v-1493h-347z" />
<glyph unicode="J" horiz-adv-x="685" d="M-104 -119h54q219 0 219 264v1348h347v-1348q0 -555 -549 -555h-71v291z" />
<glyph unicode="K" horiz-adv-x="1428" d="M169 0v1493h347v-545l499 545h403l-648 -707l714 -786h-434l-534 588v-588h-347z" />
<glyph unicode="L" horiz-adv-x="1174" d="M169 0v1493h347v-1202h608v-291h-955z" />
<glyph unicode="M" horiz-adv-x="1834" d="M169 0v1493h441l306 -799l308 799h440v-1493h-328v1092l-309 -805h-220l-309 805v-1092h-329z" />
<glyph unicode="N" horiz-adv-x="1542" d="M169 0v1493h387l489 -1024v1024h328v-1493h-387l-488 1024v-1024h-329z" />
<glyph unicode="O" horiz-adv-x="1566" d="M92 745.5q0 362.5 184 568.5t507.5 206t507 -206t183.5 -568.5t-183.5 -568.5t-507 -206t-507.5 206t-184 568.5zM450 745.5q0 -235.5 87.5 -365.5t246 -130t246 130t87.5 365.5t-87.5 365.5t-246 130t-246 -130t-87.5 -365.5z" />
<glyph unicode="P" horiz-adv-x="1350" d="M169 0v1493h575q257 0 394 -126.5t137 -361t-137 -361t-394 -126.5h-228v-518h-347zM516 797h191q101 0 156 54.5t55 154.5t-55 154t-156 54h-191v-417z" />
<glyph unicode="Q" horiz-adv-x="1566" d="M92 744.5q0 363.5 184 569.5t509 206t507 -204t182 -571q0 -252 -96.5 -434t-278.5 -274l271 -336h-330l-220 272h-27q-332 0 -516.5 204t-184.5 567.5zM450 743q0 -238 85.5 -365.5t246 -127.5t248 130t87.5 365.5t-87.5 365.5t-246 130t-246 -130t-87.5 -368z" />
<glyph unicode="R" horiz-adv-x="1419" d="M169 0v1493h529q266 0 389.5 -99t123.5 -313q0 -294 -258 -383q71 -18 127.5 -81.5t113.5 -192.5l188 -424h-369l-163 371q-50 112 -101 153t-135 41h-98v-565h-347zM516 831h146q108 0 155.5 45t47.5 147.5t-47.5 146.5t-155.5 44h-146v-383z" />
<glyph unicode="S" horiz-adv-x="1327" d="M132 1057q0 223 130 343t361 120t481 -74v-316q-222 111 -415 111q-124 0 -183.5 -38t-59.5 -108t40 -103.5t146 -57.5l147 -33q225 -50 319 -152t94 -290q0 -247 -131.5 -367.5t-394 -120.5t-522.5 107v325q260 -153 481 -153q113 0 173.5 42t60.5 116t-41 112t-164 68 l-134 33q-201 48 -294.5 153t-93.5 283z" />
<glyph unicode="T" horiz-adv-x="1257" d="M9 1202v291h1238v-291h-445v-1202h-347v1202h-446z" />
<glyph unicode="U" horiz-adv-x="1496" d="M169 598v895h347v-895q0 -185 54.5 -264.5t178 -79.5t178 79.5t54.5 264.5v895h347v-895q0 -317 -143.5 -472t-436.5 -155t-436 155t-143 472z" />
<glyph unicode="V" horiz-adv-x="1426" d="M9 1493h348l357 -1102l355 1102h349l-498 -1493h-413z" />
<glyph unicode="W" horiz-adv-x="2033" d="M55 1493h332l232 -1085l231 1085h334l230 -1085l232 1085h330l-317 -1493h-400l-244 1135l-241 -1135h-400z" />
<glyph unicode="X" horiz-adv-x="1421" d="M35 0l466 762l-448 731h362l294 -481l294 481h363l-448 -731l466 -762h-361l-314 510l-311 -510h-363z" />
<glyph unicode="Y" horiz-adv-x="1334" d="M-18 1493h379l306 -532l306 532h380l-512 -864v-629h-347v629z" />
<glyph unicode="Z" horiz-adv-x="1336" d="M83 0v233l721 969h-700v291h1129v-233l-721 -969h742v-291h-1171z" />
<glyph unicode="[" horiz-adv-x="842" d="M158 -270v1826h559v-225h-253v-1376h253v-225h-559z" />
<glyph unicode="\" horiz-adv-x="673" d="M0 1493h199l474 -1683h-200z" />
<glyph unicode="]" horiz-adv-x="842" d="M125 -45h253v1376h-253v225h559v-1826h-559v225z" />
<glyph unicode="^" horiz-adv-x="1544" d="M186 936l476 557h221l475 -557h-217l-369 301l-368 -301h-218z" />
<glyph unicode="_" horiz-adv-x="921" d="M0 -293h922v-190h-922v190z" />
<glyph unicode="`" horiz-adv-x="921" d="M85 1638h254l254 -376h-176z" />
<glyph unicode="a" horiz-adv-x="1243" d="M79 353.5q0 179.5 122 271.5t383 92h190v28q0 85 -60.5 124.5t-187.5 39.5q-205 0 -359 -92v273q212 57 417 57q273 0 394 -119.5t121 -388.5v-639h-325v166q-65 -102 -146 -148.5t-197 -46.5q-157 0 -254.5 101.5t-97.5 281zM404 354q0 -68 41 -106.5t123 -38.5 t144 72.5t62 181.5v41h-167q-203 0 -203 -150z" />
<glyph unicode="b" horiz-adv-x="1319" d="M155 0v1556h322v-600q131 191 325.5 191t314.5 -164.5t120 -423.5t-120 -423.5t-314.5 -164.5t-325.5 191v-162h-322zM477 559q0 -159 55.5 -243.5t159 -84.5t158 84t54.5 244t-54.5 244t-158 84t-159 -84.5t-55.5 -243.5z" />
<glyph unicode="c" horiz-adv-x="1092" d="M79 559q0 277 154 432.5t427 155.5q157 0 309 -62v-292q-127 98 -265.5 98t-213.5 -87.5t-75 -244.5t75 -244.5t219.5 -87.5t259.5 99v-293q-150 -62 -309 -62q-273 0 -427 155.5t-154 432.5z" />
<glyph unicode="d" horiz-adv-x="1319" d="M83 559q0 259 119.5 423.5t313.5 164.5t325 -191v600h324v-1556h-324v162q-67 -99 -147 -145t-186 -46q-186 0 -305.5 164.5t-119.5 423.5zM417 559q0 -160 54.5 -244t157.5 -84t157.5 84t54.5 244t-54.5 244t-157.5 84t-157.5 -84t-54.5 -244z" />
<glyph unicode="e" horiz-adv-x="1250" d="M79 556.5q0 276.5 149 433.5t398.5 157t392 -159t142.5 -425v-102h-753q22 -252 278 -252q205 0 427 135v-276q-230 -97 -457 -97q-274 0 -425.5 154.5t-151.5 431zM411 682h419q0 102 -53.5 164.5t-143.5 62.5t-148.5 -58.5t-73.5 -168.5z" />
<glyph unicode="f" horiz-adv-x="801" d="M35 864v256h160v78q0 183 92 270.5t285 87.5h246v-235h-178q-68 0 -95 -27.5t-27 -95.5v-78h275v-256h-275v-864h-323v864h-160z" />
<glyph unicode="g" horiz-adv-x="1319" d="M83 573.5q0 250.5 120.5 411t304.5 160.5q106 0 186 -46t147 -145v166h324v-1007q0 -270 -153.5 -412.5t-445.5 -142.5q-185 0 -360 65v279q168 -107 327.5 -107t233.5 77t74 241v77q-67 -98 -147 -144t-186 -46q-184 0 -304.5 161.5t-120.5 412zM417 571 q0 -152 54 -231.5t156 -79.5t158 82t56 231.5t-56 231.5t-156.5 82t-156 -82t-55.5 -234z" />
<glyph unicode="h" horiz-adv-x="1312" d="M155 0v1556h322v-600q142 191 326 191q365 0 365 -465v-682h-324v520q0 235 -22 276q-44 81 -137 81t-150.5 -86.5t-57.5 -239.5v-551h-322z" />
<glyph unicode="i" horiz-adv-x="631" d="M155 0v1120h322v-1120h-322zM155 1264v292h322v-292h-322z" />
<glyph unicode="j" horiz-adv-x="631" d="M-61 -207h56q91 0 125.5 46t34.5 181v1100h322v-1100q0 -225 -97 -343.5t-282 -118.5h-159v235zM155 1264v292h322v-292h-322z" />
<glyph unicode="k" horiz-adv-x="1225" d="M155 0v1556h322v-847l371 411h374l-492 -514l531 -606h-391l-393 467v-467h-322z" />
<glyph unicode="l" horiz-adv-x="631" d="M155 0v1556h322v-1556h-322z" />
<glyph unicode="m" horiz-adv-x="1920" d="M153 0v1120h324v-164q119 191 306 191q104 0 184.5 -56t121.5 -157q125 213 330 213q174 0 265 -119t91 -346v-682h-324v584q2 26 2 67q0 119 -31.5 172.5t-112.5 53.5t-131 -84t-52 -243v-550h-324v584q0 186 -29 239.5t-112 53.5t-133.5 -84.5t-50.5 -241.5v-551h-324z " />
<glyph unicode="n" horiz-adv-x="1312" d="M155 0v1120h322v-164q142 191 326 191q365 0 365 -465v-682h-324v522q0 233 -22 274q-44 81 -137 81t-150.5 -86.5t-57.5 -239.5v-551h-322z" />
<glyph unicode="o" horiz-adv-x="1266" d="M79 559q0 276 147.5 432t408 156t406.5 -156t146 -432t-146 -432t-406.5 -156t-408 156t-147.5 432zM415 559q0 -161 56 -246.5t162.5 -85.5t162 85.5t55.5 246.5t-55.5 246.5t-162 85.5t-162.5 -85.5t-56 -246.5z" />
<glyph unicode="p" horiz-adv-x="1319" d="M155 -426v1546h322v-164q131 191 325.5 191t314.5 -164.5t120 -423.5t-120 -423.5t-314.5 -164.5t-325.5 191v-588h-322zM477 559q0 -159 55.5 -243.5t159 -84.5t158 84t54.5 244t-54.5 244t-158 84t-159 -84.5t-55.5 -243.5z" />
<glyph unicode="q" horiz-adv-x="1319" d="M83 559q0 259 119.5 422.5t305.5 163.5q106 0 186 -46t147 -145v166h324v-1546h-324v588q-67 -99 -147 -145t-186 -46q-186 0 -305.5 164.5t-119.5 423.5zM417 559q0 -160 54.5 -244t157.5 -84t157.5 84t54.5 244t-54.5 244t-157.5 84t-157.5 -84t-54.5 -244z" />
<glyph unicode="r" horiz-adv-x="909" d="M155 0v1120h322v-184q62 110 142.5 160.5t193.5 50.5q32 0 90 -8l1 -324q-84 43 -169 43q-124 0 -191 -88.5t-67 -253.5v-516h-322z" />
<glyph unicode="s" horiz-adv-x="1097" d="M95 803.5q0 171.5 110 257.5t312 86t425 -62v-272q-206 96 -384 96t-178 -104q0 -43 33.5 -66t121.5 -34l56 -9q248 -35 333.5 -115t85.5 -251q0 -359 -474 -359q-201 0 -425 70v272q192 -104 392.5 -104t200.5 115q0 48 -33 71.5t-131 36.5l-57 8q-215 30 -301.5 111 t-86.5 252.5z" />
<glyph unicode="t" horiz-adv-x="881" d="M24 864v256h160v318h323v-318h332v-256h-332v-475q0 -78 27.5 -105.5t110.5 -27.5h166v-256h-276q-191 0 -271 88.5t-80 300.5v475h-160z" />
<glyph unicode="u" horiz-adv-x="1312" d="M144 436v684h324v-112l-2 -412q0 -231 24 -273q45 -81 137.5 -81t150 86t57.5 239v553h322v-1120h-322v162q-142 -191 -325 -191t-274.5 119t-91.5 346z" />
<glyph unicode="v" horiz-adv-x="1201" d="M28 1120h322l251 -774l250 774h323l-396 -1120h-354z" />
<glyph unicode="w" horiz-adv-x="1702" d="M65 1120h313l169 -772l170 772h269l170 -764l170 764h313l-266 -1120h-351l-171 770l-169 -770h-352z" />
<glyph unicode="x" horiz-adv-x="1188" d="M28 0l382 573l-364 547h341l206 -332l209 332h341l-364 -545l382 -575h-341l-227 354l-224 -354h-341z" />
<glyph unicode="y" horiz-adv-x="1201" d="M22 1120h323l271 -760l230 760h322l-424 -1226q-64 -187 -149 -261.5t-224 -74.5h-187v235h101q82 0 119.5 29t58.5 104l9 31z" />
<glyph unicode="z" horiz-adv-x="1072" d="M83 0v250l531 614h-509v256h880v-250l-531 -614h531v-256h-902z" />
<glyph unicode="{" horiz-adv-x="1312" d="M230 494v223h55q128 0 176.5 58t48.5 208v205q0 193 90 280.5t286 87.5h196v-225h-62q-127 0 -165.5 -43.5t-38.5 -185.5v-166q0 -157 -40.5 -228t-139.5 -96q100 -27 140 -98t40 -227v-166q0 -143 38.5 -186.5t165.5 -43.5h62v-225h-196q-196 0 -286 88t-90 281v192 q0 150 -48.5 208.5t-176.5 58.5h-55z" />
<glyph unicode="|" horiz-adv-x="673" d="M234 -483v2048h204v-2048h-204z" />
<glyph unicode="}" horiz-adv-x="1312" d="M230 -109h63q126 0 164.5 43.5t38.5 186.5v166q0 156 40.5 227t140.5 98q-100 25 -140.5 96t-40.5 228v166q0 142 -38.5 185.5t-164.5 43.5h-63v225h196q196 0 286 -87.5t90 -280.5v-205q0 -150 48.5 -208t176.5 -58h55v-223h-55q-128 0 -176.5 -58.5t-48.5 -208.5v-192 q0 -193 -90 -281t-286 -88h-196v225z" />
<glyph unicode="~" horiz-adv-x="1544" d="M195 434v244q97 80 177 114.5t171 34.5q106 0 240 -67q6 -3 20 -9q139 -61 224 -61q147 0 322 160v-244q-95 -80 -175.5 -114.5t-172 -34.5t-220.5 58q-12 6 -19 9t-20 9q-140 61 -224 61q-151 0 -323 -160z" />
<glyph unicode="&#xa1;" horiz-adv-x="840" d="M258 0v573l46 418h232l46 -418v-573h-324zM258 1137v356h324v-356h-324z" />
<glyph unicode="&#xa2;" d="M157 575q0 244 121.5 389.5t353.5 180.5v287h146v-287q133 -6 267 -60v-292q-137 98 -254 98h-13v-663q163 2 267 98v-293q-155 -62 -258 -62h-9v-284h-146v288q-475 81 -475 600zM492 559q0 -215 140 -299v598q-140 -88 -140 -299z" />
<glyph unicode="&#xa3;" d="M112 0v266h205v326h-175v239h175v170q0 271 114 395t362 124q166 0 326 -54v-286q-124 77 -248 77t-175 -62.5t-51 -193.5v-170h336v-239h-336v-326h485v-266h-1018z" />
<glyph unicode="&#xa4;" horiz-adv-x="1172" d="M67 215l186 207q-51 100 -51 219q0 121 54 217l-188 205l138 154l186 -207q87 59 190 59t203 -55l186 207l137 -154l-186 -207q51 -108 51 -225t-53 -209l186 -207l-138 -153l-187 206q-81 -59 -189.5 -59t-200.5 55l-187 -207zM391 640.5q0 -92.5 56.5 -155.5t139.5 -63 t140.5 63.5t57.5 155.5t-57.5 155.5t-139.5 63.5t-139.5 -63.5t-57.5 -156z" />
<glyph unicode="&#xa5;" d="M22 1493h360l260 -461l259 461h360l-303 -539h264v-192h-365l-44 -86v-66h409v-194h-409v-416h-343v416h-409v194h409v66l-44 86h-365v192h263z" />
<glyph unicode="&#xa6;" horiz-adv-x="673" d="M234 -350v758h204v-758h-204zM234 674v758h204v-758h-204z" />
<glyph unicode="&#xa7;" horiz-adv-x="921" d="M13 668q0 208 201 309q-67 51 -96.5 106.5t-29.5 130.5q0 144 103 225t271 81t334 -58v-227q-178 78 -282 78q-136 0 -136 -96q0 -67 169 -146q24 -11 35 -16q189 -89 260.5 -175.5t71.5 -211.5q0 -230 -207 -324q137 -80 137 -226t-109 -229.5t-279 -83.5t-352 58v237 q211 -84 318 -84q59 0 94 25t35 65q0 70 -162 144q-219 93 -297.5 190.5t-78.5 227.5zM269 702q0 -67 55.5 -116t219.5 -115q121 48 121 154q0 67 -62 120t-212 111q-122 -55 -122 -154z" />
<glyph unicode="&#xa8;" horiz-adv-x="921" d="M177 1339v246h212v-246h-212zM533 1339v246h211v-246h-211z" />
<glyph unicode="&#xa9;" horiz-adv-x="1843" d="M255 741q0 308 195 525q197 219 471.5 219t471.5 -219q195 -217 195 -525q0 -305 -195 -522q-197 -219 -471 -219q-275 0 -472 219q-195 217 -195 522zM391 741.5q0 -241.5 156 -414.5t375.5 -173t373.5 172q157 175 157 415q0 241 -156.5 415.5t-374 174.5t-374.5 -174 t-157 -415.5zM540 741.5q0 194.5 114.5 311t303.5 116.5q126 0 233 -43v-215q-101 72 -203 72t-159 -64t-57 -178.5t57 -177.5t167 -63t195 71v-213q-121 -45 -233 -45q-189 0 -303.5 117t-114.5 311.5z" />
<glyph unicode="&#xaa;" horiz-adv-x="1039" d="M142 958q0 261 393 261h123v20q0 115 -156 115t-300 -70v180q166 56 303 56q201 0 298.5 -87.5t97.5 -267.5v-448h-221v127q-95 -148 -260 -148q-130 0 -204 67t-74 195zM158 373v200h732v-200h-732zM365 972.5q0 -56.5 30 -85.5t96 -29t117.5 57t51.5 144v22h-81 q-120 0 -167 -26t-47 -82.5z" />
<glyph unicode="&#xab;" horiz-adv-x="1190" d="M142 506v186l444 371v-242l-264 -221l264 -221v-242zM573 506v186l444 371v-242l-263 -221l263 -221v-242z" />
<glyph unicode="&#xac;" horiz-adv-x="1544" d="M195 672v237h1154v-622h-211v385h-943z" />
<glyph unicode="&#xad;" horiz-adv-x="765" d="M100 444v291h565v-291h-565z" />
<glyph unicode="&#xae;" horiz-adv-x="1843" d="M255 741q0 308 195 525q197 219 471.5 219t471.5 -219q195 -217 195 -525q0 -305 -195 -522q-197 -219 -471 -219q-275 0 -472 219q-195 217 -195 522zM391 741.5q0 -241.5 156 -414.5t375.5 -173t373.5 172q157 175 157 415q0 241 -156.5 415.5t-374 174.5t-374.5 -174 t-157 -415.5zM647 338v836h257q315 0 315 -240q0 -86 -47.5 -142t-133.5 -73q73 -43 127 -160l99 -221h-206l-96 213q-62 143 -112 143h-11v-356h-192zM839 829h31q142 0 142 105q0 102 -142 102h-31v-207z" />
<glyph unicode="&#xaf;" horiz-adv-x="921" d="M177 1368v188h567v-188h-567z" />
<glyph unicode="&#xb0;" horiz-adv-x="921" d="M160 1200q0 141 87 237.5t211.5 96.5t213 -97.5t88.5 -237t-87 -235.5t-214 -96t-213 95.5t-86 236.5zM306 1200q0 -72 44.5 -121t110 -49t110.5 49.5t45 121t-45.5 121.5t-110 50t-109.5 -50t-45 -122z" />
<glyph unicode="&#xb1;" horiz-adv-x="1544" d="M195 0v238h1154v-238h-1154zM195 694v236h470v354h214v-354h470v-236h-470v-354h-214v354h-470z" />
<glyph unicode="&#xb2;" horiz-adv-x="807" d="M98 668v153l282 266q102 98 102 173q0 50 -33 81t-86 31q-112 0 -259 -92v186q156 54 295 54t220 -64.5t81 -175.5q0 -72 -32 -132.5t-123 -146.5l-174 -165h333v-168h-606z" />
<glyph unicode="&#xb3;" horiz-adv-x="807" d="M81 698v174q120 -73 217 -73q191 0 191 124t-199 124h-67v137h76q88 0 128.5 23.5t40.5 74.5q0 90 -142 90q-97 0 -221 -53v166q121 35 272 35t231 -56t80 -161q0 -69 -40.5 -117t-114.5 -66q83 -18 128.5 -73t45.5 -136q0 -258 -359 -258q-142 0 -267 45z" />
<glyph unicode="&#xb4;" horiz-adv-x="921" d="M328 1262l254 376h255l-332 -376h-177z" />
<glyph unicode="&#xb5;" horiz-adv-x="1356" d="M157 -428v1548h325v-651q0 -229 182 -229t182 229v651h324v-749q0 -71 15 -99t48.5 -28t64.5 22v-250q-94 -45 -173 -45t-130 37.5t-82 120.5q-86 -158 -233 -158t-198 95v-494h-325z" />
<glyph unicode="&#xb6;" horiz-adv-x="1172" d="M116 1077q0 184 117 300t311 116h468v-1690h-171v1543h-171v-1543h-170v846q-184 25 -284 134.5t-100 293.5z" />
<glyph unicode="&#xb7;" horiz-adv-x="700" d="M188 518v387h324v-387h-324z" />
<glyph unicode="&#xb8;" horiz-adv-x="921" d="M236 -223q87 -31 149 -31q111 0 111 91q0 45 -79 163h125q102 -122 102 -216q0 -185 -226 -185q-87 0 -181 26z" />
<glyph unicode="&#xb9;" horiz-adv-x="807" d="M111 1294v160l206 49h203v-678h184v-157h-577v157h186v521z" />
<glyph unicode="&#xba;" horiz-adv-x="1039" d="M105 1108q0 190 111.5 301t303.5 111t303 -111t111 -301t-110.5 -300t-303 -110t-304 110t-111.5 300zM149 373v200h741v-200h-741zM363 1108q0 -116 41 -178t116 -62t116 62t41 178t-41 179t-116 63t-116 -63t-41 -179z" />
<glyph unicode="&#xbb;" horiz-adv-x="1190" d="M174 137v242l262 221l-262 221v242l442 -371v-186zM605 137v242l263 221l-263 221v242l443 -371v-186z" />
<glyph unicode="&#xbc;" horiz-adv-x="1908" d="M90 1294v160l206 49h203v-678h184v-157h-577v157h186v521zM459 -29l840 1549h202l-841 -1549h-201zM1081 162v168l336 505h223v-518h124v-155h-124v-162h-207v162h-352zM1218 317h215v323z" />
<glyph unicode="&#xbd;" horiz-adv-x="1908" d="M90 1294v160l206 49h203v-678h184v-157h-577v157h186v521zM459 -29l840 1549h202l-841 -1549h-201zM1213 0v153l282 266q102 98 102 173q0 50 -33 81t-86 31q-112 0 -259 -92v186q156 54 295 54t220 -64.5t81 -175.5q0 -72 -32 -132.5t-123 -146.5l-174 -165h333v-168 h-606z" />
<glyph unicode="&#xbe;" horiz-adv-x="1908" d="M94 698v174q120 -73 217 -73q191 0 191 124t-199 124h-67v137h76q88 0 128.5 23.5t40.5 74.5q0 90 -142 90q-97 0 -221 -53v166q121 35 272 35t231 -56t80 -161q0 -69 -40.5 -117t-114.5 -66q83 -18 128.5 -73t45.5 -136q0 -258 -359 -258q-142 0 -267 45zM459 -29 l840 1549h202l-841 -1549h-201zM1081 162v168l336 505h223v-518h124v-155h-124v-162h-207v162h-352zM1218 317h215v323z" />
<glyph unicode="&#xbf;" horiz-adv-x="1069" d="M127 360q0 99 35 176.5t120 165.5l57 58q61 61 80 99t19 83v45h325v-49q0 -81 -29 -144t-127 -163l-58 -58q-97 -99 -97 -179q0 -161 164 -161q149 0 334 134v-314q-211 -82 -373 -82q-220 0 -335 99.5t-115 289.5zM438 1137v356h325v-356h-325z" />
<glyph unicode="&#xc0;" horiz-adv-x="1426" d="M9 0l498 1493h413l498 -1493h-349l-84 272h-542l-86 -272h-348zM391 1899h254l179 -264h-177zM529 549h368l-183 594z" />
<glyph unicode="&#xc1;" horiz-adv-x="1426" d="M9 0l498 1493h413l498 -1493h-349l-84 272h-542l-86 -272h-348zM529 549h368l-183 594zM559 1635l178 264h255l-257 -264h-176z" />
<glyph unicode="&#xc2;" horiz-adv-x="1426" d="M9 0l498 1493h413l498 -1493h-349l-84 272h-542l-86 -272h-348zM374 1635l201 264h277l200 -264h-160l-179 161l-179 -161h-160zM529 549h368l-183 594z" />
<glyph unicode="&#xc3;" horiz-adv-x="1426" d="M9 0l498 1493h413l498 -1493h-349l-84 272h-542l-86 -272h-348zM400 1641l2 30q0 106 48 171t126 65q64 0 135 -49l53 -39q39 -29 69 -29q68 0 68 117h125l-1 -31q0 -106 -48.5 -170.5t-126.5 -64.5q-66 0 -135 49q-50 35 -75 51t-52 16t-45 -30t-18 -80v-6h-125z M529 549h368l-183 594z" />
<glyph unicode="&#xc4;" horiz-adv-x="1426" d="M9 0l498 1493h413l498 -1493h-349l-84 272h-542l-86 -272h-348zM424 1653v246h211v-246h-211zM529 549h368l-183 594zM779 1653v246h212v-246h-212z" />
<glyph unicode="&#xc5;" horiz-adv-x="1426" d="M9 0l489 1464q-41 66 -41 167.5t75.5 185.5t180.5 84t180.5 -84t75.5 -191t-40 -162l489 -1464h-349l-84 272h-542l-86 -272h-348zM529 549h368l-183 594zM596 1616q0 -54 34.5 -92.5t83 -38.5t83.5 38.5t35 92.5t-35.5 92.5t-83.5 38.5t-82.5 -38.5t-34.5 -92.5z" />
<glyph unicode="&#xc6;" horiz-adv-x="1999" d="M0 0l562 1493h1283v-291h-588v-278h553v-291h-553v-342h609v-291h-955v350h-445l-132 -350h-334zM572 627h339v610h-109z" />
<glyph unicode="&#xc7;" horiz-adv-x="1352" d="M92 745.5q0 357.5 196 566t532 208.5q221 0 415 -111v-309q-187 141 -380 141t-299 -132t-106 -363.5t106 -363.5t299 -132t380 141v-309q-194 -111 -415 -111q-336 0 -532 208.5t-196 566zM570 -223q87 -31 149 -31q111 0 111 91q0 45 -79 163h125q102 -122 102 -216 q0 -185 -226 -185q-87 0 -181 26z" />
<glyph unicode="&#xc8;" horiz-adv-x="1259" d="M169 0v1493h935v-291h-588v-278h553v-291h-553v-342h608v-291h-955zM323 1899h254l179 -264h-177z" />
<glyph unicode="&#xc9;" horiz-adv-x="1259" d="M169 0v1493h935v-291h-588v-278h553v-291h-553v-342h608v-291h-955zM491 1635l178 264h255l-257 -264h-176z" />
<glyph unicode="&#xca;" horiz-adv-x="1259" d="M169 0v1493h935v-291h-588v-278h553v-291h-553v-342h608v-291h-955zM284 1635l201 264h277l200 -264h-160l-179 161l-179 -161h-160z" />
<glyph unicode="&#xcb;" horiz-adv-x="1259" d="M169 0v1493h935v-291h-588v-278h553v-291h-553v-342h608v-291h-955zM340 1653v246h211v-246h-211zM695 1653v246h212v-246h-212z" />
<glyph unicode="&#xcc;" horiz-adv-x="685" d="M20 1899h254l179 -264h-177zM169 0v1493h347v-1493h-347z" />
<glyph unicode="&#xcd;" horiz-adv-x="685" d="M169 0v1493h347v-1493h-347zM188 1635l178 264h255l-257 -264h-176z" />
<glyph unicode="&#xce;" horiz-adv-x="685" d="M3 1635l201 264h277l200 -264h-160l-179 161l-179 -161h-160zM169 0v1493h347v-1493h-347z" />
<glyph unicode="&#xcf;" horiz-adv-x="685" d="M59 1653v246h211v-246h-211zM169 0v1493h347v-1493h-347zM414 1653v246h212v-246h-212z" />
<glyph unicode="&#xd0;" horiz-adv-x="1544" d="M30 621v260h156v612h365q307 0 456 -48.5t250 -156.5q194 -209 194 -540q0 -334 -187 -535q-108 -116 -259.5 -164.5t-453.5 -48.5h-365v621h-156zM533 291h123q212 0 324.5 117t112.5 339.5t-112 338.5t-325 116h-123v-321h211v-260h-211v-330z" />
<glyph unicode="&#xd1;" horiz-adv-x="1542" d="M169 0v1493h387l489 -1024v1024h328v-1493h-387l-488 1024v-1024h-329zM426 1635l2 30q0 106 48 171t126 65q64 0 135 -49l53 -39q39 -29 69 -29q68 0 68 117h125l-1 -31q0 -106 -48.5 -170.5t-126.5 -64.5q-66 0 -135 49q-50 35 -75 51t-52 16t-45 -30t-18 -80v-6h-125z " />
<glyph unicode="&#xd2;" horiz-adv-x="1566" d="M92 745.5q0 362.5 184 568.5t507.5 206t507 -206t183.5 -568.5t-183.5 -568.5t-507 -206t-507.5 206t-184 568.5zM450 745.5q0 -235.5 87.5 -365.5t246 -130t246 130t87.5 365.5t-87.5 365.5t-246 130t-246 -130t-87.5 -365.5zM461 1899h254l179 -264h-177z" />
<glyph unicode="&#xd3;" horiz-adv-x="1566" d="M92 745.5q0 362.5 184 568.5t507.5 206t507 -206t183.5 -568.5t-183.5 -568.5t-507 -206t-507.5 206t-184 568.5zM450 745.5q0 -235.5 87.5 -365.5t246 -130t246 130t87.5 365.5t-87.5 365.5t-246 130t-246 -130t-87.5 -365.5zM629 1635l178 264h255l-257 -264h-176z" />
<glyph unicode="&#xd4;" horiz-adv-x="1566" d="M92 745.5q0 362.5 184 568.5t507.5 206t507 -206t183.5 -568.5t-183.5 -568.5t-507 -206t-507.5 206t-184 568.5zM422 1635l201 264h277l200 -264h-160l-179 161l-179 -161h-160zM450 745.5q0 -235.5 87.5 -365.5t246 -130t246 130t87.5 365.5t-87.5 365.5t-246 130 t-246 -130t-87.5 -365.5z" />
<glyph unicode="&#xd5;" horiz-adv-x="1566" d="M92 745.5q0 362.5 184 568.5t507.5 206t507 -206t183.5 -568.5t-183.5 -568.5t-507 -206t-507.5 206t-184 568.5zM450 745.5q0 -235.5 87.5 -365.5t246 -130t246 130t87.5 365.5t-87.5 365.5t-246 130t-246 -130t-87.5 -365.5zM471 1635l2 30q0 106 48 171t126 65 q64 0 135 -49l53 -39q39 -29 69 -29q68 0 68 117h125l-1 -31q0 -106 -48.5 -170.5t-126.5 -64.5q-66 0 -135 49q-50 35 -75 51t-52 16t-45 -30t-18 -80v-6h-125z" />
<glyph unicode="&#xd6;" horiz-adv-x="1566" d="M92 745.5q0 362.5 184 568.5t507.5 206t507 -206t183.5 -568.5t-183.5 -568.5t-507 -206t-507.5 206t-184 568.5zM450 745.5q0 -235.5 87.5 -365.5t246 -130t246 130t87.5 365.5t-87.5 365.5t-246 130t-246 -130t-87.5 -365.5zM500 1653v246h211v-246h-211zM855 1653v246 h212v-246h-212z" />
<glyph unicode="&#xd7;" horiz-adv-x="1544" d="M230 209l391 432l-391 434l152 168l390 -434l391 434l151 -168l-391 -434l391 -432l-151 -168l-391 432l-390 -432z" />
<glyph unicode="&#xd8;" horiz-adv-x="1566" d="M40 39l185 205q-133 199 -133 501q0 363 184 569t507 206q272 0 454 -152l179 199l101 -115l-181 -199q138 -195 138 -508q0 -362 -183.5 -568t-507.5 -206q-275 0 -459 158l-182 -203zM450 745q0 -127 25 -223l545 604q-91 115 -243 115t-239.5 -130t-87.5 -366z M544 371q90 -121 244 -121t241.5 130t87.5 365q0 136 -28 234z" />
<glyph unicode="&#xd9;" horiz-adv-x="1496" d="M169 598v895h347v-895q0 -185 54.5 -264.5t178 -79.5t178 79.5t54.5 264.5v895h347v-895q0 -317 -143.5 -472t-436.5 -155t-436 155t-143 472zM426 1899h254l179 -264h-177z" />
<glyph unicode="&#xda;" horiz-adv-x="1496" d="M169 598v895h347v-895q0 -185 54.5 -264.5t178 -79.5t178 79.5t54.5 264.5v895h347v-895q0 -317 -143.5 -472t-436.5 -155t-436 155t-143 472zM594 1635l178 264h255l-257 -264h-176z" />
<glyph unicode="&#xdb;" horiz-adv-x="1496" d="M169 598v895h347v-895q0 -185 54.5 -264.5t178 -79.5t178 79.5t54.5 264.5v895h347v-895q0 -317 -143.5 -472t-436.5 -155t-436 155t-143 472zM410 1635l201 264h277l200 -264h-160l-179 161l-179 -161h-160z" />
<glyph unicode="&#xdc;" horiz-adv-x="1496" d="M169 598v895h347v-895q0 -185 54.5 -264.5t178 -79.5t178 79.5t54.5 264.5v895h347v-895q0 -317 -143.5 -472t-436.5 -155t-436 155t-143 472zM466 1653v246h211v-246h-211zM821 1653v246h212v-246h-212z" />
<glyph unicode="&#xdd;" horiz-adv-x="1334" d="M-18 1493h379l306 -532l306 532h380l-512 -864v-629h-347v629zM513 1635l178 264h255l-257 -264h-176z" />
<glyph unicode="&#xde;" horiz-adv-x="1359" d="M169 0v1493h347v-260h228q257 0 394 -126.5t137 -361t-137 -361t-394 -126.5h-228v-258h-347zM516 537h191q101 0 156 54.5t55 154.5t-55 155t-156 55h-191v-419z" />
<glyph unicode="&#xdf;" horiz-adv-x="1325" d="M155 0v1114q0 442 489 442q235 0 355.5 -112t120.5 -330v-71q-135 -10 -200 -49t-65 -113q0 -37 22 -65.5t106 -80.5l62 -37q104 -64 152.5 -148.5t48.5 -201.5q0 -377 -414 -377q-113 0 -250 49v244q104 -55 186 -55t121.5 36t39.5 88t-25 86t-113 89l-63 39 q-155 96 -155 274q0 116 62.5 195t193.5 129q-2 174 -169 174q-183 0 -183 -219v-1100h-322z" />
<glyph unicode="&#xe0;" horiz-adv-x="1243" d="M79 353.5q0 179.5 122 271.5t383 92h190v28q0 85 -60.5 124.5t-187.5 39.5q-205 0 -359 -92v273q212 57 417 57q273 0 394 -119.5t121 -388.5v-639h-325v166q-65 -102 -146 -148.5t-197 -46.5q-157 0 -254.5 101.5t-97.5 281zM252 1638h254l254 -376h-176zM404 354 q0 -68 41 -106.5t123 -38.5t144 72.5t62 181.5v41h-167q-203 0 -203 -150z" />
<glyph unicode="&#xe1;" horiz-adv-x="1243" d="M79 353.5q0 179.5 122 271.5t383 92h190v28q0 85 -60.5 124.5t-187.5 39.5q-205 0 -359 -92v273q212 57 417 57q273 0 394 -119.5t121 -388.5v-639h-325v166q-65 -102 -146 -148.5t-197 -46.5q-157 0 -254.5 101.5t-97.5 281zM404 354q0 -68 41 -106.5t123 -38.5 t144 72.5t62 181.5v41h-167q-203 0 -203 -150zM495 1262l254 376h255l-332 -376h-177z" />
<glyph unicode="&#xe2;" horiz-adv-x="1243" d="M79 353.5q0 179.5 122 271.5t383 92h190v28q0 85 -60.5 124.5t-187.5 39.5q-205 0 -359 -92v273q212 57 417 57q273 0 394 -119.5t121 -388.5v-639h-325v166q-65 -102 -146 -148.5t-197 -46.5q-157 0 -254.5 101.5t-97.5 281zM289 1262l230 376h218l230 -376h-160 l-179 225l-179 -225h-160zM404 354q0 -68 41 -106.5t123 -38.5t144 72.5t62 181.5v41h-167q-203 0 -203 -150z" />
<glyph unicode="&#xe3;" horiz-adv-x="1243" d="M79 353.5q0 179.5 122 271.5t383 92h190v28q0 85 -60.5 124.5t-187.5 39.5q-205 0 -359 -92v273q212 57 417 57q273 0 394 -119.5t121 -388.5v-639h-325v166q-65 -102 -146 -148.5t-197 -46.5q-157 0 -254.5 101.5t-97.5 281zM315 1309q0 136 46 210t130 74q65 0 135 -57 l55 -43q41 -31 66 -31q69 0 69 121v8h125q0 -136 -46.5 -210t-129.5 -74q-62 0 -135 57l-50 37q-56 37 -74 37q-66 0 -66 -121v-8h-125zM404 354q0 -68 41 -106.5t123 -38.5t144 72.5t62 181.5v41h-167q-203 0 -203 -150z" />
<glyph unicode="&#xe4;" horiz-adv-x="1243" d="M79 353.5q0 179.5 122 271.5t383 92h190v28q0 85 -60.5 124.5t-187.5 39.5q-205 0 -359 -92v273q212 57 417 57q273 0 394 -119.5t121 -388.5v-639h-325v166q-65 -102 -146 -148.5t-197 -46.5q-157 0 -254.5 101.5t-97.5 281zM344 1339v246h212v-246h-212zM404 354 q0 -68 41 -106.5t123 -38.5t144 72.5t62 181.5v41h-167q-203 0 -203 -150zM700 1339v246h211v-246h-211z" />
<glyph unicode="&#xe5;" horiz-adv-x="1243" d="M79 353.5q0 179.5 122 271.5t383 92h190v28q0 85 -60.5 124.5t-187.5 39.5q-205 0 -359 -92v273q212 57 417 57q273 0 394 -119.5t121 -388.5v-639h-325v166q-65 -102 -146 -148.5t-197 -46.5q-157 0 -254.5 101.5t-97.5 281zM371 1534q0 118 75.5 201.5t181.5 83.5 t181 -83.5t75 -201.5t-75 -201.5t-181 -83.5t-181.5 83.5t-75.5 201.5zM404 354q0 -68 41 -106.5t123 -38.5t144 72.5t62 181.5v41h-167q-203 0 -203 -150zM510 1533.5q0 -54.5 34.5 -92.5t83.5 -38t83.5 38.5t34.5 92.5t-35 92.5t-84 38.5t-83 -38.5t-34 -93z" />
<glyph unicode="&#xe6;" horiz-adv-x="1931" d="M79 350.5q0 182.5 122 274.5t383 92h190v28q0 85 -60.5 124.5t-187.5 39.5q-205 0 -359 -92v273q218 57 395 57q269 0 395 -156q140 156 370.5 156t373 -159t142.5 -425v-102h-754q26 -252 279 -252q204 0 428 135v-276q-232 -97 -458 -97q-161 0 -280 53.5t-184 153.5 q-91 -107 -191.5 -157t-225.5 -50q-174 0 -276 98.5t-102 281zM404 354q0 -68 41 -106.5t123 -38.5t144 72.5t62 181.5v41h-167q-203 0 -203 -150zM1095 682h416q0 102 -53.5 164.5t-143 62.5t-147 -58.5t-72.5 -168.5z" />
<glyph unicode="&#xe7;" horiz-adv-x="1092" d="M79 559q0 277 154 432.5t427 155.5q157 0 309 -62v-292q-127 98 -265.5 98t-213.5 -87.5t-75 -244.5t75 -244.5t219.5 -87.5t259.5 99v-293q-150 -62 -309 -62q-273 0 -427 155.5t-154 432.5zM402 -223q87 -31 149 -31q111 0 111 91q0 45 -79 163h125q102 -122 102 -216 q0 -185 -226 -185q-87 0 -181 26z" />
<glyph unicode="&#xe8;" horiz-adv-x="1250" d="M79 556.5q0 276.5 149 433.5t398.5 157t392 -159t142.5 -425v-102h-753q22 -252 278 -252q205 0 427 135v-276q-230 -97 -457 -97q-274 0 -425.5 154.5t-151.5 431zM280 1638h254l254 -376h-176zM411 682h419q0 102 -53.5 164.5t-143.5 62.5t-148.5 -58.5t-73.5 -168.5z " />
<glyph unicode="&#xe9;" horiz-adv-x="1250" d="M79 556.5q0 276.5 149 433.5t398.5 157t392 -159t142.5 -425v-102h-753q22 -252 278 -252q205 0 427 135v-276q-230 -97 -457 -97q-274 0 -425.5 154.5t-151.5 431zM411 682h419q0 102 -53.5 164.5t-143.5 62.5t-148.5 -58.5t-73.5 -168.5zM523 1262l254 376h255 l-332 -376h-177z" />
<glyph unicode="&#xea;" horiz-adv-x="1250" d="M79 556.5q0 276.5 149 433.5t398.5 157t392 -159t142.5 -425v-102h-753q22 -252 278 -252q205 0 427 135v-276q-230 -97 -457 -97q-274 0 -425.5 154.5t-151.5 431zM317 1262l230 376h218l230 -376h-160l-179 225l-179 -225h-160zM411 682h419q0 102 -53.5 164.5 t-143.5 62.5t-148.5 -58.5t-73.5 -168.5z" />
<glyph unicode="&#xeb;" horiz-adv-x="1250" d="M79 556.5q0 276.5 149 433.5t398.5 157t392 -159t142.5 -425v-102h-753q22 -252 278 -252q205 0 427 135v-276q-230 -97 -457 -97q-274 0 -425.5 154.5t-151.5 431zM372 1339v246h212v-246h-212zM411 682h419q0 102 -53.5 164.5t-143.5 62.5t-148.5 -58.5t-73.5 -168.5z M728 1339v246h211v-246h-211z" />
<glyph unicode="&#xec;" horiz-adv-x="631" d="M-38 1638h254l254 -376h-176zM155 0v1120h322v-1120h-322z" />
<glyph unicode="&#xed;" horiz-adv-x="631" d="M155 0v1120h322v-1120h-322zM205 1262l254 376h255l-332 -376h-177z" />
<glyph unicode="&#xee;" horiz-adv-x="631" d="M-24 1262l230 376h218l230 -376h-160l-179 225l-179 -225h-160zM155 0v1120h322v-1120h-322z" />
<glyph unicode="&#xef;" horiz-adv-x="631" d="M31 1339v246h212v-246h-212zM155 0v1120h322v-1120h-322zM387 1339v246h211v-246h-211z" />
<glyph unicode="&#xf0;" horiz-adv-x="1266" d="M79 559q0 231 135.5 363.5t373.5 132.5q80 0 144 -27l-171 219l-336 -119l-33 129l276 97l-169 202h317l100 -116l338 114l31 -129l-283 -96l184 -229q106 -136 153.5 -264.5t47.5 -276.5q0 -276 -146 -432t-406.5 -156t-408 156t-147.5 432zM415 529.5 q0 -134.5 58.5 -218.5t162.5 -84t159.5 85.5t55.5 246.5q0 94 -23 184q-100 54 -199.5 54t-156.5 -66.5t-57 -201z" />
<glyph unicode="&#xf1;" horiz-adv-x="1312" d="M155 0v1120h322v-164q142 191 326 191q365 0 365 -465v-682h-324v522q0 233 -22 274q-44 81 -137 81t-150.5 -86.5t-57.5 -239.5v-551h-322zM366 1309q0 136 46 210t130 74q65 0 135 -57l55 -43q41 -31 66 -31q69 0 69 121v8h125q0 -136 -46.5 -210t-129.5 -74 q-62 0 -135 57l-50 37q-56 37 -74 37q-66 0 -66 -121v-8h-125z" />
<glyph unicode="&#xf2;" horiz-adv-x="1266" d="M79 559q0 276 147.5 432t408 156t406.5 -156t146 -432t-146 -432t-406.5 -156t-408 156t-147.5 432zM279 1638h254l254 -376h-176zM415 559q0 -161 56 -246.5t162.5 -85.5t162 85.5t55.5 246.5t-55.5 246.5t-162 85.5t-162.5 -85.5t-56 -246.5z" />
<glyph unicode="&#xf3;" horiz-adv-x="1266" d="M79 559q0 276 147.5 432t408 156t406.5 -156t146 -432t-146 -432t-406.5 -156t-408 156t-147.5 432zM415 559q0 -161 56 -246.5t162.5 -85.5t162 85.5t55.5 246.5t-55.5 246.5t-162 85.5t-162.5 -85.5t-56 -246.5zM522 1262l254 376h255l-332 -376h-177z" />
<glyph unicode="&#xf4;" horiz-adv-x="1266" d="M79 559q0 276 147.5 432t408 156t406.5 -156t146 -432t-146 -432t-406.5 -156t-408 156t-147.5 432zM294 1262l230 376h218l230 -376h-160l-179 225l-179 -225h-160zM415 559q0 -161 56 -246.5t162.5 -85.5t162 85.5t55.5 246.5t-55.5 246.5t-162 85.5t-162.5 -85.5 t-56 -246.5z" />
<glyph unicode="&#xf5;" horiz-adv-x="1266" d="M79 559q0 276 147.5 432t408 156t406.5 -156t146 -432t-146 -432t-406.5 -156t-408 156t-147.5 432zM319 1309q0 136 46 210t130 74q65 0 135 -57l55 -43q41 -31 66 -31q69 0 69 121v8h125q0 -136 -46.5 -210t-129.5 -74q-62 0 -135 57l-50 37q-56 37 -74 37 q-66 0 -66 -121v-8h-125zM415 559q0 -161 56 -246.5t162.5 -85.5t162 85.5t55.5 246.5t-55.5 246.5t-162 85.5t-162.5 -85.5t-56 -246.5z" />
<glyph unicode="&#xf6;" horiz-adv-x="1266" d="M79 559q0 276 147.5 432t408 156t406.5 -156t146 -432t-146 -432t-406.5 -156t-408 156t-147.5 432zM348 1339v246h212v-246h-212zM415 559q0 -161 56 -246.5t162.5 -85.5t162 85.5t55.5 246.5t-55.5 246.5t-162 85.5t-162.5 -85.5t-56 -246.5zM704 1339v246h211v-246 h-211z" />
<glyph unicode="&#xf7;" horiz-adv-x="1544" d="M195 524v236h1154v-236h-1154zM634 86v309h277v-309h-277zM634 889v309h277v-309h-277z" />
<glyph unicode="&#xf8;" horiz-adv-x="1266" d="M70 0l131 158q-122 156 -122 416.5t147.5 416.5t407.5 156q190 0 324 -88l133 158l98 -101l-127 -149q125 -159 125 -421.5t-146 -418.5t-407 -156q-190 0 -330 90l-133 -155zM415 559q0 -83 13 -133l342 410q-51 55 -147 55t-152 -85.5t-56 -246.5zM492 287 q56 -60 152 -60t151.5 85.5t55.5 246.5q0 81 -12 139z" />
<glyph unicode="&#xf9;" horiz-adv-x="1312" d="M144 436v684h324v-112l-2 -412q0 -231 24 -273q45 -81 137.5 -81t150 86t57.5 239v553h322v-1120h-322v162q-142 -191 -325 -191t-274.5 119t-91.5 346zM303 1638h254l254 -376h-176z" />
<glyph unicode="&#xfa;" horiz-adv-x="1312" d="M144 436v684h324v-112l-2 -412q0 -231 24 -273q45 -81 137.5 -81t150 86t57.5 239v553h322v-1120h-322v162q-142 -191 -325 -191t-274.5 119t-91.5 346zM546 1262l254 376h255l-332 -376h-177z" />
<glyph unicode="&#xfb;" horiz-adv-x="1312" d="M144 436v684h324v-112l-2 -412q0 -231 24 -273q45 -81 137.5 -81t150 86t57.5 239v553h322v-1120h-322v162q-142 -191 -325 -191t-274.5 119t-91.5 346zM313 1262l230 376h218l230 -376h-160l-179 225l-179 -225h-160z" />
<glyph unicode="&#xfc;" horiz-adv-x="1312" d="M144 436v684h324v-112l-2 -412q0 -231 24 -273q45 -81 137.5 -81t150 86t57.5 239v553h322v-1120h-322v162q-142 -191 -325 -191t-274.5 119t-91.5 346zM368 1339v246h212v-246h-212zM724 1339v246h211v-246h-211z" />
<glyph unicode="&#xfd;" horiz-adv-x="1201" d="M22 1120h323l271 -760l230 760h322l-424 -1226q-64 -187 -149 -261.5t-224 -74.5h-187v235h101q82 0 119.5 29t58.5 104l9 31zM468 1262l254 376h255l-332 -376h-177z" />
<glyph unicode="&#xfe;" horiz-adv-x="1319" d="M155 -426v1982h322v-600q131 191 325.5 191t314.5 -164.5t120 -423.5t-120 -423.5t-314.5 -164.5t-325.5 191v-588h-322zM477 559q0 -159 55.5 -243.5t159 -84.5t158 84t54.5 244t-54.5 244t-158 84t-159 -84.5t-55.5 -243.5z" />
<glyph unicode="&#xff;" horiz-adv-x="1201" d="M22 1120h323l271 -760l230 760h322l-424 -1226q-64 -187 -149 -261.5t-224 -74.5h-187v235h101q82 0 119.5 29t58.5 104l9 31zM317 1339v246h212v-246h-212zM673 1339v246h211v-246h-211z" />
<glyph unicode="&#x152;" horiz-adv-x="2151" d="M92 747.5q0 360.5 213 554t611 193.5l65 -2h1015v-291h-588v-278h553v-291h-553v-342h609v-291h-1036l-65 -2q-398 0 -611 194.5t-213 555zM450 746.5q0 -455.5 518 -455.5h94v911h-94q-518 0 -518 -455.5z" />
<glyph unicode="&#x153;" horiz-adv-x="2016" d="M79 559q0 276 147.5 432t395.5 156t391 -168q74 87 163.5 127.5t211.5 40.5q250 0 395 -157t145 -427v-102h-754q24 -252 279 -252q205 0 427 135v-276q-228 -97 -457 -97q-149 0 -245 40.5t-161 127.5q-148 -168 -395.5 -168t-395 156t-147.5 432zM415 559 q0 -161 56 -246.5t162.5 -85.5t162 85.5t55.5 246.5t-55.5 246.5t-162 85.5t-162.5 -85.5t-56 -246.5zM1178 682h419q0 102 -53.5 164.5t-143.5 62.5t-149 -58.5t-73 -168.5z" />
<glyph unicode="&#x178;" horiz-adv-x="1334" d="M-18 1493h379l306 -532l306 532h380l-512 -864v-629h-347v629zM384 1653v246h211v-246h-211zM739 1653v246h212v-246h-212z" />
<glyph unicode="&#x2c6;" horiz-adv-x="921" d="M122 1262l230 376h218l230 -376h-160l-179 225l-179 -225h-160z" />
<glyph unicode="&#x2dc;" horiz-adv-x="921" d="M148 1309q0 136 46 210t130 74q65 0 135 -57l55 -43q41 -31 66 -31q69 0 69 121v8h125q0 -136 -46.5 -210t-129.5 -74q-62 0 -135 57l-50 37q-56 37 -74 37q-66 0 -66 -121v-8h-125z" />
<glyph unicode="&#x2000;" horiz-adv-x="953" />
<glyph unicode="&#x2001;" horiz-adv-x="1907" />
<glyph unicode="&#x2002;" horiz-adv-x="953" />
<glyph unicode="&#x2003;" horiz-adv-x="1907" />
<glyph unicode="&#x2004;" horiz-adv-x="635" />
<glyph unicode="&#x2005;" horiz-adv-x="476" />
<glyph unicode="&#x2006;" horiz-adv-x="317" />
<glyph unicode="&#x2007;" horiz-adv-x="317" />
<glyph unicode="&#x2008;" horiz-adv-x="238" />
<glyph unicode="&#x2009;" horiz-adv-x="381" />
<glyph unicode="&#x200a;" horiz-adv-x="105" />
<glyph unicode="&#x2010;" horiz-adv-x="765" d="M100 444v291h565v-291h-565z" />
<glyph unicode="&#x2011;" horiz-adv-x="765" d="M100 444v291h565v-291h-565z" />
<glyph unicode="&#x2012;" horiz-adv-x="765" d="M100 444v291h565v-291h-565z" />
<glyph unicode="&#x2013;" horiz-adv-x="921" d="M99 432v258h724v-258h-724z" />
<glyph unicode="&#x2014;" horiz-adv-x="1843" d="M99 432v258h1645v-258h-1645z" />
<glyph unicode="&#x2018;" horiz-adv-x="700" d="M190 856v285l204 352h192l-90 -352v-285h-306z" />
<glyph unicode="&#x2019;" horiz-adv-x="700" d="M116 856l90 352v285h306v-285l-204 -352h-192z" />
<glyph unicode="&#x201a;" horiz-adv-x="700" d="M132 -250l91 352v285h306v-285l-207 -352h-190z" />
<glyph unicode="&#x201c;" horiz-adv-x="1211" d="M190 856v285l204 352h192l-90 -352v-285h-306zM645 856v283l205 354h191l-90 -354v-283h-306z" />
<glyph unicode="&#x201d;" horiz-adv-x="1211" d="M169 856l91 352v285h306v-285l-205 -352h-192zM625 856l91 350v287h306v-287l-206 -350h-191z" />
<glyph unicode="&#x201e;" horiz-adv-x="1211" d="M132 -250l91 352v285h306v-285l-207 -352h-190zM588 -250l91 350v287h306v-287l-206 -350h-191z" />
<glyph unicode="&#x2022;" horiz-adv-x="1178" d="M266 762q0 153 93 254q98 104 231 104q134 0 228 -104q95 -105 95 -254q0 -151 -95 -256t-230 -105q-134 0 -229 105q-93 105 -93 256z" />
<glyph unicode="&#x2026;" horiz-adv-x="1843" d="M146 0v387h324v-387h-324zM760 0v387h324v-387h-324zM1373 0v387h324v-387h-324z" />
<glyph unicode="&#x202f;" horiz-adv-x="381" />
<glyph unicode="&#x2039;" horiz-adv-x="759" d="M142 506v186l444 371v-242l-264 -221l264 -221v-242z" />
<glyph unicode="&#x203a;" horiz-adv-x="759" d="M174 137v242l262 221l-262 221v242l443 -371v-186z" />
<glyph unicode="&#x205f;" horiz-adv-x="476" />
<glyph unicode="&#x20ac;" d="M-35 477l79 195h88q-2 28 -2 73.5t2 75.5h-167l79 195h116q70 246 230.5 375t378.5 129t390 -111v-309q-147 157 -327 157q-234 0 -316 -241h485l-78 -195h-443q-3 -24 -3 -69.5t2 -79.5h386l-80 -195h-269q90 -244 316 -244q177 0 327 158v-309q-172 -111 -390 -111 t-379.5 130.5t-229.5 375.5h-195z" />
<glyph unicode="&#x2122;" horiz-adv-x="1843" d="M266 1350v143h466v-143h-157v-435h-155v435h-154zM833 915v578h205l107 -227l107 227h204v-578h-153v437l-123 -256h-68l-124 256v-437h-155z" />
<glyph unicode="&#xe000;" horiz-adv-x="1120" d="M0 0v1120h1120v-1120h-1120z" />
</font>
</defs>
</svg>
