<?xml version="1.0" standalone="no"?>
<!DOCTYPE svg PUBLIC "-//W3C//DTD SVG 1.1//EN" "http://www.w3.org/Graphics/SVG/1.1/DTD/svg11.dtd" >
<svg xmlns="http://www.w3.org/2000/svg">
<metadata></metadata>
<defs>
<font id="rokkittbook" horiz-adv-x="0" >
<font-face units-per-em="2048" ascent="1638" descent="-410" />
<missing-glyph horiz-adv-x="430" />
<glyph unicode="&#xfb01;" horiz-adv-x="1029" d="M795 979q-46 0 -73.5 23t-27.5 64q0 40 26.5 62.5t74.5 23.5q31 1 56.5 -26t25.5 -60q0 -34 -25 -60.5t-57 -26.5zM486 963q0 90 -70 90q-80 0 -80 -119v-129h525v-689h136v-116h-420v116h135v573h-376v-573h162v-116h-433v116h120v573h-129v116h129v138q0 167 138 213 q67 22 130.5 12.5t101.5 -44.5q61 -54 61 -161h-130z" />
<glyph unicode="&#xfb02;" horiz-adv-x="1009" d="M416 1037q-48 0 -64 -24t-16 -79v-129h173v-116h-173v-573h136v-116h-407v116h120v573h-129v116h129v138q0 210 233 210h426v-1037h133v-116h-416v116h134v921h-279z" />
<glyph unicode="ff" horiz-adv-x="1092" d="M722 943q0 107 60.5 167.5t170.5 60.5q95 0 147.5 -55.5t52.5 -152.5h-130q0 90 -70 90q-80 0 -80 -119v-129h178v-116h-178v-573h159v-116h-434v116h124v573h-386v-573h159v-116h-434v116h124v573h-129v116h129v138q0 107 60.5 167.5t170.5 60.5q95 0 147.5 -55.5 t52.5 -152.5h-130q0 90 -70 90q-80 0 -80 -119v-129h386v138z" />
<glyph unicode="ffi" horiz-adv-x="1558" d="M723 943q0 107 60.5 167.5t170.5 60.5q95 0 147.5 -55.5t52.5 -152.5h-130q0 90 -70 90q-80 0 -80 -119v-129h534v-689h136v-116h-391v116h106v573h-385v-573h159v-116h-417v116h107v573h-387v-573h159v-116h-434v116h124v573h-129v116h129v138q0 107 60.5 167.5 t170.5 60.5q95 0 147.5 -55.5t52.5 -152.5h-130q0 90 -70 90q-80 0 -80 -119v-129h387v138zM1241 1066q0 40 27 63t75 23q31 0 56 -27t25 -59q0 -34 -25 -60.5t-57 -26.5q-46 0 -73.5 23t-27.5 64z" />
<glyph unicode="fj" horiz-adv-x="971" d="M690 1066q0 37 26.5 62t65.5 25t65.5 -25t26.5 -62t-26.5 -62t-65.5 -25t-65.5 25t-26.5 62zM185 943q0 107 60.5 167.5t170.5 60.5q95 0 147.5 -55.5t52.5 -152.5h-130q0 90 -70 90q-80 0 -80 -119v-129h525v-786q0 -182 -59.5 -252t-223.5 -70h-91v124h107 q69 0 92.5 42t23.5 129v697h-374v-573h159v-116h-434v116h124v573h-129v116h129v138z" />
<glyph unicode="ffl" horiz-adv-x="1548" d="M725 992q-74 62 -224 62q-73 0 -119 -28.5t-46 -91.5v-129h387v138q0 17 2 49zM1129 0v116h128v924q-102 18 -222 18q-76 0 -118.5 -27t-42.5 -97v-129h160v-116h-160v-573h159v-116h-434v116h124v573h-387v-573h159v-116h-434v116h124v573h-129v116h129v138 q0 114 95 171.5t232 57.5q76 0 147.5 -19.5t119.5 -53.5q75 75 277 75q79 0 185 -10.5t165 -21.5v-1026h141v-116h-418z" />
<glyph unicode=" "  horiz-adv-x="430" />
<glyph unicode="&#x09;" horiz-adv-x="430" />
<glyph unicode="&#xa0;" horiz-adv-x="430" />
<glyph unicode="!" horiz-adv-x="466" d="M127 212h212v-212h-212v212zM147 821v350h172v-350l-42 -497h-88z" />
<glyph unicode="&#x22;" horiz-adv-x="665" d="M234 756h-130l-45 415h217zM557 756h-130l-45 415h217z" />
<glyph unicode="#" horiz-adv-x="1186" d="M408 442h327l30 291h-326zM236 0l32 333h-178l12 109h182l33 291h-207l12 111h211l34 327h123l-34 -327h325l38 327h123l-37 -327h197l-12 -111h-201l-29 -291h222l-12 -109h-226l-35 -333h-121l31 333h-327l-35 -333h-121z" />
<glyph unicode="$" horiz-adv-x="940" d="M411 1030q-72 -11 -119.5 -50.5t-47.5 -101.5q0 -81 41.5 -119.5t125.5 -63.5v335zM542 117q89 6 146.5 55t57.5 134q0 43 -15 75.5t-45.5 54.5t-63 35.5t-80.5 27.5v-382zM88 854q0 142 89 223.5t234 91.5v136h131v-144q93 -22 171 -82v74h135v-327h-135v82 q-72 100 -171 119v-365q368 -78 368 -356q0 -142 -106.5 -230.5t-261.5 -92.5v-126h-131v139q-100 23 -180 91v-87h-135v387h135v-116q77 -105 180 -138v399q-75 17 -130 40t-100.5 59.5t-69 92.5t-23.5 130z" />
<glyph unicode="%" horiz-adv-x="1579" d="M1258 84q62 0 92 58t30 145q0 203 -126 203q-59 0 -87.5 -58.5t-28.5 -144.5q0 -203 120 -203zM1259 594q119 0 189.5 -84t70.5 -217v-6q1 -137 -68.5 -221.5t-191.5 -84.5q-120 0 -189 82.5t-71 223.5q-1 137 68.5 222t191.5 85zM1223 1196l61 -50l-943 -1196l-68 50z M326 660q62 0 91.5 57.5t29.5 145.5q0 203 -126 203q-59 0 -87.5 -58.5t-28.5 -144.5q2 -203 121 -203zM326 1170q120 0 190 -85.5t70 -221.5q0 -137 -69.5 -221.5t-190.5 -84.5q-120 0 -190 82.5t-70 223.5q0 136 69.5 221.5t190.5 85.5z" />
<glyph unicode="&#x26;" horiz-adv-x="1201" d="M494 720q44 23 68.5 38t56 41t46 57t14.5 70q0 59 -40.5 89t-106.5 30q-62 0 -104.5 -28.5t-42.5 -80.5q0 -27 5.5 -50.5t18.5 -47t22.5 -37.5t31.5 -41.5t31 -39.5zM210 335q0 -99 79 -159t193 -60q126 0 238 103l-282 354q-228 -79 -228 -238zM245 916q0 110 86 183 t203 73q114 0 196.5 -68.5t82.5 -173.5q0 -203 -247 -309l240 -289q75 101 107 251h230v-127h-129q-49 -149 -128 -233l73 -98h184v-125h-260l-86 115q-167 -134 -341 -134q-166 0 -283 96t-117 248q0 234 306 345q-117 148 -117 246z" />
<glyph unicode="'" horiz-adv-x="337" d="M242 756h-130l-45 415h217z" />
<glyph unicode="(" horiz-adv-x="522" d="M476 -132q-442 181 -442 650q0 124 33.5 229.5t95 184t139.5 136t174 97.5v-128q-281 -168 -281 -520q0 -354 281 -518v-131z" />
<glyph unicode=")" horiz-adv-x="522" d="M34 1165q442 -183 442 -647q0 -123 -34 -229.5t-95 -185.5t-139 -137.5t-174 -97.5v131q281 164 281 518q0 352 -281 520v128z" />
<glyph unicode="*" horiz-adv-x="916" d="M282 351l-141 99l96 132l174 147l-228 14l-151 54l50 163l155 -51l200 -126l-58 230v158h169v-158l-60 -230l200 126l156 51l50 -163l-150 -54l-229 -14l173 -147l95 -132l-139 -99l-96 132l-85 215l-84 -215z" />
<glyph unicode="+" horiz-adv-x="1047" d="M585 602h405v-117h-405v-392h-124v392h-404v117h404v392h124v-392z" />
<glyph unicode="," horiz-adv-x="414" d="M313 211v-211q1 -122 -52.5 -179.5t-168.5 -57.5h-6v87q67 14 94 45.5t27 104.5h-121v211h227z" />
<glyph unicode="-" horiz-adv-x="719" d="M101 484h517v-144h-517v144z" />
<glyph unicode="." horiz-adv-x="414" d="M313 211v-211h-227v211h227z" />
<glyph unicode="/" horiz-adv-x="793" d="M563 1171h129l-434 -1189h-129z" />
<glyph unicode="0" horiz-adv-x="1004" d="M501 1051q-260 0 -260 -475q0 -91 6.5 -159.5t23.5 -129.5t45.5 -100t74 -62t107.5 -24q66 0 114.5 25t77.5 65.5t46 104t22.5 128.5t5.5 151q0 85 -6 150.5t-23 129t-45.5 104.5t-76 66.5t-112.5 25.5zM502 1171q111 0 193 -46.5t129.5 -129.5t70 -187t22.5 -231 q-2 -595 -415 -595q-111 0 -193 46.5t-129.5 130t-70 187.5t-22.5 231q0 594 415 594z" />
<glyph unicode="1" horiz-adv-x="584" d="M534 116v-116h-469v116h166v921h-174v116h323v-1037h154z" />
<glyph unicode="2" horiz-adv-x="936" d="M666 860q0 89 -57.5 133.5t-161.5 44.5q-118 0 -163 -71.5t-45 -216.5v-6h-144q0 213 86.5 320t280.5 107q162 0 266 -83t104 -230q0 -72 -30 -136t-79 -113t-109 -94.5t-122.5 -89.5t-116.5 -89t-94.5 -101.5t-52.5 -118.5h472v262h127v-378h-765q0 257 212 442 q30 26 88.5 67t105.5 76t95 79t75.5 94t27.5 102z" />
<glyph unicode="3" horiz-adv-x="953" d="M443 1038q-202 0 -216 -186l-148 1q6 152 103 234.5t269 82.5q167 0 269.5 -78.5t102.5 -227.5q0 -207 -195 -262q113 -21 178.5 -92t65.5 -188q0 -108 -60 -186.5t-154 -116t-208 -37.5h-3q-187 0 -291.5 93t-104.5 271h147q10 -110 71.5 -170t173.5 -60q265 0 265 212 q0 204 -366 204v132q69 0 114 3t89.5 14t69 31t39.5 54t15 84q0 91 -62.5 139.5t-163.5 48.5z" />
<glyph unicode="4" horiz-adv-x="875" d="M483 436v511l-315 -511h315zM774 116v-116h-455v116h164v199h-459v121l463 717h138v-717h190v-121h-190v-199h149z" />
<glyph unicode="5" horiz-adv-x="947" d="M452 109q129 0 195.5 66t66.5 191q0 114 -62 186.5t-167 72.5q-134 0 -247 -113l-83 45v596h645v-237h-138v121h-379q-6 -72 -29 -386q81 113 248 113q165 0 268 -111.5t103 -282.5q0 -178 -105 -283t-284 -105q-180 0 -280 89.5t-112 257.5l143 1q17 -95 73 -158 t144 -63z" />
<glyph unicode="6" horiz-adv-x="947" d="M498 -18q-139 0 -233.5 78t-136.5 208.5t-42 306.5q0 100 13.5 186.5t44 163t77 130.5t116.5 85t158 31h2q152 0 249 -88.5t101 -234.5h-137q-9 79 -64 138t-131 59q-74 0 -129.5 -31.5t-87.5 -88.5t-47 -128t-15 -158q101 83 272 83q165 -1 262 -98.5t97 -261.5 q0 -165 -102 -272.5t-267 -107.5zM722 362q0 100 -53.5 165t-149.5 65q-76 0 -153.5 -24t-123.5 -59q5 -66 13 -118.5t26 -106t43.5 -89t67 -57.5t95.5 -22q111 0 173 66.5t62 179.5z" />
<glyph unicode="7" horiz-adv-x="819" d="M293 116q0 259 96 505.5t252 414.5h-453v-176h-137v293h758v-128q-176 -178 -267.5 -399t-91.5 -510h182v-116h-511v116h172z" />
<glyph unicode="8" horiz-adv-x="1007" d="M499 659q102 6 169 55t67 140q0 90 -65.5 136.5t-170.5 46.5q-104 0 -169.5 -45.5t-65.5 -133.5t68 -140.5t167 -58.5zM757 326q0 103 -69.5 155t-188.5 52t-188.5 -52t-69.5 -155q0 -98 74 -154t184 -56t184 56t74 154zM889 867q0 -110 -50 -171t-144 -97 q100 -26 163.5 -96.5t63.5 -174.5q0 -111 -57 -190.5t-151 -117.5t-215 -38q-117 0 -211.5 36.5t-153 113.5t-58.5 183q0 114 60.5 185.5t166.5 98.5q-194 74 -194 268q0 97 54 167t141 103t195 34q108 -1 195 -34t141 -103t54 -167z" />
<glyph unicode="9" horiz-adv-x="949" d="M78 791q0 167 101.5 273.5t267.5 106.5q90 0 160.5 -30t117.5 -82t77.5 -127t44 -161.5t13.5 -188.5q0 -173 -45 -307t-138 -213.5t-222 -79.5q-158 0 -255.5 86.5t-101.5 236.5h137q13 -88 64 -143.5t143 -55.5q267 0 267 428q-104 -104 -273 -104q-165 0 -261.5 98 t-96.5 263zM703 694q-17 173 -71 257.5t-177 84.5q-109 0 -170.5 -67t-61.5 -178q0 -97 55 -158t154 -61q76 0 153 37.5t118 84.5z" />
<glyph unicode=":" horiz-adv-x="414" d="M320 820v-211h-227v211h227zM320 211v-211h-227v211h227z" />
<glyph unicode=";" horiz-adv-x="414" d="M320 820v-211h-227v211h227zM327 211v-211q1 -123 -54 -180.5t-173 -56.5v87q67 14 94 45.5t27 104.5h-121v211h227z" />
<glyph unicode="&#x3c;" horiz-adv-x="1145" d="M133 696v72l879 473v-137l-688 -373l688 -369v-137z" />
<glyph unicode="=" horiz-adv-x="1145" d="M1012 993v-121h-879v121h879zM1012 590v-121h-879v121h879z" />
<glyph unicode="&#x3e;" horiz-adv-x="1145" d="M133 225v137l688 369l-688 373v137l879 -473v-72z" />
<glyph unicode="?" horiz-adv-x="796" d="M452 0h-172v197h172v-197zM392 1170q145 0 245.5 -83t100.5 -219q0 -45 -11.5 -82.5t-35 -66.5t-48 -50t-61.5 -45q-88 -58 -127.5 -121.5t-46.5 -179.5h-95q0 251 128 346q11 8 42 28t44.5 31.5t33 32t27.5 45.5t8 56q0 84 -55.5 136t-139.5 52q-212 0 -212 -201h-135 q0 154 92 237.5t246 83.5z" />
<glyph unicode="@" horiz-adv-x="1418" d="M707 784q-76 0 -130.5 -50.5t-79 -124.5t-24.5 -159q0 -89 42.5 -144.5t125.5 -55.5q71 0 124 59t77 139.5t24 163.5q0 70 -46 121t-113 51zM337 471q0 111 45 207.5t131 157.5t195 61q73 0 125.5 -35t74.5 -96l22 113h136l-110 -510q-15 -70 -15 -79q0 -32 29 -32 q64 0 120.5 61.5t88 148.5t31.5 169q0 189 -135.5 305t-344.5 116q-154 0 -278.5 -75.5t-194 -205.5t-69.5 -287q0 -242 149 -382.5t397 -140.5q250 0 399 114l69 -84q-182 -140 -447 -140q-314 0 -507.5 173.5t-193.5 463.5q0 137 52.5 262t142.5 216.5t216 145.5t267 54 q175 0 310.5 -62t214 -183t78.5 -283q0 -98 -28.5 -188.5t-79.5 -160.5t-129 -112t-170 -42q-90 0 -102 122q-83 -122 -206 -122q-133 0 -208 91t-75 239z" />
<glyph unicode="A" horiz-adv-x="1181" d="M783 545l-155 492h-74l-156 -492h385zM-20 116h138l293 921h-100v116h560v-116h-101l294 -921h137v-116h-453v116h150l-85 308h-445l-84 -308h149v-116h-453v116z" />
<glyph unicode="B" horiz-adv-x="1040" d="M543 661q225 2 225 190q0 186 -249 186h-139v-376h163zM821 332q0 98 -73 149t-196 51h-172v-416h166q275 0 275 216zM988 323q0 -111 -59.5 -185t-156 -106t-225.5 -32h-475v116h148v921h-148v116h486q174 -2 275 -76.5t101 -222.5q0 -83 -44 -149t-117 -98 q98 -33 156.5 -103.5t58.5 -180.5z" />
<glyph unicode="C" horiz-adv-x="1228" d="M658 -18q-274 0 -432 160t-160 433q0 273 161.5 434.5t437.5 161.5h2q214 0 357 -149v131h130v-349h-125q-114 232 -384 232q-186 0 -294 -129t-108 -327q0 -204 110 -334t294 -130q318 0 403 262l135 -71q-62 -150 -196 -237.5t-326 -87.5h-5z" />
<glyph unicode="D" horiz-adv-x="1284" d="M626 1153q277 0 431.5 -143t154.5 -414q0 -596 -600 -596h-540v116h159v921h-159v116h554zM638 116q200 0 304.5 126.5t104.5 338.5q0 218 -106.5 337t-318.5 119h-229v-921h245z" />
<glyph unicode="E" horiz-adv-x="1097" d="M72 0v116h156v921h-156v116h971v-321h-131v205h-525v-382h362v114h100v-359h-101v116h-359v-410h525v212h129v-328h-971z" />
<glyph unicode="F" horiz-adv-x="997" d="M72 0v116h152v921h-152v116h917v-321h-132v205h-473v-380h314v114h100v-359h-101v116h-312v-412h156v-116h-469z" />
<glyph unicode="G" horiz-adv-x="1284" d="M66 575q0 264 161.5 430t425.5 166q238 0 387 -149v131h130v-349h-124q-119 233 -384 233q-194 0 -305.5 -128t-111.5 -333q0 -207 115 -333.5t317 -126.5q182 0 279.5 83.5t102.5 236.5h-227v127h391q0 -289 -136.5 -435t-408.5 -146q-284 0 -448 157t-164 436z" />
<glyph unicode="H" horiz-adv-x="1294" d="M72 0v116h139v921h-139v116h443v-116h-144v-370h551v370h-142v116h442v-116h-139v-921h139v-116h-442v116h143v422h-551v-422h143v-116h-443z" />
<glyph unicode="I" horiz-adv-x="582" d="M77 0v116h134v921h-134v116h428v-116h-132v-921h132v-116h-428z" />
<glyph unicode="J" horiz-adv-x="585" d="M409 99q0 -131 -64.5 -205t-182.5 -73h-147v145h120q64 0 87.5 37t23.5 114v920h-155v116h471v-116h-153v-938z" />
<glyph unicode="K" horiz-adv-x="1135" d="M1129 0h-466v116h128l-408 471v-471h139v-116h-450v116h150v921h-150v116h466v-116h-156v-419l421 419h-136v116h451v-116h-129l-421 -432l430 -489h131v-116z" />
<glyph unicode="L" horiz-adv-x="966" d="M72 0v116h158v921h-158v116h474v-116h-155v-921h410v336h145v-452h-874z" />
<glyph unicode="M" horiz-adv-x="1590" d="M220 1037h-148v116h385l333 -836l338 836h390v-116h-147v-921h147v-116h-428v116h133v907l-415 -1023h-42l-412 1022v-906h133v-116h-415v116h148v921z" />
<glyph unicode="N" horiz-adv-x="1326" d="M1002 1037h-165v116h472v-116h-173v-1037h-183l-578 997v-881h169v-116h-472v116h169v921h-169v116h382l548 -942v826z" />
<glyph unicode="O" horiz-adv-x="1321" d="M660 116q-183 0 -300 133.5t-117 326.5q0 194 116.5 327t300.5 134q185 -1 301.5 -133.5t116.5 -327.5t-116.5 -327.5t-301.5 -132.5zM66 575q0 -171 75 -306t210.5 -211t308.5 -77q173 0 309.5 77t211.5 212.5t75 304.5q0 262 -166 428.5t-431 166.5 q-264 0 -428.5 -166.5t-164.5 -428.5z" />
<glyph unicode="P" horiz-adv-x="1043" d="M836 807q0 109 -59 169.5t-167 60.5h-227v-460h178q140 0 206.5 54.5t68.5 175.5zM1001 805q0 -92 -33 -158t-97 -103.5t-147 -54.5t-193 -17h-146v-356h158v-116h-471v116h151v921h-151v116h536q184 0 288.5 -88.5t104.5 -259.5z" />
<glyph unicode="Q" horiz-adv-x="1323" d="M1079 574q0 196 -116.5 329t-302.5 134q-185 -1 -301 -134.5t-116 -328.5t115.5 -326.5t301.5 -131.5q188 0 303.5 130.5t115.5 327.5zM665 1171q257 0 424.5 -166.5t167.5 -418.5q0 -247 -147.5 -407t-384.5 -184q26 -8 84 -30t106 -34t100 -12q38 0 74 11l1 -148 q-45 -13 -89 -13q-40 0 -79 8t-63 17t-62 26q-120 50 -238 50t-241 -53l-1 137q106 55 195 55q-197 45 -321.5 195t-124.5 369q0 264 166 431t433 167z" />
<glyph unicode="R" horiz-adv-x="1107" d="M623 1153q380 0 380 -298q0 -246 -259 -297l234 -442h146v-116h-253l-283 538h-193v-422h156v-116h-479v116h163v921h-163v116h551zM395 657h223q106 1 162.5 51.5t56.5 148.5q0 88 -62.5 134t-163.5 46h-216v-380z" />
<glyph unicode="S" horiz-adv-x="965" d="M506 116q104 0 173.5 48t69.5 134q0 55 -22.5 94.5t-60.5 62.5t-87.5 39t-104 28.5t-108.5 26t-103.5 37t-87.5 56t-60.5 88t-22.5 128.5q0 146 100.5 229.5t255.5 83.5q151 0 269 -92v74h135v-327h-135v82q-95 129 -251 129q-103 0 -160.5 -44.5t-57.5 -137.5 q0 -47 23 -80.5t61.5 -53.5t88.5 -34.5t105 -28t110 -28.5t105 -41t88.5 -61t61.5 -92.5t23 -132.5q0 -145 -110 -233t-272 -88q-171 0 -297 105v-87h-135v387h135v-116q119 -155 271 -155z" />
<glyph unicode="T" horiz-adv-x="1009" d="M978 1153v-348h-131v232h-259v-921h174v-116h-512v116h175v921h-265v-232h-129v348h947z" />
<glyph unicode="U" horiz-adv-x="1175" d="M580 -18q-200 0 -308 101.5t-108 298.5v655h-148v116h452v-116h-142v-659q0 -136 63.5 -199t197.5 -63q141 0 202 65.5t61 207.5v648h-142v116h451v-116h-147v-657q0 -398 -432 -398z" />
<glyph unicode="V" horiz-adv-x="1207" d="M126 1037h-146v116h455v-116h-141l317 -853l312 853h-141v116h445v-116h-146l-398 -1037h-154z" />
<glyph unicode="W" horiz-adv-x="1758" d="M1492 1037h-144v116h427v-116h-142l-310 -1037h-158l-286 928l-282 -928h-153l-316 1037h-145v116h443v-116h-144l245 -827l240 827h-140v116h519v-116h-139l241 -827z" />
<glyph unicode="X" horiz-adv-x="1150" d="M14 0v116h161l313 466l-309 455h-154v116h462v-116h-135l222 -332l226 332h-140v116h446v-116h-151l-302 -442l328 -479h155v-116h-472v116h139l-236 354l-236 -354h144v-116h-461z" />
<glyph unicode="Y" horiz-adv-x="1129" d="M328 0v116h159v414l-358 507h-149v116h475v-116h-150l274 -389l257 389h-150v116h460v-116h-156l-343 -507v-414h164v-116h-483z" />
<glyph unicode="Z" horiz-adv-x="959" d="M48 0v128l657 909h-498v-204h-129v320h832v-112l-667 -925h548v219h129v-335h-872z" />
<glyph unicode="[" horiz-adv-x="569" d="M541 1262v-109h-251v-1265h251v-107h-394v1481h394z" />
<glyph unicode="\" horiz-adv-x="793" d="M258 1171l434 -1189h-129l-434 1189h129z" />
<glyph unicode="]" horiz-adv-x="569" d="M426 1262v-1481h-394v107h251v1265h-251v109h394z" />
<glyph unicode="^" horiz-adv-x="826" d="M788 605h-151l-222 435l-226 -435h-151l301 566h153z" />
<glyph unicode="_" horiz-adv-x="898" d="M898 -82v-117h-898v117h898z" />
<glyph unicode="`" horiz-adv-x="562" d="M292 914l-187 257h207l99 -257h-119z" />
<glyph unicode="a" horiz-adv-x="889" d="M196 218q0 -58 41 -93.5t109 -35.5q154 0 249 89v174q-21 0 -84 8t-91 8q-110 0 -167 -32.5t-57 -117.5zM338 -18q-116 0 -199 61.5t-83 160.5q-1 144 87.5 205t258.5 61q88 0 193 -20v97q0 149 -186 154q-146 0 -215 -91l-92 98q112 112 302 112q340 0 340 -266v-438 h144v-116h-277l-2 83q-140 -101 -271 -101z" />
<glyph unicode="b" horiz-adv-x="1061" d="M841 396q0 -126 -62 -207.5t-175 -81.5q-182 0 -277 122v335q118 130 260 130q125 0 189.5 -82t64.5 -216zM622 -18q173 0 277.5 119.5t104.5 299.5q-1 181 -105.5 300t-277.5 119q-170 0 -294 -113v446h-294v-116h143v-921h-134v-116h280l4 111q42 -60 123 -94.5 t173 -34.5z" />
<glyph unicode="c" horiz-adv-x="900" d="M464 820q73 0 138 -28.5t90 -78.5l-4 92h133v-288h-129q-46 166 -220 177q-126 0 -190.5 -79t-64.5 -215q0 -134 65.5 -213.5t186.5 -79.5q181 0 272 139l89 -89q-116 -176 -365 -176q-188 0 -298 114.5t-110 312.5q0 179 116 295.5t291 116.5z" />
<glyph unicode="d" horiz-adv-x="1055" d="M485 694q-122 0 -195 -83.5t-73 -210.5q0 -128 73.5 -209.5t196.5 -82.5q62 0 119 27.5t126 86.5v345q-69 66 -127 96.5t-120 30.5zM459 -18q-174 0 -288 115t-114 293q0 182 111 306t285 124q157 0 281 -107v324h-162v116h310v-1037h152v-116h-304l-1 99 q-61 -60 -125 -88.5t-145 -28.5z" />
<glyph unicode="e" horiz-adv-x="949" d="M757 467q-12 101 -79.5 164t-174.5 63q-116 0 -187 -59t-90 -168h531zM505 -18q-195 0 -321.5 116.5t-126.5 303.5q0 181 127.5 299.5t314.5 118.5q189 0 295.5 -125.5t106.5 -329.5h-679q7 -117 83.5 -187t199.5 -71q81 0 153.5 34.5t111.5 91.5l102 -76 q-114 -175 -367 -175z" />
<glyph unicode="f" horiz-adv-x="555" d="M185 943q0 107 60.5 167.5t170.5 60.5q95 0 147.5 -55.5t52.5 -152.5h-130q0 90 -70 90q-80 0 -80 -119v-129h160v-116h-160v-573h159v-116h-434v116h124v573h-129v116h129v138z" />
<glyph unicode="g" horiz-adv-x="1029" d="M731 571q-129 123 -250 123q-122 0 -193 -83t-71 -211q0 -123 73 -199t196 -76q61 0 118 25t127 79v342zM57 398q0 173 110 297.5t276 124.5q163 0 288 -111v96h301v-116h-151v-692q0 -105 -55.5 -178t-146.5 -106t-210 -33q-175 0 -285 67l47 110q104 -53 230 -53 q74 0 132 15t98 54.5t40 99.5v120q-51 -49 -115 -71t-169 -22q-165 0 -277.5 117t-112.5 281z" />
<glyph unicode="h" horiz-adv-x="1024" d="M733 528q0 166 -141 166q-140 0 -270 -87v-491h145v-116h-446v116h152v921h-150v116h299v-427q142 94 304 94q255 0 255 -264v-440h144v-116h-394v116h102v412z" />
<glyph unicode="i" horiz-adv-x="494" d="M60 689v116h284v-689h136v-116h-420v116h135v573h-135zM177 1066q0 40 27 63t75 23q31 0 56 -27t25 -59q0 -34 -25 -60.5t-57 -26.5q-46 0 -73.5 23t-27.5 64z" />
<glyph unicode="j" horiz-adv-x="442" d="M332 19q0 -182 -59.5 -252t-223.5 -70h-91v124h107q69 0 92.5 42t23.5 129v697h-152v116h303v-786zM161 1066q0 37 26.5 62t65.5 25t65.5 -25t26.5 -62t-26.5 -62t-65.5 -25t-65.5 25t-26.5 62z" />
<glyph unicode="k" horiz-adv-x="965" d="M38 0v116h132v921h-153v116h301v-723l322 259h-132v116h447v-116h-139l-325 -274l332 -299h140v-116h-421v116h96l-320 289v-289h105v-116h-385z" />
<glyph unicode="l" horiz-adv-x="479" d="M36 0v116h144v921h-149v116h298v-1037h149v-116h-442z" />
<glyph unicode="m" horiz-adv-x="1553" d="M598 694q-50 0 -96.5 -20t-74 -41.5t-69.5 -61.5v-455h125v-116h-426v116h150v573h-143v116h289l5 -107q146 122 282 122q161 0 218 -140q166 140 291 140q121 0 184 -66.5t63 -185.5v-461h145v-107h-405v107h113v430q0 157 -128 157q-55 0 -128.5 -40.5t-113.5 -92.5 v-445h125v-116h-389v116h112v418q0 160 -129 160z" />
<glyph unicode="n" horiz-adv-x="1031" d="M727 507q0 90 -27 138.5t-98 48.5q-117 0 -245 -124v-454h145v-116h-439v116h143v573h-149v116h296l4 -104q154 119 273 119q117 0 180.5 -69t64.5 -189l-1 -446h145v-116h-402v116h110v391z" />
<glyph unicode="o" horiz-adv-x="967" d="M484 820q186 0 306 -118t120 -300q0 -183 -121 -301.5t-307 -118.5t-305.5 120t-119.5 304q0 180 121.5 297t305.5 117zM750 401q0 126 -73.5 209.5t-194.5 83.5q-120 0 -193 -83.5t-73 -209.5t73.5 -209.5t192.5 -84.5q120 1 194 84t74 210z" />
<glyph unicode="p" horiz-adv-x="1017" d="M805 396q0 132 -70 215t-195 83t-248 -123v-360q134 -104 255 -104q123 0 190.5 80t67.5 209zM292 87v-266h165v-124h-465v124h153v868h-141v116h280l8 -107q60 62 125.5 92t151.5 30q173 0 282 -120.5t109 -299.5q0 -183 -110.5 -300.5t-283.5 -117.5q-86 0 -150.5 25.5 t-123.5 79.5z" />
<glyph unicode="q" horiz-adv-x="1027" d="M211 398q0 -129 70 -210t194 -81q142 0 255 122v335q-123 130 -257 130q-127 0 -194.5 -81.5t-67.5 -214.5zM57 402q0 180 107 299t282 119q179 0 284 -121l3 106h289v-116h-142v-868h152v-124h-464v124h162v269q-104 -108 -277 -108q-175 0 -285.5 120t-110.5 300z" />
<glyph unicode="r" horiz-adv-x="748" d="M346 630q47 98 113 139t178 41q51 0 92 -5v-124q-78 2 -99 2q-134 0 -194 -77t-62 -226v-264h176v-116h-487v116h161v573h-167v116h289v-175z" />
<glyph unicode="s" horiz-adv-x="832" d="M765 228q0 -117 -88 -181.5t-222 -64.5q-71 0 -134 23.5t-98 64.5v-70h-133v272h133v-69q26 -43 81 -73t125 -30q183 0 183 117q1 30 -13.5 51t-46 33.5t-57.5 18t-72 12.5q-68 10 -115 21t-91.5 29.5t-71 44.5t-42 65.5t-15.5 91.5q0 106 87.5 171t201.5 65 q115 0 213 -80v65h129v-256h-129v67q-71 86 -199 86q-65 0 -113.5 -26t-48.5 -74q0 -26 8 -44.5t19.5 -29.5t36 -19.5t44 -12.5t56.5 -10q64 -10 103 -18t87.5 -21.5t77 -31t55 -43.5t38 -62t11.5 -82z" />
<glyph unicode="t" horiz-adv-x="535" d="M357 0q-70 0 -113.5 17t-65.5 57.5t-29.5 91t-7.5 134.5v389h-124v116h124v258l151 32v-290h173v-116h-173v-400v-14v-42.5t1.5 -34.5t5 -30t9.5 -21.5t15 -17.5t22.5 -9t31.5 -4h118v-116h-138z" />
<glyph unicode="u" horiz-adv-x="964" d="M416 107q134 0 244 143v439h-145v116h296v-689h146v-116h-292l-5 100q-124 -118 -272 -118q-249 0 -249 279v428h-120v116h272v-537q0 -161 125 -161z" />
<glyph unicode="v" horiz-adv-x="944" d="M414 0l-292 689h-132v116h411v-116h-122l202 -527l191 527h-120v116h402v-116h-133l-271 -689h-136z" />
<glyph unicode="w" horiz-adv-x="1386" d="M97 689h-104v116h354v-116h-110l167 -532l177 532h-95v116h398v-116h-95l181 -543l167 543h-120v116h376v-116h-122l-234 -689h-142l-206 622l-211 -622h-143z" />
<glyph unicode="x" horiz-adv-x="959" d="M23 0v116h126l255 297l-243 276h-119v116h390v-116h-115l164 -189l158 189h-97v116h390v-116h-137l-235 -276l260 -297h116v-116h-396v116h127l-186 211l-173 -211h116v-116h-401z" />
<glyph unicode="y" horiz-adv-x="958" d="M665 689h-115v116h413v-116h-129l-228 -653q-18 -53 -30.5 -88t-32 -76t-38.5 -67t-46.5 -52t-59 -40.5t-74 -23.5t-93.5 -9h-86v133h74q65 0 103 15t58 43.5t42 86.5l32 85h-82l-264 646h-125v116h406v-116h-124l219 -549z" />
<glyph unicode="z" horiz-adv-x="821" d="M68 0v116l493 573h-337v-152h-121v268h640v-122l-495 -567h392v160h128v-276h-700z" />
<glyph unicode="{" horiz-adv-x="528" d="M327 868q0 -68 -1 -102.5t-4.5 -81.5t-12 -71.5t-23.5 -53t-38 -48t-56 -36.5q75 -41 104.5 -113t29.5 -196q0 -134 2 -164q3 -68 39 -86.5t125 -18.5v-120h-73h-3q-65 0 -109.5 18t-69.5 45.5t-38.5 78t-17 98t-3.5 122.5q0 57 -2 90.5t-9.5 72.5t-22.5 59.5t-42.5 34.5 t-67.5 14h-4v129q45 0 75.5 17t45.5 49.5t21 70.5t6 91v78q0 81 9 135.5t33.5 100.5t72.5 68t121 22h4h74v-119q-40 0 -66.5 -3t-45.5 -12.5t-29 -20.5t-16 -35.5t-7 -47.5t-1 -65z" />
<glyph unicode="|" horiz-adv-x="404" d="M141 1153h122v-1249h-122v1249z" />
<glyph unicode="}" horiz-adv-x="528" d="M104 1171q65 0 109.5 -15.5t70 -41t39 -75t17.5 -100t4 -133.5q0 -56 2 -91t10.5 -72.5t24 -57.5t43.5 -33t68 -13v-129q-88 0 -118 -59t-30 -174v-87q0 -78 -9.5 -131t-34.5 -96.5t-73 -64.5t-120 -21h-4h-73v120q88 0 124 17.5t40 83.5q2 29 2 121q0 159 25 235 t109 121q-83 43 -109 117.5t-26 219.5v76q0 54 -4 80.5t-21 48t-49.5 28.5t-90.5 7v119h74z" />
<glyph unicode="~" horiz-adv-x="1062" d="M307 709q60 0 124 -21.5t111 -46.5t110.5 -46.5t122.5 -21.5q88 0 149 78l63 -78q-81 -132 -209 -132q-62 0 -128 21.5t-114 47t-114 47t-128 21.5q-96 0 -162 -82l-55 77q94 136 230 136z" />
<glyph unicode="&#xa1;" horiz-adv-x="466" d="M127 959v212h212v-212h-212zM147 350l42 497h88l42 -497v-350h-172v350z" />
<glyph unicode="&#xa2;" horiz-adv-x="899" d="M471 694q-130 0 -192.5 -81.5t-62.5 -228.5q0 -154 99 -230l188 538q-22 2 -32 2zM57 400q0 176 108.5 298t275.5 122q68 0 104 -10l126 361l77 -18l-131 -372q54 -30 74 -68l-4 92h133v-288h-129q-26 115 -112 155l-194 -554q41 -11 83 -11q181 0 272 139l89 -89 q-116 -176 -365 -176q-62 0 -122 15l-110 -316l-76 17l114 326q-96 48 -154.5 148t-58.5 229z" />
<glyph unicode="&#xa3;" horiz-adv-x="993" d="M158 154q0 -41 23.5 -65t67.5 -24h5q60 0 119 98q-91 75 -139 84q-34 0 -55 -27.5t-21 -65.5zM701 -18q-43 0 -93.5 20t-84 41.5t-79.5 54.5q-77 -116 -183 -116q-94 0 -152 44t-58 125q0 77 57.5 132t137.5 55q87 0 170 -77q7 25 7 58q0 85 -74 210h-217v116h155 q-58 120 -58 205q0 153 91 237t249 84h3q148 0 230.5 -79t84.5 -229h-135q0 189 -173 189q-92 0 -150 -43t-58 -123q0 -22 2 -41.5t7.5 -40.5t9 -33.5t14 -34.5t13.5 -29t17 -32.5t16 -29.5h368v-116h-313q34 -83 34 -163t-40 -159q141 -85 191 -85q45 0 73.5 9.5t44.5 32.5 t23 51t10 75h93q0 -158 -49.5 -233t-183.5 -75z" />
<glyph unicode="&#xa4;" horiz-adv-x="929" d="M658 802q0 88 -51.5 146t-142.5 58q-88 0 -141 -58t-53 -146q0 -86 54.5 -144t140.5 -58t139.5 58t53.5 144zM204 601q-75 90 -75 207t73 199l-80 81l69 69l86 -86q86 53 187 53q103 0 188 -55l88 88l69 -69l-83 -83q72 -85 72 -199t-74 -203l85 -84l-69 -68l-90 88 q-80 -53 -185 -53q-106 0 -186 52l-88 -87l-69 68z" />
<glyph unicode="&#xa5;" horiz-adv-x="1130" d="M327 0v116h159v181h-237v117h237v89h-237v119h172l-293 415h-146v116h472v-116h-150l274 -389l257 389h-150v116h460v-116h-156l-281 -415h177v-119h-239v-89h239v-117h-239v-181h164v-116h-483z" />
<glyph unicode="&#xa6;" horiz-adv-x="404" d="M263 446v-464h-122v464h122zM263 1153v-464h-122v464h122z" />
<glyph unicode="&#xa7;" horiz-adv-x="877" d="M331 626q-59 -35 -88.5 -70t-29.5 -94q0 -51 29 -82t79 -56q37 -18 118.5 -51t120.5 -53q125 65 125 168q0 52 -30 82t-83 56q-36 18 -119 49.5t-122 50.5zM781 -35q0 -125 -86.5 -205t-213.5 -80q-219 0 -321 160l102 83q62 -120 206 -120q68 1 120 37t52 93 q0 39 -14 68t-44.5 50.5t-52 31.5t-63.5 27q-160 62 -206 85q-132 68 -162 165q-10 33 -10 71q0 83 41 137t119 106q-130 78 -130 225q0 119 98 195.5t232 76.5h2q121 0 205.5 -52.5t114.5 -149.5l-125 -45q-38 130 -179 130q-88 0 -148.5 -35.5t-60.5 -105.5q0 -27 9.5 -51 t29 -43t38.5 -33.5t50.5 -29t50.5 -22t53 -20t46 -16.5q53 -21 85.5 -35.5t73 -39.5t62.5 -51.5t38 -65.5t16 -87q0 -145 -159 -246q131 -77 131 -208z" />
<glyph unicode="&#xa8;" horiz-adv-x="572" d="M212 1101v-153h-154v153h154zM523 1101v-153h-152v153h152z" />
<glyph unicode="&#xa9;" horiz-adv-x="1423" d="M636 882q65 0 115 -19t66 -57l-2 66h96v-208h-94q-30 128 -159 128q-92 0 -138 -56.5t-46 -155.5q0 -96 46 -154t136 -58q134 0 197 101l64 -65q-79 -127 -264 -127h-5q-133 0 -211 87t-78 222q0 120 81 208t196 88zM657 1077q-143 0 -254 -66.5t-170 -180.5t-59 -255 q0 -214 134 -357.5t348 -143.5q215 0 349 143t136 358q-1 141 -60 254.5t-170 180.5t-254 67zM58 575q0 170 75 305.5t212.5 213t312.5 77.5t312.5 -77.5t212.5 -213t75 -305.5t-75.5 -305t-212.5 -211.5t-312 -76.5t-312 76.5t-212.5 211.5t-75.5 305z" />
<glyph unicode="&#xaa;" horiz-adv-x="696" d="M142 717q0 -44 32 -69.5t83 -25.5q112 0 185 67v131q-19 0 -66 6t-71 6q-163 0 -163 -115zM36 709q0 199 235 199q96 0 171 -15v73q0 116 -140 116q-108 0 -161 -68l-69 73q85 85 226 85q256 0 256 -201v-331h108v-85h-208l-1 62q-110 -77 -207 -77h-2q-86 0 -147 47.5 t-61 121.5z" />
<glyph unicode="&#xab;" horiz-adv-x="1053" d="M504 586l313 356h103l-207 -389l207 -389h-103l-313 356v66zM133 586l313 356h103l-207 -389l207 -389h-103l-313 356v66z" />
<glyph unicode="&#xac;" horiz-adv-x="1113" d="M993 842v-538h-117v420h-820v118h937z" />
<glyph unicode="&#xad;" horiz-adv-x="1707" />
<glyph unicode="&#xae;" horiz-adv-x="1338" d="M689 631q56 0 88 23.5t32 70.5v8q0 93 -124 93h-117v-195h121zM692 895q97 0 151.5 -40t54.5 -122q0 -132 -140 -161l127 -235h79v-68h-137l-154 292h-105v-224h85v-68h-260v68h88v489h-88v69h299zM667 1077q-143 0 -254 -66.5t-170 -180.5t-59 -255q0 -214 134 -357.5 t348 -143.5q215 0 349 143t136 358q-1 141 -60 254.5t-170 180.5t-254 67zM68 575q0 170 75 305.5t212.5 213t312.5 77.5t312.5 -77.5t212.5 -213t75 -305.5t-75.5 -305t-212.5 -211.5t-312 -76.5t-312 76.5t-212.5 211.5t-75.5 305z" />
<glyph unicode="&#xaf;" horiz-adv-x="593" d="M101 1171h376v-108h-376v108z" />
<glyph unicode="&#xb0;" horiz-adv-x="653" d="M68 922q0 103 76.5 176t182.5 73t182 -72.5t76 -176.5q0 -103 -76.5 -176.5t-181.5 -72.5q-106 0 -182.5 73t-76.5 176zM329 1085q-69 0 -117 -47t-47 -115q0 -67 44 -114t117 -47q66 0 114 46.5t48 112.5q0 68 -46 116t-113 48z" />
<glyph unicode="&#xb1;" horiz-adv-x="1145" d="M1012 0h-879v121h879v-121zM633 672v-379h-123v379h-377v121h377v378h123v-378h379v-121h-379z" />
<glyph unicode="&#xb2;" horiz-adv-x="747" d="M657 939q0 -52 -22.5 -99t-59 -83t-81 -69.5t-91 -65.5t-86.5 -64.5t-70 -73t-39 -83.5h351v180h94v-281h-566q0 204 171 344q23 19 81.5 58.5t94.5 67t67.5 73.5t31.5 93q0 134 -158 134q-93 0 -126 -51.5t-33 -164.5h-107q0 317 265 317q127 0 205 -61.5t78 -170.5z " />
<glyph unicode="&#xb3;" horiz-adv-x="783" d="M553 926q0 70 -47 106t-127 36q-146 0 -156 -147l-111 20q4 105 76 167.5t185 62.5q137 -1 216 -57t79 -173q0 -155 -151 -198q79 -14 132 -65t53 -128q0 -130 -89.5 -198.5t-236.5 -68.5h-3q-130 0 -206 68t-76 196v10h110q7 -75 51.5 -124.5t115.5 -49.5q92 0 153 34.5 t61 102.5q0 104 -60 138.5t-214 34.5v99q134 0 189.5 27t55.5 107z" />
<glyph unicode="&#xb4;" horiz-adv-x="562" d="M165 914l99 257h207l-187 -257h-119z" />
<glyph unicode="&#xb5;" horiz-adv-x="925" d="M304 268q0 -79 28 -120t97 -41q134 0 244 143v439h-145v116h296v-689h146v-116h-292l-5 100q-26 -15 -70 -41t-63.5 -37t-48.5 -25t-51 -19t-45 -5q-49 0 -114 31v-372h-129v1057h-120v116h272v-537z" />
<glyph unicode="&#x3bc;" horiz-adv-x="925" d="M304 268q0 -79 28 -120t97 -41q134 0 244 143v439h-145v116h296v-689h146v-116h-292l-5 100q-26 -15 -70 -41t-63.5 -37t-48.5 -25t-51 -19t-45 -5q-49 0 -114 31v-372h-129v1057h-120v116h272v-537z" />
<glyph unicode="&#xb6;" horiz-adv-x="1096" d="M50 812q0 166 110.5 262.5t290.5 96.5h569v-134h-138v-1357h-135v1357h-201v-1357h-135v773q-161 5 -261 103t-100 256z" />
<glyph unicode="&#xb7;" horiz-adv-x="414" d="M86 657h227v-211h-227v211z" />
<glyph unicode="&#xb8;" horiz-adv-x="587" d="M442 -218q0 -68 -59.5 -106.5t-152.5 -38.5q-54 0 -102 8v92q50 -8 86 -8q95 0 95 51t-98 60l58 165h72l-27 -124q128 -15 128 -99z" />
<glyph unicode="&#xb9;" horiz-adv-x="476" d="M63 392h123v667h-129v94h240v-761h114v-93h-348v93z" />
<glyph unicode="&#xba;" horiz-adv-x="704" d="M353 643h-2q-118 0 -200.5 75.5t-82.5 188.5q0 115 83 189t202 75q119 0 201.5 -74.5t82.5 -189.5q0 -114 -82.5 -189t-201.5 -75zM352 1074q-73 0 -122.5 -47.5t-49.5 -119.5t50 -120.5t123 -48.5q72 0 121.5 48.5t49.5 120.5t-49.5 119.5t-122.5 47.5z" />
<glyph unicode="&#xbb;" horiz-adv-x="1053" d="M549 520l-313 -356h-103l207 389l-207 389h103l313 -356v-66zM920 520l-314 -356h-102l207 389l-207 389h102l314 -356v-66z" />
<glyph unicode="&#xbc;" horiz-adv-x="1665" d="M1313 352v413l-254 -413h254zM1548 94v-94h-367v94h132v160h-371v98l374 579h112v-579h153v-98h-153v-160h120zM63 392h123v667h-129v94h240v-761h114v-93h-348v93zM915 1170h89l-414 -1170h-90z" />
<glyph unicode="&#xbd;" horiz-adv-x="1690" d="M1590 624q0 -52 -22 -98.5t-58.5 -82.5t-80.5 -69.5t-90.5 -66t-87 -65t-70.5 -73t-40 -83.5h351v180h94v-281h-566q0 203 171 343q24 20 83 60.5t94.5 68.5t66.5 73t31 91q0 134 -158 134q-92 -1 -125.5 -52.5t-33.5 -163.5h-107q0 317 265 317q127 0 205 -61.5 t78 -170.5zM63 392h123v667h-129v94h240v-761h114v-93h-348v93zM915 1170h89l-414 -1170h-90z" />
<glyph unicode="&#xbe;" horiz-adv-x="1936" d="M1524 352v413l-254 -413h254zM1759 94v-94h-367v94h132v160h-371v98l374 579h112v-579h153v-98h-153v-160h120zM558 926q0 70 -48 106t-127 36q-145 0 -155 -147l-111 20q4 105 76 167.5t185 62.5q137 -1 214.5 -57t80.5 -173q0 -155 -151 -198q78 -14 131.5 -65.5 t53.5 -127.5q0 -132 -88.5 -199.5t-237.5 -67.5h-3q-131 0 -206.5 69.5t-75.5 201.5l110 3q7 -75 51.5 -124.5t115.5 -49.5q92 0 153 34.5t61 102.5q-3 104 -62.5 138.5t-211.5 34.5v99q134 0 189.5 27t55.5 107zM1146 1170h89l-414 -1170h-90z" />
<glyph unicode="&#xbf;" horiz-adv-x="796" d="M58 26zM344 1196h172v-197h-172v197zM404 26q-145 0 -245.5 83t-100.5 219q0 45 11.5 82.5t35 66.5t48 50t61.5 45q88 58 127.5 121.5t46.5 179.5h95q0 -251 -128 -346q-11 -8 -42 -28t-44.5 -31.5t-33 -32t-27.5 -45.5t-8 -56q0 -84 55.5 -136t139.5 -52q212 0 212 201 h135q0 -154 -92 -237.5t-246 -83.5z" />
<glyph unicode="&#xc0;" horiz-adv-x="1196" d="M0 0zM783 545l-155 492h-74l-156 -492h385zM-20 116h138l293 921h-100v116h560v-116h-101l294 -921h137v-116h-453v116h150l-85 308h-445l-84 -308h149v-116h-453v116zM538 1272l-187 257h207l99 -257h-119z" />
<glyph unicode="&#xc1;" horiz-adv-x="1196" d="M0 0zM783 545l-155 492h-74l-156 -492h385zM-20 116h138l293 921h-100v116h560v-116h-101l294 -921h137v-116h-453v116h150l-85 308h-445l-84 -308h149v-116h-453v116zM538 1272l99 257h207l-187 -257h-119z" />
<glyph unicode="&#xc2;" horiz-adv-x="1196" d="M0 0zM783 545l-155 492h-74l-156 -492h385zM-20 116h138l293 921h-100v116h560v-116h-101l294 -921h137v-116h-453v116h150l-85 308h-445l-84 -308h149v-116h-453v116zM359 1272l98 275h275l104 -275h-148l-93 230l-93 -230h-143z" />
<glyph unicode="&#xc3;" horiz-adv-x="1196" d="M0 0zM783 545l-155 492h-74l-156 -492h385zM-20 116h138l293 921h-100v116h560v-116h-101l294 -921h137v-116h-453v116h150l-85 308h-445l-84 -308h149v-116h-453v116zM441 1343q-56 0 -68 -62h-80q13 157 113 197q30 12 66 12q49 0 146 -35t129 -35q62 0 77 65h78 q-7 -92 -50 -152.5t-120 -59.5q-70 0 -163 35t-128 35z" />
<glyph unicode="&#xc4;" horiz-adv-x="1196" d="M0 0zM783 545l-155 492h-74l-156 -492h385zM-20 116h138l293 921h-100v116h560v-116h-101l294 -921h137v-116h-453v116h150l-85 308h-445l-84 -308h149v-116h-453v116zM519 1425v-153h-154v153h154zM830 1425v-153h-152v153h152z" />
<glyph unicode="&#xc5;" horiz-adv-x="1196" d="M0 0zM701 1390q0 42 -28.5 70t-75.5 28q-43 0 -74 -28.5t-31 -69.5q1 -42 31.5 -70t73.5 -29q43 0 73.5 27t30.5 72zM429 1390q0 68 49 114t119 45q70 1 119.5 -45t49.5 -114q1 -68 -49 -114t-120 -47q-70 0 -119 46.5t-49 114.5zM783 545l-155 492h-74l-156 -492h385z M-20 116h138l293 921h-100v116h560v-116h-101l294 -921h137v-116h-453v116h150l-85 308h-445l-84 -308h149v-116h-453v116z" />
<glyph unicode="&#xc6;" horiz-adv-x="1733" d="M825 545l-118 492h-68l-197 -492h383zM1563 832h-132l-51 205h-513l91 -382h362l-24 114h97l85 -359h-98l-39 138h-359l107 -432h491l-52 212h129l78 -328h-991l12 116h172l-74 308h-461l-106 -308h154l-11 -116h-453l11 116h133l375 921h-102l16 116h1077z" />
<glyph unicode="&#xc7;" horiz-adv-x="1249" d="M66 0zM781 -218q0 -68 -59.5 -106.5t-152.5 -38.5q-54 0 -102 8v92q50 -8 86 -8q95 0 95 51t-98 60l58 165h72l-27 -124q128 -15 128 -99zM658 -18q-274 0 -432 160t-160 433q0 273 161.5 434.5t437.5 161.5h2q214 0 357 -149v131h130v-349h-125q-114 232 -384 232 q-186 0 -294 -129t-108 -327q0 -204 110 -334t294 -130q318 0 403 262l135 -71q-62 -150 -196 -237.5t-326 -87.5h-5z" />
<glyph unicode="&#xc8;" horiz-adv-x="1119" d="M72 0zM593 1262l-187 257h207l99 -257h-119zM72 0v116h156v921h-156v116h971v-321h-131v205h-525v-382h362v114h100v-359h-101v116h-359v-410h525v212h129v-328h-971z" />
<glyph unicode="&#xc9;" horiz-adv-x="1119" d="M72 0zM72 0v116h156v921h-156v116h971v-321h-131v205h-525v-382h362v114h100v-359h-101v116h-359v-410h525v212h129v-328h-971zM486 1272l99 257h207l-187 -257h-119z" />
<glyph unicode="&#xca;" horiz-adv-x="1119" d="M72 0zM72 0v116h156v921h-156v116h971v-321h-131v205h-525v-382h362v114h100v-359h-101v116h-359v-410h525v212h129v-328h-971zM307 1272l98 275h275l104 -275h-148l-93 230l-93 -230h-143z" />
<glyph unicode="&#xcb;" horiz-adv-x="1119" d="M72 0zM481 1449v-153h-154v153h154zM792 1449v-153h-152v153h152zM72 0v116h156v921h-156v116h971v-321h-131v205h-525v-382h362v114h100v-359h-101v116h-359v-410h525v212h129v-328h-971z" />
<glyph unicode="&#xcc;" horiz-adv-x="581" d="M43 0zM77 0v116h134v921h-134v116h428v-116h-132v-921h132v-116h-428zM230 1272l-187 257h207l99 -257h-119z" />
<glyph unicode="&#xcd;" horiz-adv-x="581" d="M77 0zM77 0v116h134v921h-134v116h428v-116h-132v-921h132v-116h-428zM229 1272l99 257h207l-187 -257h-119z" />
<glyph unicode="&#xce;" horiz-adv-x="581" d="M53 0zM53 1244l98 275h275l104 -275h-148l-93 230l-93 -230h-143zM77 0v116h134v921h-134v116h428v-116h-132v-921h132v-116h-428z" />
<glyph unicode="&#xcf;" horiz-adv-x="581" d="M58 0zM212 1449v-153h-154v153h154zM523 1449v-153h-152v153h152zM77 0v116h134v921h-134v116h428v-116h-132v-921h132v-116h-428z" />
<glyph unicode="&#xd0;" horiz-adv-x="1271" d="M625 116q200 0 304.5 126.5t104.5 338.5q0 218 -106.5 337t-318.5 119h-229v-387h198v-144h-198v-390h245zM613 1153q276 0 431 -143t155 -414q0 -596 -600 -596h-540v116h159v390h-157v144h157v387h-159v116h554z" />
<glyph unicode="&#x110;" horiz-adv-x="1271" d="M625 116q200 0 304.5 126.5t104.5 338.5q0 218 -106.5 337t-318.5 119h-229v-387h198v-144h-198v-390h245zM613 1153q276 0 431 -143t155 -414q0 -596 -600 -596h-540v116h159v390h-157v144h157v387h-159v116h554z" />
<glyph unicode="&#xd1;" horiz-adv-x="1322" d="M72 0zM1002 1037h-165v116h472v-116h-173v-1037h-183l-578 997v-881h169v-116h-472v116h169v921h-169v116h382l548 -942v826zM518 1343q-56 0 -68 -62h-80q13 157 113 197q30 12 66 12q49 0 146 -35t129 -35q62 0 77 65h78q-7 -92 -50 -152.5t-120 -59.5q-70 0 -163 35 t-128 35z" />
<glyph unicode="&#xd2;" horiz-adv-x="1321" d="M66 0zM660 116q-183 0 -300 133.5t-117 326.5q0 194 116.5 327t300.5 134q185 -1 301.5 -133.5t116.5 -327.5t-116.5 -327.5t-301.5 -132.5zM66 575q0 -171 75 -306t210.5 -211t308.5 -77q173 0 309.5 77t211.5 212.5t75 304.5q0 262 -166 428.5t-431 166.5 q-264 0 -428.5 -166.5t-164.5 -428.5zM602 1273l-187 257h207l99 -257h-119z" />
<glyph unicode="&#xd3;" horiz-adv-x="1321" d="M66 0zM660 116q-183 0 -300 133.5t-117 326.5q0 194 116.5 327t300.5 134q185 -1 301.5 -133.5t116.5 -327.5t-116.5 -327.5t-301.5 -132.5zM66 575q0 -171 75 -306t210.5 -211t308.5 -77q173 0 309.5 77t211.5 212.5t75 304.5q0 262 -166 428.5t-431 166.5 q-264 0 -428.5 -166.5t-164.5 -428.5zM601 1273l99 257h207l-187 -257h-119z" />
<glyph unicode="&#xd4;" horiz-adv-x="1321" d="M66 0zM660 116q-183 0 -300 133.5t-117 326.5q0 194 116.5 327t300.5 134q185 -1 301.5 -133.5t116.5 -327.5t-116.5 -327.5t-301.5 -132.5zM66 575q0 -171 75 -306t210.5 -211t308.5 -77q173 0 309.5 77t211.5 212.5t75 304.5q0 262 -166 428.5t-431 166.5 q-264 0 -428.5 -166.5t-164.5 -428.5zM422 1273l98 275h275l104 -275h-148l-93 230l-93 -230h-143z" />
<glyph unicode="&#xd5;" horiz-adv-x="1321" d="M66 0zM660 116q-183 0 -300 133.5t-117 326.5q0 194 116.5 327t300.5 134q185 -1 301.5 -133.5t116.5 -327.5t-116.5 -327.5t-301.5 -132.5zM66 575q0 -171 75 -306t210.5 -211t308.5 -77q173 0 309.5 77t211.5 212.5t75 304.5q0 262 -166 428.5t-431 166.5 q-264 0 -428.5 -166.5t-164.5 -428.5zM505 1343q-56 0 -68 -62h-80q13 157 113 197q30 12 66 12q49 0 146 -35t129 -35q62 0 77 65h78q-7 -92 -50 -152.5t-120 -59.5q-70 0 -163 35t-128 35z" />
<glyph unicode="&#xd6;" horiz-adv-x="1321" d="M66 0zM660 116q-183 0 -300 133.5t-117 326.5q0 194 116.5 327t300.5 134q185 -1 301.5 -133.5t116.5 -327.5t-116.5 -327.5t-301.5 -132.5zM66 575q0 -171 75 -306t210.5 -211t308.5 -77q173 0 309.5 77t211.5 212.5t75 304.5q0 262 -166 428.5t-431 166.5 q-264 0 -428.5 -166.5t-164.5 -428.5zM582 1426v-153h-154v153h154zM893 1426v-153h-152v153h152z" />
<glyph unicode="&#xd7;" horiz-adv-x="929" d="M390 434l-210 210l83 83l210 -210l211 210l83 -83l-211 -210l211 -209l-84 -82l-210 209l-209 -209l-84 82z" />
<glyph unicode="&#xd8;" horiz-adv-x="1321" d="M666 116q191 0 301.5 132.5t110.5 337.5q0 113 -44.5 208.5t-116.5 153.5l-408 -805q67 -27 157 -27zM658 1037q-182 0 -298.5 -134.5t-116.5 -327.5q0 -123 48 -222t127 -159l411 808q-79 35 -171 35zM1256 554q0 -169 -80 -301t-215.5 -202t-300.5 -70q-118 0 -217 34 l-54 -107l-94 43l54 106q-283 159 -283 539q0 124 47.5 232.5t127.5 183t187.5 117t225.5 42.5q129 0 240 -41l53 105l94 -43l-54 -107q269 -164 269 -531z" />
<glyph unicode="&#xd9;" horiz-adv-x="1211" d="M16 0zM580 -18q-200 0 -308 101.5t-108 298.5v655h-148v116h452v-116h-142v-659q0 -136 63.5 -199t197.5 -63q141 0 202 65.5t61 207.5v648h-142v116h451v-116h-147v-657q0 -398 -432 -398zM546 1272l-187 257h207l99 -257h-119z" />
<glyph unicode="&#xda;" horiz-adv-x="1211" d="M16 0zM580 -18q-200 0 -308 101.5t-108 298.5v655h-148v116h452v-116h-142v-659q0 -136 63.5 -199t197.5 -63q141 0 202 65.5t61 207.5v648h-142v116h451v-116h-147v-657q0 -398 -432 -398zM546 1272l99 257h207l-187 -257h-119z" />
<glyph unicode="&#xdb;" horiz-adv-x="1211" d="M16 0zM580 -18q-200 0 -308 101.5t-108 298.5v655h-148v116h452v-116h-142v-659q0 -136 63.5 -199t197.5 -63q141 0 202 65.5t61 207.5v648h-142v116h451v-116h-147v-657q0 -398 -432 -398zM367 1272l98 275h275l104 -275h-148l-93 230l-93 -230h-143z" />
<glyph unicode="&#xdc;" horiz-adv-x="1211" d="M16 0zM580 -18q-200 0 -308 101.5t-108 298.5v655h-148v116h452v-116h-142v-659q0 -136 63.5 -199t197.5 -63q141 0 202 65.5t61 207.5v648h-142v116h451v-116h-147v-657q0 -398 -432 -398zM527 1425v-153h-154v153h154zM838 1425v-153h-152v153h152z" />
<glyph unicode="&#xdd;" horiz-adv-x="1130" d="M0 0zM328 0v116h159v414l-358 507h-149v116h475v-116h-150l274 -389l257 389h-150v116h460v-116h-156l-343 -507v-414h164v-116h-483zM504 1272l99 257h207l-187 -257h-119z" />
<glyph unicode="&#xde;" horiz-adv-x="1030" d="M827 583q0 108 -58 163.5t-168 55.5h-227v-429h178q140 0 206.5 50t68.5 160zM992 594q0 -101 -30 -169.5t-92.5 -106.5t-145.5 -54t-202 -16h-146v-132h158v-116h-471v116h151v921h-151v116h471v-115h-160v-109h222q178 1 287 -86t109 -249z" />
<glyph unicode="&#xdf;" horiz-adv-x="1114" d="M889 346q1 112 -85.5 168.5t-230.5 54.5v106q96 0 152.5 54t56.5 145q0 81 -51 127t-135 46q-234 0 -234 -257v-674h131v-116h-421v116h150v670q0 185 92 285t271 100q149 0 244 -74.5t96 -207.5q0 -193 -177 -248q78 -13 139.5 -46.5t102 -88.5t47.5 -129.5t-25 -168.5 q-75 -208 -399 -208v116q276 0 276 230z" />
<glyph unicode="&#xe0;" horiz-adv-x="889" d="M56 0zM196 218q0 -58 41 -93.5t109 -35.5q154 0 249 89v174q-21 0 -84 8t-91 8q-110 0 -167 -32.5t-57 -117.5zM338 -18q-116 0 -199 61.5t-83 160.5q-1 144 87.5 205t258.5 61q88 0 193 -20v97q0 149 -186 154q-146 0 -215 -91l-92 98q112 112 302 112q340 0 340 -266 v-438h144v-116h-277l-2 83q-140 -101 -271 -101zM412 922l-187 257h207l99 -257h-119z" />
<glyph unicode="&#xe1;" horiz-adv-x="889" d="M56 0zM196 218q0 -58 41 -93.5t109 -35.5q154 0 249 89v174q-21 0 -84 8t-91 8q-110 0 -167 -32.5t-57 -117.5zM338 -18q-116 0 -199 61.5t-83 160.5q-1 144 87.5 205t258.5 61q88 0 193 -20v97q0 149 -186 154q-146 0 -215 -91l-92 98q112 112 302 112q340 0 340 -266 v-438h144v-116h-277l-2 83q-140 -101 -271 -101zM412 922l99 257h207l-187 -257h-119z" />
<glyph unicode="&#xe2;" horiz-adv-x="889" d="M56 0zM196 218q0 -58 41 -93.5t109 -35.5q154 0 249 89v174q-21 0 -84 8t-91 8q-110 0 -167 -32.5t-57 -117.5zM338 -18q-116 0 -199 61.5t-83 160.5q-1 144 87.5 205t258.5 61q88 0 193 -20v97q0 149 -186 154q-146 0 -215 -91l-92 98q112 112 302 112q340 0 340 -266 v-438h144v-116h-277l-2 83q-140 -101 -271 -101zM233 922l98 275h275l104 -275h-148l-93 230l-93 -230h-143z" />
<glyph unicode="&#xe3;" horiz-adv-x="889" d="M56 0zM196 218q0 -58 41 -93.5t109 -35.5q154 0 249 89v174q-21 0 -84 8t-91 8q-110 0 -167 -32.5t-57 -117.5zM338 -18q-116 0 -199 61.5t-83 160.5q-1 144 87.5 205t258.5 61q88 0 193 -20v97q0 149 -186 154q-146 0 -215 -91l-92 98q112 112 302 112q340 0 340 -266 v-438h144v-116h-277l-2 83q-140 -101 -271 -101zM315 993q-56 0 -68 -62h-80q13 157 113 197q30 12 66 12q49 0 146 -35t129 -35q62 0 77 65h78q-7 -92 -50 -152.5t-120 -59.5q-70 0 -163 35t-128 35z" />
<glyph unicode="&#xe4;" horiz-adv-x="889" d="M56 0zM196 218q0 -58 41 -93.5t109 -35.5q154 0 249 89v174q-21 0 -84 8t-91 8q-110 0 -167 -32.5t-57 -117.5zM338 -18q-116 0 -199 61.5t-83 160.5q-1 144 87.5 205t258.5 61q88 0 193 -20v97q0 149 -186 154q-146 0 -215 -91l-92 98q112 112 302 112q340 0 340 -266 v-438h144v-116h-277l-2 83q-140 -101 -271 -101zM393 1075v-153h-154v153h154zM704 1075v-153h-152v153h152z" />
<glyph unicode="&#xe5;" horiz-adv-x="889" d="M56 0zM196 218q0 -58 41 -93.5t109 -35.5q154 0 249 89v174q-21 0 -84 8t-91 8q-110 0 -167 -32.5t-57 -117.5zM338 -18q-116 0 -199 61.5t-83 160.5q-1 144 87.5 205t258.5 61q88 0 193 -20v97q0 149 -186 154q-146 0 -215 -91l-92 98q112 112 302 112q340 0 340 -266 v-438h144v-116h-277l-2 83q-140 -101 -271 -101zM559 1083q0 42 -28.5 70t-75.5 28q-43 0 -74 -28.5t-31 -69.5q1 -42 31.5 -70t73.5 -29q43 0 73.5 27t30.5 72zM287 1083q0 68 49 114t119 45q70 1 119.5 -45t49.5 -114q1 -68 -49 -114t-120 -47q-70 0 -119 46.5t-49 114.5z " />
<glyph unicode="&#xe6;" horiz-adv-x="1417" d="M196 221q0 -53 38.5 -89t92.5 -36q203 0 319 101l-45 159q-24 0 -89.5 6t-99.5 6q-216 0 -216 -147zM1217 467q-16 111 -70 178.5t-149 67.5q-99 0 -160 -69.5t-75 -176.5h454zM759 365q14 -122 73 -193t166 -71h6q145 0 228 116l128 -56q-109 -184 -359 -184 q-194 0 -314 126q-191 -119 -350 -119h-5q-115 0 -195.5 66.5t-81.5 170.5q0 249 347 249q88 0 193 -20v97q0 162 -196 162q-126 0 -185 -83l-140 39q94 162 345 162q96 0 173 -47t106 -140q103 193 309 193q160 0 256.5 -129.5t96.5 -338.5h-601z" />
<glyph unicode="&#xe7;" horiz-adv-x="899" d="M57 0zM606 -218q0 -68 -59.5 -106.5t-152.5 -38.5q-54 0 -102 8v92q50 -8 86 -8q95 0 95 51t-98 60l58 165h72l-27 -124q128 -15 128 -99zM464 820q73 0 138 -28.5t90 -78.5l-4 92h133v-288h-129q-46 166 -220 177q-126 0 -190.5 -79t-64.5 -215q0 -134 65.5 -213.5 t186.5 -79.5q181 0 272 139l89 -89q-116 -176 -365 -176q-188 0 -298 114.5t-110 312.5q0 179 116 295.5t291 116.5z" />
<glyph unicode="&#xe8;" horiz-adv-x="955" d="M57 0zM757 467q-12 101 -79.5 164t-174.5 63q-116 0 -187 -59t-90 -168h531zM505 -18q-195 0 -321.5 116.5t-126.5 303.5q0 181 127.5 299.5t314.5 118.5q189 0 295.5 -125.5t106.5 -329.5h-679q7 -117 83.5 -187t199.5 -71q81 0 153.5 34.5t111.5 91.5l102 -76 q-114 -175 -367 -175zM416 922l-187 257h207l99 -257h-119z" />
<glyph unicode="&#xe9;" horiz-adv-x="955" d="M57 0zM757 467q-12 101 -79.5 164t-174.5 63q-116 0 -187 -59t-90 -168h531zM505 -18q-195 0 -321.5 116.5t-126.5 303.5q0 181 127.5 299.5t314.5 118.5q189 0 295.5 -125.5t106.5 -329.5h-679q7 -117 83.5 -187t199.5 -71q81 0 153.5 34.5t111.5 91.5l102 -76 q-114 -175 -367 -175zM417 922l99 257h207l-187 -257h-119z" />
<glyph unicode="&#xea;" horiz-adv-x="955" d="M57 0zM757 467q-12 101 -79.5 164t-174.5 63q-116 0 -187 -59t-90 -168h531zM505 -18q-195 0 -321.5 116.5t-126.5 303.5q0 181 127.5 299.5t314.5 118.5q189 0 295.5 -125.5t106.5 -329.5h-679q7 -117 83.5 -187t199.5 -71q81 0 153.5 34.5t111.5 91.5l102 -76 q-114 -175 -367 -175zM238 922l98 275h275l104 -275h-148l-93 230l-93 -230h-143z" />
<glyph unicode="&#xeb;" horiz-adv-x="955" d="M57 0zM757 467q-12 101 -79.5 164t-174.5 63q-116 0 -187 -59t-90 -168h531zM505 -18q-195 0 -321.5 116.5t-126.5 303.5q0 181 127.5 299.5t314.5 118.5q189 0 295.5 -125.5t106.5 -329.5h-679q7 -117 83.5 -187t199.5 -71q81 0 153.5 34.5t111.5 91.5l102 -76 q-114 -175 -367 -175zM398 1075v-153h-154v153h154zM709 1075v-153h-152v153h152z" />
<glyph unicode="&#xec;" horiz-adv-x="509" d="M23 0zM59 113h135v576h-135v116h284v-692h136v-113h-420v113zM210 922l-187 257h207l99 -257h-119z" />
<glyph unicode="&#xed;" horiz-adv-x="509" d="M59 0zM59 113h135v576h-135v116h284v-692h136v-113h-420v113zM209 922l99 257h207l-187 -257h-119z" />
<glyph unicode="&#xee;" horiz-adv-x="509" d="M30 0zM59 113h135v576h-135v116h284v-692h136v-113h-420v113zM30 922l98 275h275l104 -275h-148l-93 230l-93 -230h-143z" />
<glyph unicode="&#xef;" horiz-adv-x="509" d="M36 0zM59 113h135v576h-135v116h284v-692h136v-113h-420v113zM190 1075v-153h-154v153h154zM501 1075v-153h-152v153h152z" />
<glyph unicode="&#xf0;" horiz-adv-x="947" d="M230 362q0 -112 59.5 -179t170.5 -67q56 0 98.5 22t68.5 56.5t44 88t26 106t13 120.5q-112 83 -277 83q-91 0 -147 -66t-56 -164zM454 -18q-165 0 -267 107.5t-102 272.5q0 164 97 261.5t262 98.5q171 0 272 -83q0 115 -30 210l-226 -45l-20 101l200 40q-70 100 -200 100 q-128 0 -231 -76l-55 113q113 89 301 89q223 0 330 -197l161 32l21 -101l-142 -28q42 -131 42 -289q0 -134 -21.5 -239.5t-68 -190t-128.5 -130.5t-195 -46z" />
<glyph unicode="&#xf1;" horiz-adv-x="1031" d="M57 0zM359 1024q-56 0 -68 -62h-80q13 157 113 197q30 12 66 12q49 0 146 -35t129 -35q62 0 77 65h78q-7 -92 -50 -152.5t-120 -59.5q-70 0 -163 35t-128 35zM727 507q0 90 -27 138.5t-98 48.5q-117 0 -245 -124v-454h145v-116h-439v116h143v573h-149v116h296l4 -104 q154 119 273 119q117 0 180.5 -69t64.5 -189l-1 -446h145v-116h-402v116h110v391z" />
<glyph unicode="&#xf2;" horiz-adv-x="966" d="M57 0zM484 820q186 0 306 -118t120 -300q0 -183 -121 -301.5t-307 -118.5t-305.5 120t-119.5 304q0 180 121.5 297t305.5 117zM750 401q0 126 -73.5 209.5t-194.5 83.5q-120 0 -193 -83.5t-73 -209.5t73.5 -209.5t192.5 -84.5q120 1 194 84t74 210zM424 922l-187 257h207 l99 -257h-119z" />
<glyph unicode="&#xf3;" horiz-adv-x="966" d="M57 0zM484 820q186 0 306 -118t120 -300q0 -183 -121 -301.5t-307 -118.5t-305.5 120t-119.5 304q0 180 121.5 297t305.5 117zM750 401q0 126 -73.5 209.5t-194.5 83.5q-120 0 -193 -83.5t-73 -209.5t73.5 -209.5t192.5 -84.5q120 1 194 84t74 210zM424 922l99 257h207 l-187 -257h-119z" />
<glyph unicode="&#xf4;" horiz-adv-x="966" d="M57 0zM244 896l98 275h275l104 -275h-148l-93 230l-93 -230h-143zM484 820q186 0 306 -118t120 -300q0 -183 -121 -301.5t-307 -118.5t-305.5 120t-119.5 304q0 180 121.5 297t305.5 117zM750 401q0 126 -73.5 209.5t-194.5 83.5q-120 0 -193 -83.5t-73 -209.5 t73.5 -209.5t192.5 -84.5q120 1 194 84t74 210z" />
<glyph unicode="&#xf5;" horiz-adv-x="966" d="M57 0zM326 1024q-56 0 -68 -62h-80q13 157 113 197q30 12 66 12q49 0 146 -35t129 -35q62 0 77 65h78q-7 -92 -50 -152.5t-120 -59.5q-70 0 -163 35t-128 35zM484 820q186 0 306 -118t120 -300q0 -183 -121 -301.5t-307 -118.5t-305.5 120t-119.5 304q0 180 121.5 297 t305.5 117zM750 401q0 126 -73.5 209.5t-194.5 83.5q-120 0 -193 -83.5t-73 -209.5t73.5 -209.5t192.5 -84.5q120 1 194 84t74 210z" />
<glyph unicode="&#xf6;" horiz-adv-x="966" d="M57 0zM404 1101v-153h-154v153h154zM715 1101v-153h-152v153h152zM484 820q186 0 306 -118t120 -300q0 -183 -121 -301.5t-307 -118.5t-305.5 120t-119.5 304q0 180 121.5 297t305.5 117zM750 401q0 126 -73.5 209.5t-194.5 83.5q-120 0 -193 -83.5t-73 -209.5 t73.5 -209.5t192.5 -84.5q120 1 194 84t74 210z" />
<glyph unicode="&#xf7;" horiz-adv-x="1164" d="M501 275h153v-154h-153v154zM501 944h153v-152h-153v152zM931 593v-118h-711v118h711z" />
<glyph unicode="&#xf8;" horiz-adv-x="966" d="M491 107q117 0 188 86t71 214q0 135 -87 217l-259 -507q33 -10 87 -10zM476 694q-120 0 -190 -86.5t-70 -219.5q0 -140 96 -222l263 512q-42 16 -99 16zM910 414q0 -192 -114 -312t-300 -120q-86 0 -152 19l-65 -127l-94 43l64 126q-83 51 -137.5 142.5t-54.5 202.5 q0 193 118 312.5t309 119.5q82 0 151 -24l67 130l94 -43l-68 -132q80 -51 131 -139.5t51 -197.5z" />
<glyph unicode="&#xf9;" horiz-adv-x="994" d="M19 0zM416 107q134 0 244 143v439h-145v116h296v-689h146v-116h-292l-5 100q-124 -118 -272 -118q-249 0 -249 279v428h-120v116h272v-537q0 -161 125 -161zM442 922l-187 257h207l99 -257h-119z" />
<glyph unicode="&#xfa;" horiz-adv-x="994" d="M19 0zM416 107q134 0 244 143v439h-145v116h296v-689h146v-116h-292l-5 100q-124 -118 -272 -118q-249 0 -249 279v428h-120v116h272v-537q0 -161 125 -161zM441 922l99 257h207l-187 -257h-119z" />
<glyph unicode="&#xfb;" horiz-adv-x="994" d="M19 0zM416 107q134 0 244 143v439h-145v116h296v-689h146v-116h-292l-5 100q-124 -118 -272 -118q-249 0 -249 279v428h-120v116h272v-537q0 -161 125 -161zM262 922l98 275h275l104 -275h-148l-93 230l-93 -230h-143z" />
<glyph unicode="&#xfc;" horiz-adv-x="994" d="M19 0zM416 107q134 0 244 143v439h-145v116h296v-689h146v-116h-292l-5 100q-124 -118 -272 -118q-249 0 -249 279v428h-120v116h272v-537q0 -161 125 -161zM422 1075v-153h-154v153h154zM733 1075v-153h-152v153h152z" />
<glyph unicode="&#xfd;" horiz-adv-x="982" d="M0 0zM665 689h-115v116h413v-116h-129l-228 -653q-18 -53 -30.5 -88t-32 -76t-38.5 -67t-46.5 -52t-59 -40.5t-74 -23.5t-93.5 -9h-86v133h74q65 0 103 15t58 43.5t42 86.5l32 85h-82l-264 646h-125v116h406v-116h-124l219 -549zM429 922l99 257h207l-187 -257h-119z" />
<glyph unicode="&#xfe;" horiz-adv-x="1026" d="M850 396q0 130 -76.5 214t-203.5 84q-133 0 -251 -130v-335q61 -65 121 -93.5t142 -28.5q122 0 195 81.5t73 207.5zM614 -18q-91 0 -172.5 29.5t-123.5 79.5v-394h-294v124h144v1216h-143v116h294v-446q124 113 300 113q175 0 284 -117.5t110 -296.5q1 -180 -111 -302 t-288 -122z" />
<glyph unicode="&#xff;" horiz-adv-x="982" d="M0 0zM665 689h-115v116h413v-116h-129l-228 -653q-18 -53 -30.5 -88t-32 -76t-38.5 -67t-46.5 -52t-59 -40.5t-74 -23.5t-93.5 -9h-86v133h74q65 0 103 15t58 43.5t42 86.5l32 85h-82l-264 646h-125v116h406v-116h-124l219 -549zM410 1075v-153h-154v153h154zM721 1075 v-153h-152v153h152z" />
<glyph unicode="&#x100;" horiz-adv-x="1196" d="M0 0zM783 545l-155 492h-74l-156 -492h385zM-20 116h138l293 921h-100v116h560v-116h-101l294 -921h137v-116h-453v116h150l-85 308h-445l-84 -308h149v-116h-453v116zM409 1381h376v-108h-376v108z" />
<glyph unicode="&#x101;" horiz-adv-x="889" d="M56 0zM196 218q0 -58 41 -93.5t109 -35.5q154 0 249 89v174q-21 0 -84 8t-91 8q-110 0 -167 -32.5t-57 -117.5zM338 -18q-116 0 -199 61.5t-83 160.5q-1 144 87.5 205t258.5 61q88 0 193 -20v97q0 149 -186 154q-146 0 -215 -91l-92 98q112 112 302 112q340 0 340 -266 v-438h144v-116h-277l-2 83q-140 -101 -271 -101zM284 1030h376v-108h-376v108z" />
<glyph unicode="&#x102;" horiz-adv-x="1196" d="M0 0zM783 545l-155 492h-74l-156 -492h385zM-20 116h138l293 921h-100v116h560v-116h-101l294 -921h137v-116h-453v116h150l-85 308h-445l-84 -308h149v-116h-453v116zM852 1485q-9 -95 -77 -154t-177 -59q-105 0 -176 58.5t-78 154.5h124q9 -51 46.5 -78.5t85.5 -27.5 q47 0 83.5 27.5t43.5 78.5h125z" />
<glyph unicode="&#x103;" horiz-adv-x="889" d="M56 0zM196 218q0 -58 41 -93.5t109 -35.5q154 0 249 89v174q-21 0 -84 8t-91 8q-110 0 -167 -32.5t-57 -117.5zM338 -18q-116 0 -199 61.5t-83 160.5q-1 144 87.5 205t258.5 61q88 0 193 -20v97q0 149 -186 154q-146 0 -215 -91l-92 98q112 112 302 112q340 0 340 -266 v-438h144v-116h-277l-2 83q-140 -101 -271 -101zM726 1135q-9 -95 -77 -154t-177 -59q-105 0 -176 58.5t-78 154.5h124q9 -51 46.5 -78.5t85.5 -27.5q47 0 83.5 27.5t43.5 78.5h125z" />
<glyph unicode="&#x104;" horiz-adv-x="1196" d="M0 0zM783 545l-155 492h-74l-156 -492h385zM-20 116h138l293 921h-100v116h560v-116h-101l294 -921h137v-116h-453v116h150l-85 308h-445l-84 -308h149v-116h-453v116zM1074 -341q-84 0 -136.5 48t-52.5 129q0 78 60 176h114q-45 -62 -45 -126q0 -107 98 -107q42 0 87 20 v-103q-75 -37 -125 -37z" />
<glyph unicode="&#x105;" horiz-adv-x="889" d="M56 0zM196 218q0 -58 41 -93.5t109 -35.5q154 0 249 89v174q-21 0 -84 8t-91 8q-110 0 -167 -32.5t-57 -117.5zM338 -18q-116 0 -199 61.5t-83 160.5q-1 144 87.5 205t258.5 61q88 0 193 -20v97q0 149 -186 154q-146 0 -215 -91l-92 98q112 112 302 112q340 0 340 -266 v-438h144v-116h-277l-2 83q-140 -101 -271 -101zM745 -347q-84 0 -136.5 48t-52.5 129q0 78 60 176h114q-45 -62 -45 -126q0 -107 98 -107q42 0 87 20v-103q-75 -37 -125 -37z" />
<glyph unicode="&#x106;" horiz-adv-x="1249" d="M66 0zM658 -18q-274 0 -432 160t-160 433q0 273 161.5 434.5t437.5 161.5h2q214 0 357 -149v131h130v-349h-125q-114 232 -384 232q-186 0 -294 -129t-108 -327q0 -204 110 -334t294 -130q318 0 403 262l135 -71q-62 -150 -196 -237.5t-326 -87.5h-5zM569 1273l99 257 h207l-187 -257h-119z" />
<glyph unicode="&#x107;" horiz-adv-x="899" d="M57 0zM464 820q73 0 138 -28.5t90 -78.5l-4 92h133v-288h-129q-46 166 -220 177q-126 0 -190.5 -79t-64.5 -215q0 -134 65.5 -213.5t186.5 -79.5q181 0 272 139l89 -89q-116 -176 -365 -176q-188 0 -298 114.5t-110 312.5q0 179 116 295.5t291 116.5zM383 922l99 257h207 l-187 -257h-119z" />
<glyph unicode="&#x108;" horiz-adv-x="1249" d="M66 0zM658 -18q-274 0 -432 160t-160 433q0 273 161.5 434.5t437.5 161.5h2q214 0 357 -149v131h130v-349h-125q-114 232 -384 232q-186 0 -294 -129t-108 -327q0 -204 110 -334t294 -130q318 0 403 262l135 -71q-62 -150 -196 -237.5t-326 -87.5h-5zM390 1273l98 275 h275l104 -275h-148l-93 230l-93 -230h-143z" />
<glyph unicode="&#x109;" horiz-adv-x="899" d="M57 0zM464 820q73 0 138 -28.5t90 -78.5l-4 92h133v-288h-129q-46 166 -220 177q-126 0 -190.5 -79t-64.5 -215q0 -134 65.5 -213.5t186.5 -79.5q181 0 272 139l89 -89q-116 -176 -365 -176q-188 0 -298 114.5t-110 312.5q0 179 116 295.5t291 116.5zM204 922l98 275h275 l104 -275h-148l-93 230l-93 -230h-143z" />
<glyph unicode="&#x10a;" horiz-adv-x="1249" d="M66 0zM658 -18q-274 0 -432 160t-160 433q0 273 161.5 434.5t437.5 161.5h2q214 0 357 -149v131h130v-349h-125q-114 232 -384 232q-186 0 -294 -129t-108 -327q0 -204 110 -334t294 -130q318 0 403 262l135 -71q-62 -150 -196 -237.5t-326 -87.5h-5zM538 1361 q-1 37 26 62t65 25t64.5 -23.5t26.5 -63.5q1 -36 -24.5 -62t-66.5 -26q-36 0 -63.5 26t-27.5 62z" />
<glyph unicode="&#x10b;" horiz-adv-x="899" d="M57 0zM464 820q73 0 138 -28.5t90 -78.5l-4 92h133v-288h-129q-46 166 -220 177q-126 0 -190.5 -79t-64.5 -215q0 -134 65.5 -213.5t186.5 -79.5q181 0 272 139l89 -89q-116 -176 -365 -176q-188 0 -298 114.5t-110 312.5q0 179 116 295.5t291 116.5zM364 1010 q-1 37 26 62t65 25t64.5 -23.5t26.5 -63.5q1 -36 -24.5 -62t-66.5 -26q-36 0 -63.5 26t-27.5 62z" />
<glyph unicode="&#x10c;" horiz-adv-x="1249" d="M66 0zM658 -18q-274 0 -432 160t-160 433q0 273 161.5 434.5t437.5 161.5h2q214 0 357 -149v131h130v-349h-125q-114 232 -384 232q-186 0 -294 -129t-108 -327q0 -204 110 -334t294 -130q318 0 403 262l135 -71q-62 -150 -196 -237.5t-326 -87.5h-5zM477 1532l154 -154 l152 154h104l-159 -259h-196l-162 259h107z" />
<glyph unicode="&#x10d;" horiz-adv-x="899" d="M57 0zM464 820q73 0 138 -28.5t90 -78.5l-4 92h133v-288h-129q-46 166 -220 177q-126 0 -190.5 -79t-64.5 -215q0 -134 65.5 -213.5t186.5 -79.5q181 0 272 139l89 -89q-116 -176 -365 -176q-188 0 -298 114.5t-110 312.5q0 179 116 295.5t291 116.5zM291 1181l154 -154 l152 154h104l-159 -259h-196l-162 259h107z" />
<glyph unicode="&#x10e;" horiz-adv-x="1271" d="M72 0zM626 1153q277 0 431.5 -143t154.5 -414q0 -596 -600 -596h-540v116h159v921h-159v116h554zM638 116q200 0 304.5 126.5t104.5 338.5q0 218 -106.5 337t-318.5 119h-229v-921h245zM477 1531l154 -154l152 154h104l-159 -259h-196l-162 259h107z" />
<glyph unicode="&#x10f;" horiz-adv-x="1071" d="M57 0zM485 694q-122 0 -195 -83.5t-73 -210.5q0 -128 73.5 -209.5t196.5 -82.5q62 0 119 27.5t126 86.5v345q-69 66 -127 96.5t-120 30.5zM459 -18q-174 0 -288 115t-114 293q0 182 111 306t285 124q157 0 281 -107v324h-162v116h310v-1037h152v-116h-304l-1 99 q-61 -60 -125 -88.5t-145 -28.5zM1430 1153v-211q1 -122 -52.5 -179.5t-168.5 -57.5h-6v87q67 14 94 45.5t27 104.5h-121v211h227z" />
<glyph unicode="&#x111;" horiz-adv-x="1071" d="M460 -18q-174 0 -288 115t-114 293q0 182 111 306t285 124q172 0 296 -107v169h-223v85h223v70h-162v116h310v-186h101v-85h-101v-766h152v-116h-304l-1 99q-119 -117 -285 -117zM486 694q-122 0 -195 -83.5t-73 -210.5q0 -128 73.5 -209.5t196.5 -82.5q128 0 260 114 v345q-133 127 -262 127z" />
<glyph unicode="&#x112;" horiz-adv-x="1119" d="M72 0zM72 0v116h156v921h-156v116h971v-321h-131v205h-525v-382h362v114h100v-359h-101v116h-359v-410h525v212h129v-328h-971zM357 1381h376v-108h-376v108z" />
<glyph unicode="&#x113;" horiz-adv-x="955" d="M57 0zM757 467q-12 101 -79.5 164t-174.5 63q-116 0 -187 -59t-90 -168h531zM505 -18q-195 0 -321.5 116.5t-126.5 303.5q0 181 127.5 299.5t314.5 118.5q189 0 295.5 -125.5t106.5 -329.5h-679q7 -117 83.5 -187t199.5 -71q81 0 153.5 34.5t111.5 91.5l102 -76 q-114 -175 -367 -175zM288 1030h376v-108h-376v108z" />
<glyph unicode="&#x116;" horiz-adv-x="1119" d="M72 0zM72 0v116h156v921h-156v116h971v-321h-131v205h-525v-382h362v114h100v-359h-101v116h-359v-410h525v212h129v-328h-971zM455 1360q-1 37 26 62t65 25t64.5 -23.5t26.5 -63.5q1 -36 -24.5 -62t-66.5 -26q-36 0 -63.5 26t-27.5 62z" />
<glyph unicode="&#x117;" horiz-adv-x="955" d="M57 0zM757 467q-12 101 -79.5 164t-174.5 63q-116 0 -187 -59t-90 -168h531zM505 -18q-195 0 -321.5 116.5t-126.5 303.5q0 181 127.5 299.5t314.5 118.5q189 0 295.5 -125.5t106.5 -329.5h-679q7 -117 83.5 -187t199.5 -71q81 0 153.5 34.5t111.5 91.5l102 -76 q-114 -175 -367 -175zM385 1010q-1 37 26 62t65 25t64.5 -23.5t26.5 -63.5q1 -36 -24.5 -62t-66.5 -26q-36 0 -63.5 26t-27.5 62z" />
<glyph unicode="&#x118;" horiz-adv-x="1119" d="M72 0zM72 0v116h156v921h-156v116h971v-321h-131v205h-525v-382h362v114h100v-359h-101v116h-359v-410h525v212h129v-328h-971zM674 -341q-84 0 -136.5 48t-52.5 129q0 78 60 176h114q-45 -62 -45 -126q0 -107 98 -107q42 0 87 20v-103q-75 -37 -125 -37z" />
<glyph unicode="&#x119;" horiz-adv-x="955" d="M57 0zM757 467q-12 101 -79.5 164t-174.5 63q-116 0 -187 -59t-90 -168h531zM505 -18q-195 0 -321.5 116.5t-126.5 303.5q0 181 127.5 299.5t314.5 118.5q189 0 295.5 -125.5t106.5 -329.5h-679q7 -117 83.5 -187t199.5 -71q81 0 153.5 34.5t111.5 91.5l102 -76 q-114 -175 -367 -175zM548 -359q-84 0 -136.5 48t-52.5 129q0 78 60 176h114q-45 -62 -45 -126q0 -107 98 -107q42 0 87 20v-103q-75 -37 -125 -37z" />
<glyph unicode="&#x11a;" horiz-adv-x="1119" d="M72 0zM72 0v116h156v921h-156v116h971v-321h-131v205h-525v-382h362v114h100v-359h-101v116h-359v-410h525v212h129v-328h-971zM394 1531l154 -154l152 154h104l-159 -259h-196l-162 259h107z" />
<glyph unicode="&#x11b;" horiz-adv-x="955" d="M57 0zM757 467q-12 101 -79.5 164t-174.5 63q-116 0 -187 -59t-90 -168h531zM505 -18q-195 0 -321.5 116.5t-126.5 303.5q0 181 127.5 299.5t314.5 118.5q189 0 295.5 -125.5t106.5 -329.5h-679q7 -117 83.5 -187t199.5 -71q81 0 153.5 34.5t111.5 91.5l102 -76 q-114 -175 -367 -175zM325 1181l154 -154l152 154h104l-159 -259h-196l-162 259h107z" />
<glyph unicode="&#x11e;" horiz-adv-x="1294" d="M66 0zM66 575q0 264 161.5 430t425.5 166q238 0 387 -149v131h130v-349h-124q-119 233 -384 233q-194 0 -305.5 -128t-111.5 -333q0 -207 115 -333.5t317 -126.5q182 0 279.5 83.5t102.5 236.5h-227v127h391q0 -289 -136.5 -435t-408.5 -146q-284 0 -448 157t-164 436z M906 1486q-9 -95 -77 -154t-177 -59q-105 0 -176 58.5t-78 154.5h124q9 -51 46.5 -78.5t85.5 -27.5q47 0 83.5 27.5t43.5 78.5h125z" />
<glyph unicode="&#x11f;" horiz-adv-x="1069" d="M57 0zM731 571q-129 123 -250 123q-122 0 -193 -83t-71 -211q0 -123 73 -199t196 -76q61 0 118 25t127 79v342zM57 398q0 173 110 297.5t276 124.5q163 0 288 -111v96h301v-116h-151v-692q0 -105 -55.5 -178t-146.5 -106t-210 -33q-175 0 -285 67l47 110q104 -53 230 -53 q74 0 132 15t98 54.5t40 99.5v120q-51 -49 -115 -71t-169 -22q-165 0 -277.5 117t-112.5 281zM808 1135q-9 -95 -77 -154t-177 -59q-105 0 -176 58.5t-78 154.5h124q9 -51 46.5 -78.5t85.5 -27.5q47 0 83.5 27.5t43.5 78.5h125z" />
<glyph unicode="&#x120;" horiz-adv-x="1294" d="M66 0zM66 575q0 264 161.5 430t425.5 166q238 0 387 -149v131h130v-349h-124q-119 233 -384 233q-194 0 -305.5 -128t-111.5 -333q0 -207 115 -333.5t317 -126.5q182 0 279.5 83.5t102.5 236.5h-227v127h391q0 -289 -136.5 -435t-408.5 -146q-284 0 -448 157t-164 436z M562 1361q-1 37 26 62t65 25t64.5 -23.5t26.5 -63.5q1 -36 -24.5 -62t-66.5 -26q-36 0 -63.5 26t-27.5 62z" />
<glyph unicode="&#x121;" horiz-adv-x="1069" d="M57 0zM731 571q-129 123 -250 123q-122 0 -193 -83t-71 -211q0 -123 73 -199t196 -76q61 0 118 25t127 79v342zM57 398q0 173 110 297.5t276 124.5q163 0 288 -111v96h301v-116h-151v-692q0 -105 -55.5 -178t-146.5 -106t-210 -33q-175 0 -285 67l47 110q104 -53 230 -53 q74 0 132 15t98 54.5t40 99.5v120q-51 -49 -115 -71t-169 -22q-165 0 -277.5 117t-112.5 281zM463 1010q-1 37 26 62t65 25t64.5 -23.5t26.5 -63.5q1 -36 -24.5 -62t-66.5 -26q-36 0 -63.5 26t-27.5 62z" />
<glyph unicode="&#x122;" horiz-adv-x="1294" d="M66 0zM66 575q0 264 161.5 430t425.5 166q238 0 387 -149v131h130v-349h-124q-119 233 -384 233q-194 0 -305.5 -128t-111.5 -333q0 -207 115 -333.5t317 -126.5q182 0 279.5 83.5t102.5 236.5h-227v127h391q0 -289 -136.5 -435t-408.5 -146q-284 0 -448 157t-164 436z M547 -120h212v-212q-1 -120 -51.5 -177.5t-160.5 -59.5v88q59 12 82.5 45t23.5 104h-106v212z" />
<glyph unicode="&#x123;" horiz-adv-x="1069" d="M57 0zM731 571q-129 123 -250 123q-122 0 -193 -83t-71 -211q0 -123 73 -199t196 -76q61 0 118 25t127 79v342zM57 398q0 173 110 297.5t276 124.5q163 0 288 -111v96h301v-116h-151v-692q0 -105 -55.5 -178t-146.5 -106t-210 -33q-175 0 -285 67l47 110q104 -53 230 -53 q74 0 132 15t98 54.5t40 99.5v120q-51 -49 -115 -71t-169 -22q-165 0 -277.5 117t-112.5 281zM625 918h-212v212q1 120 51.5 177.5t160.5 59.5v-88q-59 -12 -82.5 -45t-23.5 -104h106v-212z" />
<glyph unicode="&#x11d;" horiz-adv-x="1069" d="M57 0zM731 571q-129 123 -250 123q-122 0 -193 -83t-71 -211q0 -123 73 -199t196 -76q61 0 118 25t127 79v342zM57 398q0 173 110 297.5t276 124.5q163 0 288 -111v96h301v-116h-151v-692q0 -105 -55.5 -178t-146.5 -106t-210 -33q-175 0 -285 67l47 110q104 -53 230 -53 q74 0 132 15t98 54.5t40 99.5v120q-51 -49 -115 -71t-169 -22q-165 0 -277.5 117t-112.5 281zM315 922l98 275h275l104 -275h-148l-93 230l-93 -230h-143z" />
<glyph unicode="&#x11c;" horiz-adv-x="1294" d="M66 0zM66 575q0 264 161.5 430t425.5 166q238 0 387 -149v131h130v-349h-124q-119 233 -384 233q-194 0 -305.5 -128t-111.5 -333q0 -207 115 -333.5t317 -126.5q182 0 279.5 83.5t102.5 236.5h-227v127h391q0 -289 -136.5 -435t-408.5 -146q-284 0 -448 157t-164 436z M414 1273l98 275h275l104 -275h-148l-93 230l-93 -230h-143z" />
<glyph unicode="&#x124;" horiz-adv-x="1294" d="M72 0zM72 0v116h139v921h-139v116h443v-116h-144v-370h551v370h-142v116h442v-116h-139v-921h139v-116h-442v116h143v422h-551v-422h143v-116h-443zM408 1272l98 275h275l104 -275h-148l-93 230l-93 -230h-143z" />
<glyph unicode="&#x125;" horiz-adv-x="1024" d="M21 0zM733 528q0 166 -141 166q-140 0 -270 -87v-491h145v-116h-446v116h152v921h-150v116h299v-427q142 94 304 94q255 0 255 -264v-440h144v-116h-394v116h102v412zM284 1255l98 275h275l104 -275h-148l-93 230l-93 -230h-143z" />
<glyph unicode="&#x126;" horiz-adv-x="1294" d="M922 810h-551v-143h551v143zM72 0v116h139v694h-140v85h140v142h-139v116h443v-116h-144v-142h551v142h-142v116h442v-116h-139v-142h138v-85h-138v-694h139v-116h-442v116h143v422h-551v-422h143v-116h-443z" />
<glyph unicode="&#x127;" horiz-adv-x="1024" d="M733 528q0 166 -141 166q-140 0 -270 -87v-491h145v-116h-446v116h152v766h-127v85h127v70h-150v116h299v-186h140v-85h-140v-156q142 94 304 94q255 0 255 -264v-440h144v-116h-394v116h102v412z" />
<glyph unicode="&#x128;" horiz-adv-x="581" d="M0 0zM135 1372q-56 0 -68 -62h-80q13 157 113 197q30 12 66 12q49 0 146 -35t129 -35q62 0 77 65h78q-7 -92 -50 -152.5t-120 -59.5q-70 0 -163 35t-128 35zM77 0v116h134v921h-134v116h428v-116h-132v-921h132v-116h-428z" />
<glyph unicode="&#x129;" horiz-adv-x="509" d="M0 0zM100 1024q-56 0 -68 -62h-80q13 157 113 197q30 12 66 12q49 0 146 -35t129 -35q62 0 77 65h78q-7 -92 -50 -152.5t-120 -59.5q-70 0 -163 35t-128 35zM59 113h135v576h-135v116h284v-692h136v-113h-420v113z" />
<glyph unicode="&#x12a;" horiz-adv-x="581" d="M77 0zM77 0v116h134v921h-134v116h428v-116h-132v-921h132v-116h-428zM101 1381h376v-108h-376v108z" />
<glyph unicode="&#x12b;" horiz-adv-x="509" d="M59 0zM59 113h135v576h-135v116h284v-692h136v-113h-420v113zM81 1030h376v-108h-376v108z" />
<glyph unicode="&#x12c;" horiz-adv-x="581" d="M35 0zM77 0v116h134v921h-134v116h428v-116h-132v-921h132v-116h-428zM543 1485q-9 -95 -77 -154t-177 -59q-105 0 -176 58.5t-78 154.5h124q9 -51 46.5 -78.5t85.5 -27.5q47 0 83.5 27.5t43.5 78.5h125z" />
<glyph unicode="&#x12d;" horiz-adv-x="509" d="M15 0zM59 113h135v576h-135v116h284v-692h136v-113h-420v113zM523 1135q-9 -95 -77 -154t-177 -59q-105 0 -176 58.5t-78 154.5h124q9 -51 46.5 -78.5t85.5 -27.5q47 0 83.5 27.5t43.5 78.5h125z" />
<glyph unicode="&#x12e;" horiz-adv-x="581" d="M77 0zM77 0v116h134v921h-134v116h428v-116h-132v-921h132v-116h-428zM361 -341q-84 0 -136.5 48t-52.5 129q0 78 60 176h114q-45 -62 -45 -126q0 -107 98 -107q42 0 87 20v-103q-75 -37 -125 -37z" />
<glyph unicode="&#x12f;" horiz-adv-x="509" d="M60 0zM60 689v116h284v-689h136v-116h-420v116h135v573h-135zM177 1066q0 40 27 63t75 23q31 0 56 -27t25 -59q0 -34 -25 -60.5t-57 -26.5q-46 0 -73.5 23t-27.5 64zM341 -341q-84 0 -136.5 48t-52.5 129q0 78 60 176h114q-45 -62 -45 -126q0 -107 98 -107q42 0 87 20 v-103q-75 -37 -125 -37z" />
<glyph unicode="&#x130;" horiz-adv-x="581" d="M77 0zM77 0v116h134v921h-134v116h428v-116h-132v-921h132v-116h-428zM198 1360q-1 37 26 62t65 25t64.5 -23.5t26.5 -63.5q1 -36 -24.5 -62t-66.5 -26q-36 0 -63.5 26t-27.5 62z" />
<glyph unicode="&#x131;" horiz-adv-x="509" d="M59 113h135v576h-135v116h284v-692h136v-113h-420v113z" />
<glyph unicode="&#x132;" horiz-adv-x="1138" d="M77 0zM990 99q0 -131 -64.5 -205t-182.5 -73h-147v145h120q64 0 87.5 37t23.5 114v920h-155v116h471v-116h-153v-938zM77 0v116h134v921h-134v116h428v-116h-132v-921h132v-116h-428z" />
<glyph unicode="&#x133;" horiz-adv-x="942" d="M60 0zM833 19q0 -182 -59.5 -252t-223.5 -70h-91v124h107q69 0 92.5 42t23.5 129v697h-152v116h303v-786zM662 1066q0 37 26.5 62t65.5 25t65.5 -25t26.5 -62t-26.5 -62t-65.5 -25t-65.5 25t-26.5 62zM60 689v116h284v-689h136v-116h-420v116h135v573h-135zM177 1066 q0 40 27 63t75 23q31 0 56 -27t25 -59q0 -34 -25 -60.5t-57 -26.5q-46 0 -73.5 23t-27.5 64z" />
<glyph unicode="&#x134;" horiz-adv-x="557" d="M15 0zM409 99q0 -131 -64.5 -205t-182.5 -73h-147v145h120q64 0 87.5 37t23.5 114v920h-155v116h471v-116h-153v-938zM50 381v1365h544v-1365h-544zM118 449h408v1229h-408v-1229z" />
<glyph unicode="&#x135;" horiz-adv-x="441" d="M0 0zM-17 896l98 275h275l104 -275h-148l-93 230l-93 -230h-143zM47 -179q69 0 92.5 42t23.5 129v697h-152v116h303v-786q0 -162 -35 -217q-37 -57 -94.5 -81t-153.5 -24h-91v124h107z" />
<glyph unicode="&#x136;" horiz-adv-x="1139" d="M72 0zM1129 0h-466v116h128l-408 471v-471h139v-116h-450v116h150v921h-150v116h466v-116h-156v-419l421 419h-136v116h451v-116h-129l-421 -432l430 -489h131v-116zM487 -102h212v-212q-1 -120 -51.5 -177.5t-160.5 -59.5v88q59 12 82.5 45t23.5 104h-106v212z" />
<glyph unicode="&#x137;" horiz-adv-x="995" d="M17 0zM351 -678v1365h544v-1365h-544zM419 -610h408v1229h-408v-1229zM38 0v116h132v921h-153v116h301v-723l322 259h-132v116h447v-116h-139l-325 -274l332 -299h140v-116h-421v116h96l-320 289v-289h105v-116h-385z" />
<glyph unicode="&#x138;" horiz-adv-x="995" d="M20 116h153v573h-153v116h301v-385l329 269h-139v116h447v-116h-132l-332 -284l342 -289h130v-116h-421v116h106l-330 279v-279h105v-116h-406v116z" />
<glyph unicode="&#x139;" horiz-adv-x="984" d="M72 0zM72 0v116h158v921h-158v116h474v-116h-155v-921h410v336h145v-452h-874zM437 1272l99 257h207l-187 -257h-119z" />
<glyph unicode="&#x13a;" horiz-adv-x="487" d="M31 0zM36 0v116h144v921h-149v116h298v-1037h149v-116h-442zM179 1255l99 257h207l-187 -257h-119z" />
<glyph unicode="&#x13b;" horiz-adv-x="984" d="M72 0zM72 0v116h158v921h-158v116h474v-116h-155v-921h410v336h145v-452h-874zM390 -102h212v-212q-1 -120 -51.5 -177.5t-160.5 -59.5v88q59 12 82.5 45t23.5 104h-106v212z" />
<glyph unicode="&#x13c;" horiz-adv-x="487" d="M31 0zM36 0v116h144v921h-149v116h298v-1037h149v-116h-442zM132 -102h212v-212q-1 -120 -51.5 -177.5t-160.5 -59.5v88q59 12 82.5 45t23.5 104h-106v212z" />
<glyph unicode="&#x13d;" horiz-adv-x="984" d="M72 0zM72 0v116h158v921h-158v116h474v-116h-155v-921h410v336h145v-452h-874zM932 1171v-211q1 -122 -52.5 -179.5t-168.5 -57.5h-6v87q67 14 94 45.5t27 104.5h-121v211h227z" />
<glyph unicode="&#x13e;" horiz-adv-x="487" d="M31 0zM36 0v116h144v921h-149v116h298v-1037h149v-116h-442zM835 1153v-211q1 -122 -52.5 -179.5t-168.5 -57.5h-6v87q67 14 94 45.5t27 104.5h-121v211h227z" />
<glyph unicode="&#x13f;" horiz-adv-x="984" d="M72 0zM72 0v116h158v921h-158v116h474v-116h-155v-921h410v336h145v-452h-874zM625 826h227v-211h-227v211z" />
<glyph unicode="&#x140;" horiz-adv-x="901" d="M31 0zM36 0v116h144v921h-149v116h298v-1037h149v-116h-442zM573 657h227v-211h-227v211z" />
<glyph unicode="&#x141;" horiz-adv-x="984" d="M59 0v116h158v396l-157 -62v129l157 62v396h-158v116h474v-116h-155v-332l249 100v-129l-249 -100v-460h410v336h145v-452h-874z" />
<glyph unicode="&#x142;" horiz-adv-x="487" d="M21 0v116h152v385l-137 -51v129l137 53v405h-149v116h298v-463l150 58v-136l-150 -56v-440h133v-116h-434z" />
<glyph unicode="&#x143;" horiz-adv-x="1322" d="M72 0zM1002 1037h-165v116h472v-116h-173v-1037h-183l-578 997v-881h169v-116h-472v116h169v921h-169v116h382l548 -942v826zM615 1272l99 257h207l-187 -257h-119z" />
<glyph unicode="&#x144;" horiz-adv-x="1031" d="M57 0zM727 507q0 90 -27 138.5t-98 48.5q-117 0 -245 -124v-454h145v-116h-439v116h143v573h-149v116h296l4 -104q154 119 273 119q117 0 180.5 -69t64.5 -189l-1 -446h145v-116h-402v116h110v391zM479 922l99 257h207l-187 -257h-119z" />
<glyph unicode="&#x145;" horiz-adv-x="1322" d="M72 0zM1002 1037h-165v116h472v-116h-173v-1037h-183l-578 997v-881h169v-116h-472v116h169v921h-169v116h382l548 -942v826zM569 -102h212v-212q-1 -120 -51.5 -177.5t-160.5 -59.5v88q59 12 82.5 45t23.5 104h-106v212z" />
<glyph unicode="&#x146;" horiz-adv-x="1031" d="M57 0zM727 507q0 90 -27 138.5t-98 48.5q-117 0 -245 -124v-454h145v-116h-439v116h143v573h-149v116h296l4 -104q154 119 273 119q117 0 180.5 -69t64.5 -189l-1 -446h145v-116h-402v116h110v391zM432 -102h212v-212q-1 -120 -51.5 -177.5t-160.5 -59.5v88 q59 12 82.5 45t23.5 104h-106v212z" />
<glyph unicode="&#x147;" horiz-adv-x="1322" d="M72 0zM1002 1037h-165v116h472v-116h-173v-1037h-183l-578 997v-881h169v-116h-472v116h169v921h-169v116h382l548 -942v826zM523 1531l154 -154l152 154h104l-159 -259h-196l-162 259h107z" />
<glyph unicode="&#x148;" horiz-adv-x="1031" d="M57 0zM727 507q0 90 -27 138.5t-98 48.5q-117 0 -245 -124v-454h145v-116h-439v116h143v573h-149v116h296l4 -104q154 119 273 119q117 0 180.5 -69t64.5 -189l-1 -446h145v-116h-402v116h110v391zM387 1181l154 -154l152 154h104l-159 -259h-196l-162 259h107z" />
<glyph unicode="&#x14c;" horiz-adv-x="1321" d="M66 0zM660 116q-183 0 -300 133.5t-117 326.5q0 194 116.5 327t300.5 134q185 -1 301.5 -133.5t116.5 -327.5t-116.5 -327.5t-301.5 -132.5zM66 575q0 -171 75 -306t210.5 -211t308.5 -77q173 0 309.5 77t211.5 212.5t75 304.5q0 262 -166 428.5t-431 166.5 q-264 0 -428.5 -166.5t-164.5 -428.5zM473 1381h376v-108h-376v108z" />
<glyph unicode="&#x14d;" horiz-adv-x="966" d="M57 0zM484 820q186 0 306 -118t120 -300q0 -183 -121 -301.5t-307 -118.5t-305.5 120t-119.5 304q0 180 121.5 297t305.5 117zM750 401q0 126 -73.5 209.5t-194.5 83.5q-120 0 -193 -83.5t-73 -209.5t73.5 -209.5t192.5 -84.5q120 1 194 84t74 210zM295 1030h376v-108 h-376v108z" />
<glyph unicode="&#x14e;" horiz-adv-x="1321" d="M66 0zM660 116q-183 0 -300 133.5t-117 326.5q0 194 116.5 327t300.5 134q185 -1 301.5 -133.5t116.5 -327.5t-116.5 -327.5t-301.5 -132.5zM66 575q0 -171 75 -306t210.5 -211t308.5 -77q173 0 309.5 77t211.5 212.5t75 304.5q0 262 -166 428.5t-431 166.5 q-264 0 -428.5 -166.5t-164.5 -428.5zM915 1486q-9 -95 -77 -154t-177 -59q-105 0 -176 58.5t-78 154.5h124q9 -51 46.5 -78.5t85.5 -27.5q47 0 83.5 27.5t43.5 78.5h125z" />
<glyph unicode="&#x14f;" horiz-adv-x="966" d="M57 0zM484 820q186 0 306 -118t120 -300q0 -183 -121 -301.5t-307 -118.5t-305.5 120t-119.5 304q0 180 121.5 297t305.5 117zM750 401q0 126 -73.5 209.5t-194.5 83.5q-120 0 -193 -83.5t-73 -209.5t73.5 -209.5t192.5 -84.5q120 1 194 84t74 210zM737 1135 q-9 -95 -77 -154t-177 -59q-105 0 -176 58.5t-78 154.5h124q9 -51 46.5 -78.5t85.5 -27.5q47 0 83.5 27.5t43.5 78.5h125z" />
<glyph unicode="&#x150;" horiz-adv-x="1321" d="M66 0zM660 116q-183 0 -300 133.5t-117 326.5q0 194 116.5 327t300.5 134q185 -1 301.5 -133.5t116.5 -327.5t-116.5 -327.5t-301.5 -132.5zM66 575q0 -171 75 -306t210.5 -211t308.5 -77q173 0 309.5 77t211.5 212.5t75 304.5q0 262 -166 428.5t-431 166.5 q-264 0 -428.5 -166.5t-164.5 -428.5zM483 1273l91 272h190l-185 -272h-96zM745 1273l90 272h190l-185 -272h-95z" />
<glyph unicode="&#x151;" horiz-adv-x="966" d="M57 0zM484 820q186 0 306 -118t120 -300q0 -183 -121 -301.5t-307 -118.5t-305.5 120t-119.5 304q0 180 121.5 297t305.5 117zM750 401q0 126 -73.5 209.5t-194.5 83.5q-120 0 -193 -83.5t-73 -209.5t73.5 -209.5t192.5 -84.5q120 1 194 84t74 210zM305 922l91 272h190 l-185 -272h-96zM567 922l90 272h190l-185 -272h-95z" />
<glyph unicode="&#x152;" horiz-adv-x="1920" d="M245 577q-1 -208 115.5 -334.5t312.5 -126.5q180 0 344 119v698q-170 104 -353 104q-197 1 -308.5 -124t-110.5 -336zM67 575q0 167 69 302.5t197 214t291 78.5q249 0 393 -113v96h815v-321h-132v205h-524v-382h362v114h100v-359h-101v116h-359v-410h525v212h129v-328 h-815v95q-146 -113 -393 -113q-163 0 -291 78.5t-197 213.5t-69 301z" />
<glyph unicode="&#x153;" horiz-adv-x="1648" d="M1445 467q-12 101 -79.5 164t-174.5 63q-116 0 -188 -59t-89 -168h531zM750 401q0 126 -73.5 209.5t-194.5 83.5q-120 0 -193 -83.5t-73 -209.5t73.5 -209.5t192.5 -84.5q120 1 194 84t74 210zM57 402q-1 182 120 300t307 118q119 0 207.5 -52t142.5 -138 q55 83 145 136.5t203 53.5q193 0 299.5 -126t107.5 -329h-679q6 -117 82.5 -187.5t199.5 -70.5q81 0 154 34.5t112 91.5l102 -76q-114 -175 -367 -175q-122 0 -213 51.5t-147 138.5q-121 -190 -351 -190q-185 0 -305 119t-120 301z" />
<glyph unicode="&#x154;" horiz-adv-x="1107" d="M72 0zM400 1262l99 257h207l-187 -257h-119zM623 1153q380 0 380 -298q0 -246 -259 -297l234 -442h146v-116h-253l-283 538h-193v-422h156v-116h-479v116h163v921h-163v116h551zM395 657h223q106 1 162.5 51.5t56.5 148.5q0 88 -62.5 134t-163.5 46h-216v-380z" />
<glyph unicode="&#x155;" horiz-adv-x="761" d="M57 0zM346 630q47 98 113 139t178 41q51 0 92 -5v-124q-78 2 -99 2q-134 0 -194 -77t-62 -226v-264h176v-116h-487v116h161v573h-167v116h289v-175zM337 922l99 257h207l-187 -257h-119z" />
<glyph unicode="&#x156;" horiz-adv-x="1107" d="M72 0zM407 -705v1365h544v-1365h-544zM475 -637h408v1229h-408v-1229zM623 1153q380 0 380 -298q0 -246 -259 -297l234 -442h146v-116h-253l-283 538h-193v-422h156v-116h-479v116h163v921h-163v116h551zM395 657h223q106 1 162.5 51.5t56.5 148.5q0 88 -62.5 134 t-163.5 46h-216v-380z" />
<glyph unicode="&#x157;" horiz-adv-x="761" d="M57 0zM346 630q47 98 113 139t178 41q51 0 92 -5v-124q-78 2 -99 2q-134 0 -194 -77t-62 -226v-264h176v-116h-487v116h161v573h-167v116h289v-175zM218 -102h212v-212q-1 -120 -51.5 -177.5t-160.5 -59.5v88q59 12 82.5 45t23.5 104h-106v212z" />
<glyph unicode="&#x158;" horiz-adv-x="1107" d="M72 0zM402 1519l154 -154l152 154h104l-159 -259h-196l-162 259h107zM623 1153q380 0 380 -298q0 -246 -259 -297l234 -442h146v-116h-253l-283 538h-193v-422h156v-116h-479v116h163v921h-163v116h551zM395 657h223q106 1 162.5 51.5t56.5 148.5q0 88 -62.5 134 t-163.5 46h-216v-380z" />
<glyph unicode="&#x159;" horiz-adv-x="761" d="M57 0zM229 1171l154 -154l152 154h104l-159 -259h-196l-162 259h107zM346 630q47 98 113 139t178 41q51 0 92 -5v-124q-78 2 -99 2q-134 0 -194 -77t-62 -226v-264h176v-116h-487v116h161v573h-167v116h289v-175z" />
<glyph unicode="&#x15a;" horiz-adv-x="972" d="M92 0zM506 116q104 0 173.5 48t69.5 134q0 55 -22.5 94.5t-60.5 62.5t-87.5 39t-104 28.5t-108.5 26t-103.5 37t-87.5 56t-60.5 88t-22.5 128.5q0 146 100.5 229.5t255.5 83.5q151 0 269 -92v74h135v-327h-135v82q-95 129 -251 129q-103 0 -160.5 -44.5t-57.5 -137.5 q0 -47 23 -80.5t61.5 -53.5t88.5 -34.5t105 -28t110 -28.5t105 -41t88.5 -61t61.5 -92.5t23 -132.5q0 -145 -110 -233t-272 -88q-171 0 -297 105v-87h-135v387h135v-116q119 -155 271 -155zM439 1273l99 257h207l-187 -257h-119z" />
<glyph unicode="&#x15b;" horiz-adv-x="809" d="M88 0zM765 228q0 -117 -88 -181.5t-222 -64.5q-71 0 -134 23.5t-98 64.5v-70h-133v272h133v-69q26 -43 81 -73t125 -30q183 0 183 117q1 30 -13.5 51t-46 33.5t-57.5 18t-72 12.5q-68 10 -115 21t-91.5 29.5t-71 44.5t-42 65.5t-15.5 91.5q0 106 87.5 171t201.5 65 q115 0 213 -80v65h129v-256h-129v67q-71 86 -199 86q-65 0 -113.5 -26t-48.5 -74q0 -26 8 -44.5t19.5 -29.5t36 -19.5t44 -12.5t56.5 -10q64 -10 103 -18t87.5 -21.5t77 -31t55 -43.5t38 -62t11.5 -82zM354 922l99 257h207l-187 -257h-119z" />
<glyph unicode="&#x15e;" horiz-adv-x="972" d="M92 0zM506 116q104 0 173.5 48t69.5 134q0 55 -22.5 94.5t-60.5 62.5t-87.5 39t-104 28.5t-108.5 26t-103.5 37t-87.5 56t-60.5 88t-22.5 128.5q0 146 100.5 229.5t255.5 83.5q151 0 269 -92v74h135v-327h-135v82q-95 129 -251 129q-103 0 -160.5 -44.5t-57.5 -137.5 q0 -47 23 -80.5t61.5 -53.5t88.5 -34.5t105 -28t110 -28.5t105 -41t88.5 -61t61.5 -92.5t23 -132.5q0 -145 -110 -233t-272 -88q-171 0 -297 105v-87h-135v387h135v-116q119 -155 271 -155zM636 -229q0 -68 -59.5 -106.5t-152.5 -38.5q-54 0 -102 8v92q50 -8 86 -8 q95 0 95 51t-98 60l58 165h72l-27 -124q128 -15 128 -99z" />
<glyph unicode="&#x15f;" horiz-adv-x="809" d="M88 0zM765 228q0 -117 -88 -181.5t-222 -64.5q-71 0 -134 23.5t-98 64.5v-70h-133v272h133v-69q26 -43 81 -73t125 -30q183 0 183 117q1 30 -13.5 51t-46 33.5t-57.5 18t-72 12.5q-68 10 -115 21t-91.5 29.5t-71 44.5t-42 65.5t-15.5 91.5q0 106 87.5 171t201.5 65 q115 0 213 -80v65h129v-256h-129v67q-71 86 -199 86q-65 0 -113.5 -26t-48.5 -74q0 -26 8 -44.5t19.5 -29.5t36 -19.5t44 -12.5t56.5 -10q64 -10 103 -18t87.5 -21.5t77 -31t55 -43.5t38 -62t11.5 -82zM550 -229q0 -68 -59.5 -106.5t-152.5 -38.5q-54 0 -102 8v92 q50 -8 86 -8q95 0 95 51t-98 60l58 165h72l-27 -124q128 -15 128 -99z" />
<glyph unicode="&#x160;" horiz-adv-x="972" d="M92 0zM334 1519l154 -154l152 154h104l-159 -259h-196l-162 259h107zM506 116q104 0 173.5 48t69.5 134q0 55 -22.5 94.5t-60.5 62.5t-87.5 39t-104 28.5t-108.5 26t-103.5 37t-87.5 56t-60.5 88t-22.5 128.5q0 146 100.5 229.5t255.5 83.5q151 0 269 -92v74h135v-327 h-135v82q-95 129 -251 129q-103 0 -160.5 -44.5t-57.5 -137.5q0 -47 23 -80.5t61.5 -53.5t88.5 -34.5t105 -28t110 -28.5t105 -41t88.5 -61t61.5 -92.5t23 -132.5q0 -145 -110 -233t-272 -88q-171 0 -297 105v-87h-135v387h135v-116q119 -155 271 -155z" />
<glyph unicode="&#x161;" horiz-adv-x="809" d="M88 0zM253 1171l154 -154l152 154h104l-159 -259h-196l-162 259h107zM765 228q0 -117 -88 -181.5t-222 -64.5q-71 0 -134 23.5t-98 64.5v-70h-133v272h133v-69q26 -43 81 -73t125 -30q183 0 183 117q1 30 -13.5 51t-46 33.5t-57.5 18t-72 12.5q-68 10 -115 21t-91.5 29.5 t-71 44.5t-42 65.5t-15.5 91.5q0 106 87.5 171t201.5 65q115 0 213 -80v65h129v-256h-129v67q-71 86 -199 86q-65 0 -113.5 -26t-48.5 -74q0 -26 8 -44.5t19.5 -29.5t36 -19.5t44 -12.5t56.5 -10q64 -10 103 -18t87.5 -21.5t77 -31t55 -43.5t38 -62t11.5 -82z" />
<glyph unicode="&#x15d;" horiz-adv-x="809" d="M88 0zM765 228q0 -117 -88 -181.5t-222 -64.5q-71 0 -134 23.5t-98 64.5v-70h-133v272h133v-69q26 -43 81 -73t125 -30q183 0 183 117q1 30 -13.5 51t-46 33.5t-57.5 18t-72 12.5q-68 10 -115 21t-91.5 29.5t-71 44.5t-42 65.5t-15.5 91.5q0 106 87.5 171t201.5 65 q115 0 213 -80v65h129v-256h-129v67q-71 86 -199 86q-65 0 -113.5 -26t-48.5 -74q0 -26 8 -44.5t19.5 -29.5t36 -19.5t44 -12.5t56.5 -10q64 -10 103 -18t87.5 -21.5t77 -31t55 -43.5t38 -62t11.5 -82zM175 922l98 275h275l104 -275h-148l-93 230l-93 -230h-143z" />
<glyph unicode="&#x162;" horiz-adv-x="1034" d="M31 0zM978 1153v-348h-131v232h-259v-921h174v-116h-512v116h175v921h-265v-232h-129v348h947zM654 -211q0 -68 -59.5 -106.5t-152.5 -38.5q-54 0 -102 8v92q50 -8 86 -8q95 0 95 51t-98 60l58 165h72l-27 -124q128 -15 128 -99z" />
<glyph unicode="&#x163;" horiz-adv-x="528" d="M17 0zM357 0q-70 0 -113.5 17t-65.5 57.5t-29.5 91t-7.5 134.5v389h-124v116h124v258l151 32v-290h173v-116h-173v-400v-14v-42.5t1.5 -34.5t5 -30t9.5 -21.5t15 -17.5t22.5 -9t31.5 -4h118v-116h-138zM477 -211q0 -68 -59.5 -106.5t-152.5 -38.5q-54 0 -102 8v92 q50 -8 86 -8q95 0 95 51t-98 60l58 165h72l-27 -124q128 -15 128 -99z" />
<glyph unicode="&#x164;" horiz-adv-x="1034" d="M31 0zM978 1153v-348h-131v232h-259v-921h174v-116h-512v116h175v921h-265v-232h-129v348h947zM365 1531l154 -154l152 154h104l-159 -259h-196l-162 259h107z" />
<glyph unicode="&#x165;" horiz-adv-x="528" d="M17 0zM357 0q-70 0 -113.5 17t-65.5 57.5t-29.5 91t-7.5 134.5v389h-124v116h124v258l151 32v-290h173v-116h-173v-400v-14v-42.5t1.5 -34.5t5 -30t9.5 -21.5t15 -17.5t22.5 -9t31.5 -4h118v-116h-138zM893 1095v-211q1 -122 -52.5 -179.5t-168.5 -57.5h-6v87 q67 14 94 45.5t27 104.5h-121v211h227z" />
<glyph unicode="&#x168;" horiz-adv-x="1211" d="M16 0zM580 -18q-200 0 -308 101.5t-108 298.5v655h-148v116h452v-116h-142v-659q0 -136 63.5 -199t197.5 -63q141 0 202 65.5t61 207.5v648h-142v116h451v-116h-147v-657q0 -398 -432 -398zM449 1343q-56 0 -68 -62h-80q13 157 113 197q30 12 66 12q49 0 146 -35t129 -35 q62 0 77 65h78q-7 -92 -50 -152.5t-120 -59.5q-70 0 -163 35t-128 35z" />
<glyph unicode="&#x169;" horiz-adv-x="994" d="M19 0zM416 107q134 0 244 143v439h-145v116h296v-689h146v-116h-292l-5 100q-124 -118 -272 -118q-249 0 -249 279v428h-120v116h272v-537q0 -161 125 -161zM345 993q-56 0 -68 -62h-80q13 157 113 197q30 12 66 12q49 0 146 -35t129 -35q62 0 77 65h78 q-7 -92 -50 -152.5t-120 -59.5q-70 0 -163 35t-128 35z" />
<glyph unicode="&#x16a;" horiz-adv-x="1211" d="M16 0zM580 -18q-200 0 -308 101.5t-108 298.5v655h-148v116h452v-116h-142v-659q0 -136 63.5 -199t197.5 -63q141 0 202 65.5t61 207.5v648h-142v116h451v-116h-147v-657q0 -398 -432 -398zM417 1381h376v-108h-376v108z" />
<glyph unicode="&#x16b;" horiz-adv-x="994" d="M19 0zM416 107q134 0 244 143v439h-145v116h296v-689h146v-116h-292l-5 100q-124 -118 -272 -118q-249 0 -249 279v428h-120v116h272v-537q0 -161 125 -161zM313 1030h376v-108h-376v108z" />
<glyph unicode="&#x16c;" horiz-adv-x="1211" d="M16 0zM580 -18q-200 0 -308 101.5t-108 298.5v655h-148v116h452v-116h-142v-659q0 -136 63.5 -199t197.5 -63q141 0 202 65.5t61 207.5v648h-142v116h451v-116h-147v-657q0 -398 -432 -398zM860 1485q-9 -95 -77 -154t-177 -59q-105 0 -176 58.5t-78 154.5h124 q9 -51 46.5 -78.5t85.5 -27.5q47 0 83.5 27.5t43.5 78.5h125z" />
<glyph unicode="&#x16d;" horiz-adv-x="994" d="M19 0zM416 107q134 0 244 143v439h-145v116h296v-689h146v-116h-292l-5 100q-124 -118 -272 -118q-249 0 -249 279v428h-120v116h272v-537q0 -161 125 -161zM755 1135q-9 -95 -77 -154t-177 -59q-105 0 -176 58.5t-78 154.5h124q9 -51 46.5 -78.5t85.5 -27.5 q47 0 83.5 27.5t43.5 78.5h125z" />
<glyph unicode="&#x16e;" horiz-adv-x="1211" d="M16 0zM580 -18q-200 0 -308 101.5t-108 298.5v655h-148v116h452v-116h-142v-659q0 -136 63.5 -199t197.5 -63q141 0 202 65.5t61 207.5v648h-142v116h451v-116h-147v-657q0 -398 -432 -398zM709 1434q0 42 -28.5 70t-75.5 28q-43 0 -74 -28.5t-31 -69.5q1 -42 31.5 -70 t73.5 -29q43 0 73.5 27t30.5 72zM437 1434q0 68 49 114t119 45q70 1 119.5 -45t49.5 -114q1 -68 -49 -114t-120 -47q-70 0 -119 46.5t-49 114.5z" />
<glyph unicode="&#x16f;" horiz-adv-x="994" d="M19 0zM416 107q134 0 244 143v439h-145v116h296v-689h146v-116h-292l-5 100q-124 -118 -272 -118q-249 0 -249 279v428h-120v116h272v-537q0 -161 125 -161zM604 1083q0 42 -28.5 70t-75.5 28q-43 0 -74 -28.5t-31 -69.5q1 -42 31.5 -70t73.5 -29q43 0 73.5 27t30.5 72z M332 1083q0 68 49 114t119 45q70 1 119.5 -45t49.5 -114q1 -68 -49 -114t-120 -47q-70 0 -119 46.5t-49 114.5z" />
<glyph unicode="&#x170;" horiz-adv-x="1211" d="M16 0zM580 -18q-200 0 -308 101.5t-108 298.5v655h-148v116h452v-116h-142v-659q0 -136 63.5 -199t197.5 -63q141 0 202 65.5t61 207.5v648h-142v116h451v-116h-147v-657q0 -398 -432 -398zM427 1273l91 272h190l-185 -272h-96zM689 1273l90 272h190l-185 -272h-95z" />
<glyph unicode="&#x171;" horiz-adv-x="994" d="M19 0zM416 107q134 0 244 143v439h-145v116h296v-689h146v-116h-292l-5 100q-124 -118 -272 -118q-249 0 -249 279v428h-120v116h272v-537q0 -161 125 -161zM323 922l91 272h190l-185 -272h-96zM585 922l90 272h190l-185 -272h-95z" />
<glyph unicode="&#x172;" horiz-adv-x="1211" d="M16 0zM580 -18q-200 0 -308 101.5t-108 298.5v655h-148v116h452v-116h-142v-659q0 -136 63.5 -199t197.5 -63q141 0 202 65.5t61 207.5v648h-142v116h451v-116h-147v-657q0 -398 -432 -398zM678 -359q-84 0 -136.5 48t-52.5 129q0 78 60 176h114q-45 -62 -45 -126 q0 -107 98 -107q42 0 87 20v-103q-75 -37 -125 -37z" />
<glyph unicode="&#x173;" horiz-adv-x="994" d="M19 0zM416 107q134 0 244 143v439h-145v116h296v-689h146v-116h-292l-5 100q-124 -118 -272 -118q-249 0 -249 279v428h-120v116h272v-537q0 -161 125 -161zM810 -344q-84 0 -136.5 48t-52.5 129q0 78 60 176h114q-45 -62 -45 -126q0 -107 98 -107q42 0 87 20v-103 q-75 -37 -125 -37z" />
<glyph unicode="&#x178;" horiz-adv-x="1130" d="M0 0zM486 1449v-153h-154v153h154zM797 1449v-153h-152v153h152zM328 0v116h159v414l-358 507h-149v116h475v-116h-150l274 -389l257 389h-150v116h460v-116h-156l-343 -507v-414h164v-116h-483z" />
<glyph unicode="&#x179;" horiz-adv-x="1010" d="M48 0zM48 0v128l657 909h-498v-204h-129v320h832v-112l-667 -925h548v219h129v-335h-872zM439 1272l99 257h207l-187 -257h-119z" />
<glyph unicode="&#x17a;" horiz-adv-x="833" d="M68 0zM68 0v116l493 573h-337v-152h-121v268h640v-122l-495 -567h392v160h128v-276h-700zM346 922l99 257h207l-187 -257h-119z" />
<glyph unicode="&#x17b;" horiz-adv-x="1010" d="M48 0zM48 0v128l657 909h-498v-204h-129v320h832v-112l-667 -925h548v219h129v-335h-872zM427 1360q-1 37 26 62t65 25t64.5 -23.5t26.5 -63.5q1 -36 -24.5 -62t-66.5 -26q-36 0 -63.5 26t-27.5 62z" />
<glyph unicode="&#x17c;" horiz-adv-x="833" d="M68 0zM68 0v116l493 573h-337v-152h-121v268h640v-122l-495 -567h392v160h128v-276h-700zM345 1010q-1 37 26 62t65 25t64.5 -23.5t26.5 -63.5q1 -36 -24.5 -62t-66.5 -26q-36 0 -63.5 26t-27.5 62z" />
<glyph unicode="&#x17d;" horiz-adv-x="1010" d="M48 0zM353 1519l154 -154l152 154h104l-159 -259h-196l-162 259h107zM48 0v128l657 909h-498v-204h-129v320h832v-112l-667 -925h548v219h129v-335h-872z" />
<glyph unicode="&#x17e;" horiz-adv-x="833" d="M68 0zM265 1171l154 -154l152 154h104l-159 -259h-196l-162 259h107zM68 0v116l493 573h-337v-152h-121v268h640v-122l-495 -567h392v160h128v-276h-700z" />
<glyph unicode="&#x192;" horiz-adv-x="916" d="M698 1172q218 0 218 -233h-133q0 151 -78 151q-28 0 -50 -12t-35.5 -28t-25 -46t-16.5 -52t-13 -60l-33 -172h212l-17 -84h-213l-113 -576q-37 -193 -116 -286.5t-233 -93.5q-61 0 -106 13l18 84q60 -12 88 -12q27 0 49.5 9.5t39 23t31 38.5t23.5 46.5t18.5 57t14.5 58.5 t13 63l114 575h-165l17 84h162l31 159q59 293 298 293z" />
<glyph unicode="&#x1c4;" horiz-adv-x="2281" d="M72 0zM626 1153q277 0 431.5 -143t154.5 -414q0 -596 -600 -596h-540v116h159v921h-159v116h554zM638 116q200 0 304.5 126.5t104.5 338.5q0 218 -106.5 337t-318.5 119h-229v-921h245zM1319 0zM1624 1519l154 -154l152 154h104l-159 -259h-196l-162 259h107zM1319 0v128 l657 909h-498v-204h-129v320h832v-112l-667 -925h548v219h129v-335h-872z" />
<glyph unicode="&#x1c5;" horiz-adv-x="2104" d="M72 0zM626 1153q277 0 431.5 -143t154.5 -414q0 -596 -600 -596h-540v116h159v921h-159v116h554zM638 116q200 0 304.5 126.5t104.5 338.5q0 218 -106.5 337t-318.5 119h-229v-921h245zM1339 0zM1536 1171l154 -154l152 154h104l-159 -259h-196l-162 259h107zM1339 0v116 l493 573h-337v-152h-121v268h640v-122l-495 -567h392v160h128v-276h-700z" />
<glyph unicode="&#x1c6;" horiz-adv-x="1904" d="M57 0zM485 694q-122 0 -195 -83.5t-73 -210.5q0 -128 73.5 -209.5t196.5 -82.5q62 0 119 27.5t126 86.5v345q-69 66 -127 96.5t-120 30.5zM459 -18q-174 0 -288 115t-114 293q0 182 111 306t285 124q157 0 281 -107v324h-162v116h310v-1037h152v-116h-304l-1 99 q-61 -60 -125 -88.5t-145 -28.5zM1139 0zM1336 1171l154 -154l152 154h104l-159 -259h-196l-162 259h107zM1139 0v116l493 573h-337v-152h-121v268h640v-122l-495 -567h392v160h128v-276h-700z" />
<glyph unicode="&#x1c9;" horiz-adv-x="928" d="M31 0zM36 0v116h144v921h-149v116h298v-1037h149v-116h-442zM819 19q0 -182 -59.5 -252t-223.5 -70h-91v124h107q69 0 92.5 42t23.5 129v697h-152v116h303v-786zM648 1066q0 37 26.5 62t65.5 25t65.5 -25t26.5 -62t-26.5 -62t-65.5 -25t-65.5 25t-26.5 62z" />
<glyph unicode="&#x1cc;" horiz-adv-x="1472" d="M57 0zM727 507q0 90 -27 138.5t-98 48.5q-117 0 -245 -124v-454h145v-116h-439v116h143v573h-149v116h296l4 -104q154 119 273 119q117 0 180.5 -69t64.5 -189l-1 -446h145v-116h-402v116h110v391zM1363 19q0 -182 -59.5 -252t-223.5 -70h-91v124h107q69 0 92.5 42 t23.5 129v697h-152v116h303v-786zM1192 1066q0 37 26.5 62t65.5 25t65.5 -25t26.5 -62t-26.5 -62t-65.5 -25t-65.5 25t-26.5 62z" />
<glyph unicode="&#x1f1;" horiz-adv-x="2281" d="M72 0zM626 1153q277 0 431.5 -143t154.5 -414q0 -596 -600 -596h-540v116h159v921h-159v116h554zM638 116q200 0 304.5 126.5t104.5 338.5q0 218 -106.5 337t-318.5 119h-229v-921h245zM1319 0v128l657 909h-498v-204h-129v320h832v-112l-667 -925h548v219h129v-335h-872 z" />
<glyph unicode="&#x1f2;" horiz-adv-x="2104" d="M72 0zM626 1153q277 0 431.5 -143t154.5 -414q0 -596 -600 -596h-540v116h159v921h-159v116h554zM638 116q200 0 304.5 126.5t104.5 338.5q0 218 -106.5 337t-318.5 119h-229v-921h245zM1339 0v116l493 573h-337v-152h-121v268h640v-122l-495 -567h392v160h128v-276h-700 z" />
<glyph unicode="&#x1f3;" horiz-adv-x="1904" d="M57 0zM485 694q-122 0 -195 -83.5t-73 -210.5q0 -128 73.5 -209.5t196.5 -82.5q62 0 119 27.5t126 86.5v345q-69 66 -127 96.5t-120 30.5zM459 -18q-174 0 -288 115t-114 293q0 182 111 306t285 124q157 0 281 -107v324h-162v116h310v-1037h152v-116h-304l-1 99 q-61 -60 -125 -88.5t-145 -28.5zM1139 0v116l493 573h-337v-152h-121v268h640v-122l-495 -567h392v160h128v-276h-700z" />
<glyph unicode="&#x1f4;" horiz-adv-x="1294" d="M66 0zM66 575q0 264 161.5 430t425.5 166q238 0 387 -149v131h130v-349h-124q-119 233 -384 233q-194 0 -305.5 -128t-111.5 -333q0 -207 115 -333.5t317 -126.5q182 0 279.5 83.5t102.5 236.5h-227v127h391q0 -289 -136.5 -435t-408.5 -146q-284 0 -448 157t-164 436z M593 1273l99 257h207l-187 -257h-119z" />
<glyph unicode="&#x1f5;" horiz-adv-x="1069" d="M57 0zM731 571q-129 123 -250 123q-122 0 -193 -83t-71 -211q0 -123 73 -199t196 -76q61 0 118 25t127 79v342zM57 398q0 173 110 297.5t276 124.5q163 0 288 -111v96h301v-116h-151v-692q0 -105 -55.5 -178t-146.5 -106t-210 -33q-175 0 -285 67l47 110q104 -53 230 -53 q74 0 132 15t98 54.5t40 99.5v120q-51 -49 -115 -71t-169 -22q-165 0 -277.5 117t-112.5 281zM494 922l99 257h207l-187 -257h-119z" />
<glyph unicode="&#x200;" horiz-adv-x="1196" d="M0 0zM783 545l-155 492h-74l-156 -492h385zM-20 116h138l293 921h-100v116h560v-116h-101l294 -921h137v-116h-453v116h150l-85 308h-445l-84 -308h149v-116h-453v116zM681 1273l-185 272h190l90 -272h-95zM419 1273l-184 272h190l90 -272h-96z" />
<glyph unicode="&#x201;" horiz-adv-x="889" d="M56 0zM196 218q0 -58 41 -93.5t109 -35.5q154 0 249 89v174q-21 0 -84 8t-91 8q-110 0 -167 -32.5t-57 -117.5zM338 -18q-116 0 -199 61.5t-83 160.5q-1 144 87.5 205t258.5 61q88 0 193 -20v97q0 149 -186 154q-146 0 -215 -91l-92 98q112 112 302 112q340 0 340 -266 v-438h144v-116h-277l-2 83q-140 -101 -271 -101zM555 922l-185 272h190l90 -272h-95zM293 922l-184 272h190l90 -272h-96z" />
<glyph unicode="&#x202;" horiz-adv-x="1196" d="M0 0zM745 1288q-7 55 -46 86.5t-101 31.5q-127 0 -148 -118h-110q8 96 80 154t178 59q106 -1 177 -59.5t81 -153.5h-111zM783 545l-155 492h-74l-156 -492h385zM-20 116h138l293 921h-100v116h560v-116h-101l294 -921h137v-116h-453v116h150l-85 308h-445l-84 -308h149 v-116h-453v116z" />
<glyph unicode="&#x203;" horiz-adv-x="889" d="M56 0zM591 940q-7 55 -46 86.5t-101 31.5q-127 0 -148 -118h-110q8 96 80 154t178 59q106 -1 177 -59.5t81 -153.5h-111zM196 218q0 -58 41 -93.5t109 -35.5q154 0 249 89v174q-21 0 -84 8t-91 8q-110 0 -167 -32.5t-57 -117.5zM338 -18q-116 0 -199 61.5t-83 160.5 q-1 144 87.5 205t258.5 61q88 0 193 -20v97q0 149 -186 154q-146 0 -215 -91l-92 98q112 112 302 112q340 0 340 -266v-438h144v-116h-277l-2 83q-140 -101 -271 -101z" />
<glyph unicode="&#x204;" horiz-adv-x="1119" d="M72 0zM72 0v116h156v921h-156v116h971v-321h-131v205h-525v-382h362v114h100v-359h-101v116h-359v-410h525v212h129v-328h-971zM629 1273l-185 272h190l90 -272h-95zM367 1273l-184 272h190l90 -272h-96z" />
<glyph unicode="&#x205;" horiz-adv-x="955" d="M57 0zM757 467q-12 101 -79.5 164t-174.5 63q-116 0 -187 -59t-90 -168h531zM505 -18q-195 0 -321.5 116.5t-126.5 303.5q0 181 127.5 299.5t314.5 118.5q189 0 295.5 -125.5t106.5 -329.5h-679q7 -117 83.5 -187t199.5 -71q81 0 153.5 34.5t111.5 91.5l102 -76 q-114 -175 -367 -175zM559 922l-185 272h190l90 -272h-95zM297 922l-184 272h190l90 -272h-96z" />
<glyph unicode="&#x206;" horiz-adv-x="1119" d="M72 0zM706 1288q-7 55 -46 86.5t-101 31.5q-127 0 -148 -118h-110q8 96 80 154t178 59q106 -1 177 -59.5t81 -153.5h-111zM72 0v116h156v921h-156v116h971v-321h-131v205h-525v-382h362v114h100v-359h-101v116h-359v-410h525v212h129v-328h-971z" />
<glyph unicode="&#x207;" horiz-adv-x="955" d="M57 0zM624 940q-7 55 -46 86.5t-101 31.5q-127 0 -148 -118h-110q8 96 80 154t178 59q106 -1 177 -59.5t81 -153.5h-111zM757 467q-12 101 -79.5 164t-174.5 63q-116 0 -187 -59t-90 -168h531zM505 -18q-195 0 -321.5 116.5t-126.5 303.5q0 181 127.5 299.5t314.5 118.5 q189 0 295.5 -125.5t106.5 -329.5h-679q7 -117 83.5 -187t199.5 -71q81 0 153.5 34.5t111.5 91.5l102 -76q-114 -175 -367 -175z" />
<glyph unicode="&#x208;" horiz-adv-x="581" d="M0 0zM77 0v116h134v921h-134v116h428v-116h-132v-921h132v-116h-428zM373 1273l-185 272h190l90 -272h-95zM111 1273l-184 272h190l90 -272h-96z" />
<glyph unicode="&#x209;" horiz-adv-x="509" d="M0 0zM59 113h135v576h-135v116h284v-692h136v-113h-420v113zM353 922l-185 272h190l90 -272h-95zM91 922l-184 272h190l90 -272h-96z" />
<glyph unicode="&#x20a;" horiz-adv-x="581" d="M34 0zM439 1288q-7 55 -46 86.5t-101 31.5q-127 0 -148 -118h-110q8 96 80 154t178 59q106 -1 177 -59.5t81 -153.5h-111zM77 0v116h134v921h-134v116h428v-116h-132v-921h132v-116h-428z" />
<glyph unicode="&#x20b;" horiz-adv-x="509" d="M0 0zM403 940q-7 55 -46 86.5t-101 31.5q-127 0 -148 -118h-110q8 96 80 154t178 59q106 -1 177 -59.5t81 -153.5h-111zM59 113h135v576h-135v116h284v-692h136v-113h-420v113z" />
<glyph unicode="&#x20c;" horiz-adv-x="1321" d="M66 0zM660 116q-183 0 -300 133.5t-117 326.5q0 194 116.5 327t300.5 134q185 -1 301.5 -133.5t116.5 -327.5t-116.5 -327.5t-301.5 -132.5zM66 575q0 -171 75 -306t210.5 -211t308.5 -77q173 0 309.5 77t211.5 212.5t75 304.5q0 262 -166 428.5t-431 166.5 q-264 0 -428.5 -166.5t-164.5 -428.5zM745 1273l-185 272h190l90 -272h-95zM483 1273l-184 272h190l90 -272h-96z" />
<glyph unicode="&#x20d;" horiz-adv-x="966" d="M57 0zM484 820q186 0 306 -118t120 -300q0 -183 -121 -301.5t-307 -118.5t-305.5 120t-119.5 304q0 180 121.5 297t305.5 117zM750 401q0 126 -73.5 209.5t-194.5 83.5q-120 0 -193 -83.5t-73 -209.5t73.5 -209.5t192.5 -84.5q120 1 194 84t74 210zM567 922l-185 272h190 l90 -272h-95zM305 922l-184 272h190l90 -272h-96z" />
<glyph unicode="&#x20e;" horiz-adv-x="1321" d="M66 0zM807 1288q-7 55 -46 86.5t-101 31.5q-127 0 -148 -118h-110q8 96 80 154t178 59q106 -1 177 -59.5t81 -153.5h-111zM660 116q-183 0 -300 133.5t-117 326.5q0 194 116.5 327t300.5 134q185 -1 301.5 -133.5t116.5 -327.5t-116.5 -327.5t-301.5 -132.5zM66 575 q0 -171 75 -306t210.5 -211t308.5 -77q173 0 309.5 77t211.5 212.5t75 304.5q0 262 -166 428.5t-431 166.5q-264 0 -428.5 -166.5t-164.5 -428.5z" />
<glyph unicode="&#x20f;" horiz-adv-x="966" d="M57 0zM484 820q186 0 306 -118t120 -300q0 -183 -121 -301.5t-307 -118.5t-305.5 120t-119.5 304q0 180 121.5 297t305.5 117zM750 401q0 126 -73.5 209.5t-194.5 83.5q-120 0 -193 -83.5t-73 -209.5t73.5 -209.5t192.5 -84.5q120 1 194 84t74 210zM630 922 q-7 55 -46 86.5t-101 31.5q-127 0 -148 -118h-110q8 96 80 154t178 59q106 -1 177 -59.5t81 -153.5h-111z" />
<glyph unicode="&#x210;" horiz-adv-x="1107" d="M72 0zM623 1153q380 0 380 -298q0 -246 -259 -297l234 -442h146v-116h-253l-283 538h-193v-422h156v-116h-479v116h163v921h-163v116h551zM395 657h223q106 1 162.5 51.5t56.5 148.5q0 88 -62.5 134t-163.5 46h-216v-380zM667 1273l-185 272h190l90 -272h-95zM405 1273 l-184 272h190l90 -272h-96z" />
<glyph unicode="&#x211;" horiz-adv-x="761" d="M57 0zM556 899l-185 272h190l90 -272h-95zM294 899l-184 272h190l90 -272h-96zM346 630q47 98 113 139t178 41q51 0 92 -5v-124q-78 2 -99 2q-134 0 -194 -77t-62 -226v-264h176v-116h-487v116h161v573h-167v116h289v-175z" />
<glyph unicode="&#x212;" horiz-adv-x="1107" d="M72 0zM700 1288q-7 55 -46 86.5t-101 31.5q-127 0 -148 -118h-110q8 96 80 154t178 59q106 -1 177 -59.5t81 -153.5h-111zM623 1153q380 0 380 -298q0 -246 -259 -297l234 -442h146v-116h-253l-283 538h-193v-422h156v-116h-479v116h163v921h-163v116h551zM395 657h223 q106 1 162.5 51.5t56.5 148.5q0 88 -62.5 134t-163.5 46h-216v-380z" />
<glyph unicode="&#x213;" horiz-adv-x="761" d="M57 0zM527 940q-7 55 -46 86.5t-101 31.5q-127 0 -148 -118h-110q8 96 80 154t178 59q106 -1 177 -59.5t81 -153.5h-111zM346 630q47 98 113 139t178 41q51 0 92 -5v-124q-78 2 -99 2q-134 0 -194 -77t-62 -226v-264h176v-116h-487v116h161v573h-167v116h289v-175z" />
<glyph unicode="&#x214;" horiz-adv-x="1211" d="M16 0zM580 -18q-200 0 -308 101.5t-108 298.5v655h-148v116h452v-116h-142v-659q0 -136 63.5 -199t197.5 -63q141 0 202 65.5t61 207.5v648h-142v116h451v-116h-147v-657q0 -398 -432 -398zM689 1273l-185 272h190l90 -272h-95zM427 1273l-184 272h190l90 -272h-96z" />
<glyph unicode="&#x215;" horiz-adv-x="994" d="M19 0zM416 107q134 0 244 143v439h-145v116h296v-689h146v-116h-292l-5 100q-124 -118 -272 -118q-249 0 -249 279v428h-120v116h272v-537q0 -161 125 -161zM585 922l-185 272h190l90 -272h-95zM323 922l-184 272h190l90 -272h-96z" />
<glyph unicode="&#x216;" horiz-adv-x="1211" d="M16 0zM752 1288q-7 55 -46 86.5t-101 31.5q-127 0 -148 -118h-110q8 96 80 154t178 59q106 -1 177 -59.5t81 -153.5h-111zM580 -18q-200 0 -308 101.5t-108 298.5v655h-148v116h452v-116h-142v-659q0 -136 63.5 -199t197.5 -63q141 0 202 65.5t61 207.5v648h-142v116h451 v-116h-147v-657q0 -398 -432 -398z" />
<glyph unicode="&#x217;" horiz-adv-x="994" d="M19 0zM644 940q-7 55 -46 86.5t-101 31.5q-127 0 -148 -118h-110q8 96 80 154t178 59q106 -1 177 -59.5t81 -153.5h-111zM416 107q134 0 244 143v439h-145v116h296v-689h146v-116h-292l-5 100q-124 -118 -272 -118q-249 0 -249 279v428h-120v116h272v-537 q0 -161 125 -161z" />
<glyph unicode="&#x218;" horiz-adv-x="972" d="M92 0zM411 -66h212v-212q-1 -120 -51.5 -177.5t-160.5 -59.5v88q59 12 82.5 45t23.5 104h-106v212zM506 116q104 0 173.5 48t69.5 134q0 55 -22.5 94.5t-60.5 62.5t-87.5 39t-104 28.5t-108.5 26t-103.5 37t-87.5 56t-60.5 88t-22.5 128.5q0 146 100.5 229.5t255.5 83.5 q151 0 269 -92v74h135v-327h-135v82q-95 129 -251 129q-103 0 -160.5 -44.5t-57.5 -137.5q0 -47 23 -80.5t61.5 -53.5t88.5 -34.5t105 -28t110 -28.5t105 -41t88.5 -61t61.5 -92.5t23 -132.5q0 -145 -110 -233t-272 -88q-171 0 -297 105v-87h-135v387h135v-116 q119 -155 271 -155z" />
<glyph unicode="&#x219;" horiz-adv-x="809" d="M88 0zM303 -66h212v-212q-1 -120 -51.5 -177.5t-160.5 -59.5v88q59 12 82.5 45t23.5 104h-106v212zM765 228q0 -117 -88 -181.5t-222 -64.5q-71 0 -134 23.5t-98 64.5v-70h-133v272h133v-69q26 -43 81 -73t125 -30q183 0 183 117q1 30 -13.5 51t-46 33.5t-57.5 18 t-72 12.5q-68 10 -115 21t-91.5 29.5t-71 44.5t-42 65.5t-15.5 91.5q0 106 87.5 171t201.5 65q115 0 213 -80v65h129v-256h-129v67q-71 86 -199 86q-65 0 -113.5 -26t-48.5 -74q0 -26 8 -44.5t19.5 -29.5t36 -19.5t44 -12.5t56.5 -10q64 -10 103 -18t87.5 -21.5t77 -31 t55 -43.5t38 -62t11.5 -82z" />
<glyph unicode="&#x21a;" horiz-adv-x="1034" d="M31 0zM411 -66h212v-212q-1 -120 -51.5 -177.5t-160.5 -59.5v88q59 12 82.5 45t23.5 104h-106v212zM978 1153v-348h-131v232h-259v-921h174v-116h-512v116h175v921h-265v-232h-129v348h947z" />
<glyph unicode="&#x21b;" horiz-adv-x="528" d="M17 0zM212 -66h212v-212q-1 -120 -51.5 -177.5t-160.5 -59.5v88q59 12 82.5 45t23.5 104h-106v212zM357 0q-70 0 -113.5 17t-65.5 57.5t-29.5 91t-7.5 134.5v389h-124v116h124v258l151 32v-290h173v-116h-173v-400v-14v-42.5t1.5 -34.5t5 -30t9.5 -21.5t15 -17.5t22.5 -9 t31.5 -4h118v-116h-138z" />
<glyph unicode="&#x237;" horiz-adv-x="441" d="M47 -179q69 0 92.5 42t23.5 129v697h-152v116h303v-786q0 -162 -35 -217q-37 -57 -94.5 -81t-153.5 -24h-91v124h107z" />
<glyph unicode="&#x2c6;" horiz-adv-x="593" d="M58 896l98 275h275l104 -275h-148l-93 230l-93 -230h-143z" />
<glyph unicode="&#x2c7;" horiz-adv-x="593" d="M145 1171l154 -154l152 154h104l-159 -259h-196l-162 259h107z" />
<glyph unicode="&#x2d8;" horiz-adv-x="584" d="M546 1153q-9 -95 -77 -154t-177 -59q-105 0 -176 58.5t-78 154.5h124q9 -51 46.5 -78.5t85.5 -27.5q47 0 83.5 27.5t43.5 78.5h125z" />
<glyph unicode="&#x2d9;" horiz-adv-x="535" d="M177 1038q-1 37 26 62t65 25t64.5 -23.5t26.5 -63.5q1 -36 -24.5 -62t-66.5 -26q-36 0 -63.5 26t-27.5 62z" />
<glyph unicode="&#x2da;" horiz-adv-x="565" d="M386 1042q0 42 -28.5 70t-75.5 28q-43 0 -74 -28.5t-31 -69.5q1 -42 31.5 -70t73.5 -29q43 0 73.5 27t30.5 72zM114 1042q0 68 49 114t119 45q70 1 119.5 -45t49.5 -114q1 -68 -49 -114t-120 -47q-70 0 -119 46.5t-49 114.5z" />
<glyph unicode="&#x2db;" horiz-adv-x="587" d="M326 -353q-84 0 -136.5 48t-52.5 129q0 78 60 176h114q-45 -62 -45 -126q0 -107 98 -107q42 0 87 20v-103q-75 -37 -125 -37z" />
<glyph unicode="&#x2dc;" horiz-adv-x="587" d="M137 1024q-56 0 -68 -62h-80q13 157 113 197q30 12 66 12q49 0 146 -35t129 -35q62 0 77 65h78q-7 -92 -50 -152.5t-120 -59.5q-70 0 -163 35t-128 35z" />
<glyph unicode="&#x2dd;" horiz-adv-x="587" d="M25 899l91 272h190l-185 -272h-96zM287 899l90 272h190l-185 -272h-95z" />
<glyph unicode="&#x307;" horiz-adv-x="535" d="M177 1038q-1 37 26 62t65 25t64.5 -23.5t26.5 -63.5q1 -36 -24.5 -62t-66.5 -26q-36 0 -63.5 26t-27.5 62z" />
<glyph unicode="&#x30f;" horiz-adv-x="587" d="M443 899l-185 272h190l90 -272h-95zM181 899l-184 272h190l90 -272h-96z" />
<glyph unicode="&#x311;" horiz-adv-x="584" d="M439 940q-7 55 -46 86.5t-101 31.5q-127 0 -148 -118h-110q8 96 80 154t178 59q106 -1 177 -59.5t81 -153.5h-111z" />
<glyph unicode="&#x326;" horiz-adv-x="554" d="M151 -66h212v-212q-1 -120 -51.5 -177.5t-160.5 -59.5v88q59 12 82.5 45t23.5 104h-106v212z" />
<glyph unicode="&#x3c0;" horiz-adv-x="1032" d="M773 223q0 -69 19 -99t72 -30q24 0 68 15v-82q-46 -40 -124 -40q-164 0 -164 197q0 136 38 551h-302l-22 -456q-7 -138 -55 -208.5t-163 -70.5h-72v76q136 0 164 243q7 69 23 208t24 208h-58q-83 0 -94 -102h-76q0 171 98 225q36 20 85 19h728v-142h-180l-5 -243l-2 -145 q-2 -102 -2 -124z" />
<glyph unicode="&#x2013;" horiz-adv-x="874" d="M874 485v-117h-874v117h874z" />
<glyph unicode="&#x2014;" horiz-adv-x="1648" d="M1648 485v-117h-1648v117h1648z" />
<glyph unicode="&#x2018;" horiz-adv-x="382" d="M299 723h-217v211q0 123 52 180.5t165 56.5v-87q-63 -14 -87 -45.5t-24 -104.5h111v-211z" />
<glyph unicode="&#x2019;" horiz-adv-x="364" d="M82 1153h217v-211q-1 -123 -52.5 -181t-164.5 -56v87q64 14 88 45t23 105h-111v211z" />
<glyph unicode="&#x201a;" horiz-adv-x="389" d="M82 211h217v-211q-1 -123 -52.5 -181t-164.5 -56v87q64 14 88 45t23 105h-111v211z" />
<glyph unicode="&#x201c;" horiz-adv-x="720" d="M299 723h-217v211q0 123 52 180.5t165 56.5v-87q-63 -14 -87 -45.5t-24 -104.5h111v-211zM632 723h-217v211q1 123 52.5 181t164.5 56v-87q-64 -14 -88 -45t-23 -105h111v-211z" />
<glyph unicode="&#x201d;" horiz-adv-x="704" d="M415 1153h217v-211q0 -123 -52 -180.5t-165 -56.5v87q63 14 87 45.5t24 104.5h-111v211zM82 1153h217v-211q-1 -123 -52.5 -181t-164.5 -56v87q64 14 88 45t23 105h-111v211z" />
<glyph unicode="&#x201e;" horiz-adv-x="785" d="M82 211h217v-211q-1 -123 -52.5 -181t-164.5 -56v87q64 14 88 45t23 105h-111v211zM481 211h217v-211q0 -123 -52 -180.5t-165 -56.5v87q63 14 87 45.5t24 104.5h-111v211z" />
<glyph unicode="&#x2020;" horiz-adv-x="918" d="M416 -227q0 522 -74 999l74 232l-344 -58v176l344 -53l-54 487h197l-57 -487l344 53v-176l-344 58l78 -232q-78 -468 -78 -999h-86z" />
<glyph unicode="&#x2021;" horiz-adv-x="918" d="M487 668q23 -171 93 -213l-78 -232l344 58v-177l-344 54l57 -385h-197l54 385l-344 -54v177l344 -58l-74 232q69 50 88 215q-21 173 -88 204l74 232l-344 -57v176l344 -54l-54 385h197l-57 -385l344 54v-176l-344 57l78 -232q-70 -42 -93 -206z" />
<glyph unicode="&#x2022;" horiz-adv-x="559" d="M80 562q0 82 58.5 137t141.5 55q82 0 141.5 -56t59.5 -136t-60 -137t-141 -57q-83 0 -141.5 56t-58.5 138z" />
<glyph unicode="&#x2026;" horiz-adv-x="1242" d="M1141 211v-211h-227v211h227zM727 211v-211h-227v211h227zM313 211v-211h-227v211h227z" />
<glyph unicode="&#x2039;" horiz-adv-x="682" d="M133 586l313 356h103l-207 -389l207 -389h-103l-313 356v66z" />
<glyph unicode="&#x203a;" horiz-adv-x="682" d="M551 520l-313 -356h-103l207 389l-207 389h103l313 -356v-66z" />
<glyph unicode="&#x2044;" horiz-adv-x="793" d="M563 1171h129l-434 -1189h-129z" />
<glyph unicode="&#x2074;" horiz-adv-x="875" d="M478 352v413l-254 -413h254zM713 94v-94h-367v94h132v160h-371v98l374 579h112v-579h153v-98h-153v-160h120z" />
<glyph unicode="&#x20ac;" horiz-adv-x="1093" d="M662 -18q-205 0 -327 123t-155 325h-150v114h139v31q0 46 4 83h-143v113h162q66 277 278 369q71 31 160 31q160 0 267 -129v111h130v-349h-125q-120 192 -254 233q-156 0 -238 -157q-27 -52 -41 -109h249v-113h-269q-3 -38 -3 -78v-36h272v-114h-261q113 -250 297 -314 q107 0 176 72t93 190l135 -71q-59 -180 -184 -261q-100 -64 -212 -64z" />
<glyph unicode="&#x2122;" horiz-adv-x="1986" d="M951 1057h-102v96h279l221 -519l225 519h282v-96h-101v-574h101v-95h-309v95h92v531l-272 -626h-39l-271 624v-529h93v-95h-301v95h102v574zM790 1153v-255h-105v159h-161v-574h120v-95h-368v95h120v574h-165v-159h-104v255h663z" />
<glyph unicode="&#x2202;" horiz-adv-x="816" d="M223 255q0 -176 141 -176q97 -1 172 128q74 128 97 305q-26 107 -103 144q-26 12 -62 12t-73 -20q-96 -53 -145 -218q-26 -90 -27 -175zM313 -16q-262 0 -260 310q2 147 91 290q66 105 178 150q60 23 130 23q138 0 201 -112q3 1 3 60v13q0 252 -124 339q-40 28 -86 28 q-75 0 -118 -41t-43 -112q-120 0 -120 89q0 76 65.5 118.5t157.5 42.5q175 0 266.5 -115.5t91.5 -305.5q0 -115 -14 -222.5t-46.5 -209.5t-81 -177.5t-123.5 -121.5t-168 -46z" />
<glyph unicode="&#x2206;" horiz-adv-x="996" d="M752 117q-118 367 -250 760q-24 70 -34 116q-24 -104 -70 -232l-227 -644h581zM943 0h-895v91l381 1075h148l366 -1064v-102z" />
<glyph unicode="&#x220f;" horiz-adv-x="1299" d="M215 971q-2 59 -34.5 83.5t-95.5 22.5h-24v76h1171v-76h-25q-69 1 -98.5 -25t-29.5 -88v-764q2 -59 33 -82.5t95 -23.5h25v-76h-480v76h25q69 0 99 26t30 88v856h-520v-856q0 -63 31.5 -88.5t98.5 -25.5h25v-76h-480v76h24q70 0 100 25.5t30 88.5v763z" />
<glyph unicode="&#x2211;" horiz-adv-x="1132" d="M773 -21q129 0 147 150l7 52h92l-8 -360h-949v83l411 631l-375 551v67h842l8 -292h-92l-8 74q-25 127 -139 127h-404l310 -472v-58l-363 -553h521z" />
<glyph unicode="&#x221a;" horiz-adv-x="686" d="M415 0h-88l-182 513h-106v76h190l151 -429l301 993h86z" />
<glyph unicode="&#x221e;" horiz-adv-x="1448" d="M382 866q-90 0 -143 -81t-53 -189q0 -181 114 -244q37 -22 100 -22q133 0 251 268q-54 131 -119 200q-63 68 -150 68zM1264 594q0 106 -54.5 186t-143.5 80q-84 0 -146 -66q-61 -65 -123 -202q57 -132 119 -201q61 -67 150 -67q93 0 145.5 79.5t52.5 190.5zM72 592 q0 108 37 197t111 144.5t173 55.5q215 0 344 -244q126 238 324 238q144 0 229.5 -111.5t85.5 -273.5q0 -105 -37 -194.5t-110.5 -146t-169.5 -56.5q-209 0 -348 250q-127 -244 -318 -244q-148 0 -234.5 110t-86.5 275z" />
<glyph unicode="&#x222b;" horiz-adv-x="883" d="M157 -106q1 -72 18 -101.5t70 -29.5q73 0 91 142q14 103 14 392q0 313 9 430q28 442 284 444q196 0 196 -119q0 -94 -127 -94q0 65 -14.5 97t-56.5 32q-41 0 -63 -37q-23 -39 -40 -146q-18 -111 -18 -333q0 -50 0.5 -126t0.5 -108t-1 -82t-4 -93t-8 -96 q-20 -189 -84 -288q-64 -98 -208 -98q-185 0 -185 119q0 95 126 95z" />
<glyph unicode="&#x2248;" horiz-adv-x="1149" d="M539 463q-87 81 -121 95q-32 13 -56 13q-61 0 -89 -58q-30 -61 -40 -179h-120q15 162 51 228q72 130 186 130q52 0 100.5 -19.5t74.5 -38.5t67 -55q89 -79 122 -101q34 -23 81 -23q48 0 75 61q28 63 41 176h123q-18 -163 -55 -228q-73 -130 -186 -130t-254 129zM539 899 q-69 63 -101 85q-35 24 -85 24q-98 0 -120 -238h-120q15 162 51 228q72 130 186 130q123 0 248 -116q75 -69 113 -96q35 -25 84 -25q48 0 75 61q28 63 41 176h123q-18 -163 -55 -228q-73 -130 -186 -130t-254 129z" />
<glyph unicode="&#x2260;" horiz-adv-x="1145" d="M580 993l57 219h119l-58 -219h314v-121h-344l-74 -282h418v-121h-449l-55 -219h-121l57 219h-311v121h342l74 282h-416v121h447z" />
<glyph unicode="&#x2264;" horiz-adv-x="1145" d="M1012 0h-879v121h879v-121zM133 696v72l879 473v-137l-688 -373l688 -369v-137z" />
<glyph unicode="&#x2265;" horiz-adv-x="1145" d="M1012 0h-879v121h879v-121zM133 225v137l688 369l-688 373v137l879 -473v-72z" />
<glyph unicode="&#x25ca;" horiz-adv-x="1122" d="M563 1309l-354 -578l354 -584l350 584zM602 0h-82l-459 729l459 733h82l459 -731z" />
<glyph unicode="&#x1c7;" horiz-adv-x="1551" d="M72 0zM1375 99q0 -131 -64.5 -205t-182.5 -73h-147v145h120q64 0 87.5 37t23.5 114v920h-155v116h471v-116h-153v-938zM72 0v116h158v921h-158v116h474v-116h-155v-921h410v336h145v-452h-874z" />
<glyph unicode="&#x1c8;" horiz-adv-x="1408" d="M72 0zM1298 19q0 -182 -59.5 -252t-223.5 -70h-91v124h107q69 0 92.5 42t23.5 129v697h-152v116h303v-786zM1127 1066q0 37 26.5 62t65.5 25t65.5 -25t26.5 -62t-26.5 -62t-65.5 -25t-65.5 25t-26.5 62zM72 0v116h158v921h-158v116h474v-116h-155v-921h410v336h145v-452 h-874z" />
<glyph unicode="&#x1ca;" horiz-adv-x="1911" d="M72 0zM1735 99q0 -131 -64.5 -205t-182.5 -73h-147v145h120q64 0 87.5 37t23.5 114v920h-155v116h471v-116h-153v-938zM1002 1037h-165v116h472v-116h-173v-1037h-183l-578 997v-881h169v-116h-472v116h169v921h-169v116h382l548 -942v826z" />
<glyph unicode="&#x1cb;" horiz-adv-x="1768" d="M72 0zM1658 19q0 -182 -59.5 -252t-223.5 -70h-91v124h107q69 0 92.5 42t23.5 129v697h-152v116h303v-786zM1487 1066q0 37 26.5 62t65.5 25t65.5 -25t26.5 -62t-26.5 -62t-65.5 -25t-65.5 25t-26.5 62zM1002 1037h-165v116h472v-116h-173v-1037h-183l-578 997v-881h169 v-116h-472v116h169v921h-169v116h382l548 -942v826z" />
<glyph unicode="&#x2212;" horiz-adv-x="931" d="M876 842v-118h-820v118h820z" />
<glyph />
<glyph />
<glyph />
<glyph />
<glyph />
<glyph />
<glyph />
<glyph />
<glyph unicode="&#x9;" />
<glyph />
<glyph />
<glyph />
<glyph />
<glyph />
<glyph />
<glyph />
<glyph />
<glyph />
<glyph />
<glyph unicode="&#x114;" horiz-adv-x="1097" d="M72 0zM812 1485q-9 -95 -77 -154t-177 -59q-105 0 -176 58.5t-78 154.5h124q9 -51 46.5 -78.5t85.5 -27.5q47 0 83.5 27.5t43.5 78.5h125zM72 0v116h156v921h-156v116h971v-321h-131v205h-525v-382h362v114h100v-359h-101v116h-359v-410h525v212h129v-328h-971z" />
<glyph unicode="&#x115;" horiz-adv-x="949" d="M57 0zM733 1135q-9 -95 -77 -154t-177 -59q-105 0 -176 58.5t-78 154.5h124q9 -51 46.5 -78.5t85.5 -27.5q47 0 83.5 27.5t43.5 78.5h125zM757 467q-12 101 -79.5 164t-174.5 63q-116 0 -187 -59t-90 -168h531zM505 -18q-195 0 -321.5 116.5t-126.5 303.5 q0 181 127.5 299.5t314.5 118.5q189 0 295.5 -125.5t106.5 -329.5h-679q7 -117 83.5 -187t199.5 -71q81 0 153.5 34.5t111.5 91.5l102 -76q-114 -175 -367 -175z" />
<glyph unicode="&#x15c;" horiz-adv-x="965" d="M92 0zM264 1273l98 275h275l104 -275h-148l-93 230l-93 -230h-143zM506 116q104 0 173.5 48t69.5 134q0 55 -22.5 94.5t-60.5 62.5t-87.5 39t-104 28.5t-108.5 26t-103.5 37t-87.5 56t-60.5 88t-22.5 128.5q0 146 100.5 229.5t255.5 83.5q151 0 269 -92v74h135v-327h-135 v82q-95 129 -251 129q-103 0 -160.5 -44.5t-57.5 -137.5q0 -47 23 -80.5t61.5 -53.5t88.5 -34.5t105 -28t110 -28.5t105 -41t88.5 -61t61.5 -92.5t23 -132.5q0 -145 -110 -233t-272 -88q-171 0 -297 105v-87h-135v387h135v-116q119 -155 271 -155z" />
<glyph horiz-adv-x="965" d="M0 0z" />
</font>
</defs>
</svg>
